<?xml version="1.0" encoding="UTF-8" standalone="no"?>
<svg
   width="634.74878pt"
   height="628.62653pt"
   viewBox="0 0 634.74878 628.62653"
   version="1.1"
   id="svg1023"
   sodipodi:docname="normalized.svg"
   inkscape:version="1.3.2 (091e20e, 2023-11-25, custom)"
   xmlns:inkscape="http://www.inkscape.org/namespaces/inkscape"
   xmlns:sodipodi="http://sodipodi.sourceforge.net/DTD/sodipodi-0.dtd"
   xmlns="http://www.w3.org/2000/svg"
   xmlns:svg="http://www.w3.org/2000/svg"
   xmlns:rdf="http://www.w3.org/1999/02/22-rdf-syntax-ns#"
   xmlns:cc="http://creativecommons.org/ns#"
   xmlns:dc="http://purl.org/dc/elements/1.1/">
  <sodipodi:namedview
     id="namedview1023"
     pagecolor="#ffffff"
     bordercolor="#000000"
     borderopacity="0.25"
     inkscape:showpageshadow="2"
     inkscape:pageopacity="0.0"
     inkscape:pagecheckerboard="0"
     inkscape:deskcolor="#d1d1d1"
     inkscape:document-units="pt"
     inkscape:zoom="1.9928385"
     inkscape:cx="579.8262"
     inkscape:cy="501.5459"
     inkscape:window-width="3840"
     inkscape:window-height="2066"
     inkscape:window-x="2869"
     inkscape:window-y="-11"
     inkscape:window-maximized="1"
     inkscape:current-layer="svg1023" />
  <metadata
     id="metadata1">
    <rdf:RDF>
      <cc:Work>
        <dc:type
           rdf:resource="http://purl.org/dc/dcmitype/StillImage" />
        <dc:date>2024-10-04T14:46:27.840550</dc:date>
        <dc:format>image/svg+xml</dc:format>
        <dc:creator>
          <cc:Agent>
            <dc:title>Matplotlib v3.7.1, https://matplotlib.org/</dc:title>
          </cc:Agent>
        </dc:creator>
      </cc:Work>
    </rdf:RDF>
  </metadata>
  <defs
     id="defs1">
    <style
       type="text/css"
       id="style1">*{stroke-linejoin: round; stroke-linecap: butt}</style>
    <clipPath
       id="clip0">
      <rect
         x="866"
         y="166"
         width="894"
         height="866"
         id="rect1" />
    </clipPath>
    <clipPath
       id="clip1">
      <rect
         x="1103"
         y="671"
         width="361"
         height="361"
         id="rect2" />
    </clipPath>
    <clipPath
       id="clip2">
      <rect
         x="1103"
         y="671"
         width="361"
         height="361"
         id="rect3" />
    </clipPath>
    <clipPath
       id="clip3">
      <rect
         x="1103"
         y="671"
         width="361"
         height="361"
         id="rect4" />
    </clipPath>
    <clipPath
       id="clip4">
      <rect
         x="899"
         y="484"
         width="141"
         height="142"
         id="rect5" />
    </clipPath>
    <clipPath
       id="clip5">
      <rect
         x="899"
         y="484"
         width="141"
         height="142"
         id="rect6" />
    </clipPath>
    <clipPath
       id="clip6">
      <rect
         x="899"
         y="484"
         width="141"
         height="142"
         id="rect7" />
    </clipPath>
    <clipPath
       id="clip7">
      <rect
         x="1060"
         y="541"
         width="142"
         height="142"
         id="rect8" />
    </clipPath>
    <clipPath
       id="clip8">
      <rect
         x="1060"
         y="541"
         width="142"
         height="142"
         id="rect9" />
    </clipPath>
    <clipPath
       id="clip9">
      <rect
         x="1060"
         y="541"
         width="142"
         height="142"
         id="rect10" />
    </clipPath>
    <clipPath
       id="clip10">
      <rect
         x="1354"
         y="541"
         width="142"
         height="142"
         id="rect11" />
    </clipPath>
    <clipPath
       id="clip11">
      <rect
         x="1354"
         y="541"
         width="142"
         height="142"
         id="rect12" />
    </clipPath>
    <clipPath
       id="clip12">
      <rect
         x="1354"
         y="541"
         width="142"
         height="142"
         id="rect13" />
    </clipPath>
    <clipPath
       id="clip13">
      <rect
         x="1547"
         y="484"
         width="142"
         height="142"
         id="rect14" />
    </clipPath>
    <clipPath
       id="clip14">
      <rect
         x="1547"
         y="484"
         width="142"
         height="142"
         id="rect15" />
    </clipPath>
    <clipPath
       id="clip15">
      <rect
         x="1547"
         y="484"
         width="142"
         height="142"
         id="rect16" />
    </clipPath>
    <clipPath
       id="clip16">
      <rect
         x="1203"
         y="206"
         width="142"
         height="142"
         id="rect17" />
    </clipPath>
    <clipPath
       id="clip17">
      <rect
         x="1203"
         y="206"
         width="142"
         height="142"
         id="rect18" />
    </clipPath>
    <clipPath
       id="clip18">
      <rect
         x="1203"
         y="206"
         width="142"
         height="142"
         id="rect19" />
    </clipPath>
    <clipPath
       id="clip19">
      <rect
         x="1203"
         y="484"
         width="142"
         height="142"
         id="rect20" />
    </clipPath>
    <clipPath
       id="clip20">
      <rect
         x="1203"
         y="484"
         width="142"
         height="142"
         id="rect21" />
    </clipPath>
    <clipPath
       id="clip21">
      <rect
         x="1203"
         y="484"
         width="142"
         height="142"
         id="rect22" />
    </clipPath>
  </defs>
  <defs
     id="defs1023">
    <clipPath
       id="p6d3ae3676d">
      <rect
         x="47.720001"
         y="26.879999"
         width="231.30251"
         height="219.16"
         id="rect1020" />
    </clipPath>
    <clipPath
       id="pad4398fa81">
      <rect
         x="335.11249"
         y="26.879999"
         width="231.30251"
         height="219.16"
         id="rect1021" />
    </clipPath>
    <clipPath
       id="pad1b25e879">
      <rect
         x="622.505"
         y="26.879999"
         width="231.30251"
         height="219.16"
         id="rect1022" />
    </clipPath>
    <clipPath
       id="p79fc469b3a">
      <rect
         x="909.89752"
         y="26.879999"
         width="231.30251"
         height="219.16"
         id="rect1023" />
    </clipPath>
  </defs>
  <g
     clip-path="url(#clip0)"
     transform="matrix(0.75,0,0,0.75,-668.45747,-140.42285)"
     id="g59">
    <g
       clip-path="url(#clip1)"
       id="g24">
      <g
         clip-path="url(#clip2)"
         id="g23">
        <g
           clip-path="url(#clip3)"
           id="g22">
          <path
             d="m 1458.31,683.618 h -25.24 -324.38 c -3.14,0 -5.69,2.548 -5.69,5.691 v 40.543 c 0,0.19 0.01,0.379 0.03,0.567 0.01,0.079 0.02,0.156 0.03,0.234 0.02,0.105 0.03,0.212 0.05,0.316 0.02,0.093 0.04,0.183 0.07,0.274 0.02,0.089 0.04,0.178 0.07,0.266 0.02,0.091 0.06,0.178 0.09,0.266 0.03,0.087 0.06,0.175 0.09,0.26 0.04,0.083 0.08,0.163 0.12,0.245 0.04,0.087 0.08,0.174 0.12,0.258 0.04,0.081 0.09,0.157 0.14,0.234 0.05,0.081 0.09,0.164 0.15,0.244 0.06,0.088 0.12,0.17 0.18,0.254 0.05,0.064 0.1,0.13 0.15,0.192 0.12,0.147 0.24,0.287 0.38,0.421 l 140.37,140.374 7.54,139.743 c 0.16,3.02 2.66,5.38 5.68,5.38 h 25.24 c 3.02,0 5.52,-2.36 5.68,-5.38 l 7.54,-139.743 140.37,-140.374 c 0.14,-0.134 0.26,-0.275 0.38,-0.421 0.05,-0.062 0.1,-0.128 0.15,-0.192 0.06,-0.084 0.13,-0.166 0.18,-0.254 0.06,-0.08 0.1,-0.162 0.15,-0.244 0.05,-0.077 0.1,-0.154 0.14,-0.234 0.05,-0.084 0.08,-0.17 0.12,-0.256 0.04,-0.082 0.08,-0.163 0.12,-0.247 0.03,-0.085 0.06,-0.172 0.09,-0.258 0.04,-0.089 0.07,-0.176 0.1,-0.268 0.02,-0.088 0.04,-0.176 0.07,-0.266 0.02,-0.091 0.04,-0.18 0.06,-0.274 0.02,-0.104 0.04,-0.211 0.05,-0.316 0.01,-0.078 0.03,-0.155 0.03,-0.234 0.02,-0.188 0.03,-0.378 0.03,-0.567 v -34.853 h 19.55 c 3.14,0 5.69,-2.548 5.69,-5.69 0,-3.143 -2.55,-5.691 -5.69,-5.691 z M 1287.13,867.75 c -0.99,0.992 -1.58,2.316 -1.66,3.717 L 1278.11,1008 h -14.46 l -7.04,-130.536 h 8.46 c 3.15,0 5.69,-2.548 5.69,-5.691 0,-3.142 -2.54,-5.69 -5.69,-5.69 h -12.11 L 1122.43,735.547 h 229.55 c 3.14,0 5.69,-2.547 5.69,-5.69 0,-3.143 -2.55,-5.69 -5.69,-5.69 h -237.6 v -29.168 h 313 v 29.167 h -25.03 c -3.15,0 -5.69,2.548 -5.69,5.69 0,3.143 2.54,5.691 5.69,5.691 h 16.98 z"
             stroke="#333f50"
             stroke-width="12.0384"
             fill="none"
             id="path22" />
        </g>
      </g>
    </g>
    <g
       clip-path="url(#clip4)"
       id="g29">
      <g
         clip-path="url(#clip5)"
         id="g28">
        <g
           clip-path="url(#clip6)"
           id="g27">
          <path
             d="m 88.125,52.875 h 35.25 v 52.875 c 0,5.539 0,8.308 -1.721,10.029 -1.721,1.721 -4.49,1.721 -10.029,1.721 h -23.5 z"
             stroke="#33363f"
             stroke-width="11.75"
             stroke-linecap="round"
             fill="none"
             transform="matrix(1,0,0,1.00709,899,484)"
             id="path24" />
          <path
             d="m 17.625,52.875 h 35.25 V 117.5 h -23.5 c -5.539,0 -8.3085,0 -10.0293,-1.721 -1.7207,-1.721 -1.7207,-4.49 -1.7207,-10.029 z"
             stroke="#33363f"
             stroke-width="11.75"
             stroke-linecap="round"
             fill="none"
             transform="matrix(1,0,0,1.00709,899,484)"
             id="path25" />
          <path
             d="m 52.875,52.875 h 35.25 V 117.5 h -35.25 z"
             stroke="#33363f"
             stroke-width="11.75"
             stroke-linecap="round"
             fill="none"
             transform="matrix(1,0,0,1.00709,899,484)"
             id="path26" />
          <path
             d="m 17.625,35.25 c 0,-5.539 0,-8.3085 1.7207,-10.0293 C 21.0665,23.5 23.836,23.5 29.375,23.5 h 82.25 c 5.539,0 8.308,0 10.029,1.7207 1.721,1.7208 1.721,4.4903 1.721,10.0293 V 52.875 H 17.625 Z"
             stroke="#33363f"
             stroke-width="11.75"
             stroke-linecap="round"
             fill="none"
             transform="matrix(1,0,0,1.00709,899,484)"
             id="path27" />
        </g>
      </g>
    </g>
    <g
       clip-path="url(#clip7)"
       id="g34">
      <g
         clip-path="url(#clip8)"
         id="g33">
        <g
           clip-path="url(#clip9)"
           id="g32">
          <path
             d="m 88.75,53.25 h 35.5 v 53.25 c 0,5.578 0,8.367 -1.733,10.1 -1.733,1.733 -4.522,1.733 -10.1,1.733 H 88.75 Z"
             stroke="#33363f"
             stroke-width="11.8333"
             stroke-linecap="round"
             fill="none"
             transform="matrix(-1,0,0,1,1202,541)"
             id="path29" />
          <path
             d="m 17.75,53.25 h 35.5 v 65.083 H 29.5833 c -5.5783,0 -8.3674,0 -10.1004,-1.733 C 17.75,114.867 17.75,112.078 17.75,106.5 Z"
             stroke="#33363f"
             stroke-width="11.8333"
             stroke-linecap="round"
             fill="none"
             transform="matrix(-1,0,0,1,1202,541)"
             id="path30" />
          <path
             d="m 53.25,53.25 h 35.5 v 65.083 h -35.5 z"
             stroke="#33363f"
             stroke-width="11.8333"
             stroke-linecap="round"
             fill="none"
             transform="matrix(-1,0,0,1,1202,541)"
             id="path31" />
          <path
             d="m 17.75,35.5 c 0,-5.5783 0,-8.3674 1.7329,-10.1004 1.733,-1.7329 4.5221,-1.7329 10.1004,-1.7329 h 82.8337 c 5.578,0 8.367,0 10.1,1.7329 1.733,1.733 1.733,4.5221 1.733,10.1004 V 53.25 H 17.75 Z"
             stroke="#33363f"
             stroke-width="11.8333"
             stroke-linecap="round"
             fill="none"
             transform="matrix(-1,0,0,1,1202,541)"
             id="path32" />
        </g>
      </g>
    </g>
    <g
       clip-path="url(#clip10)"
       id="g39">
      <g
         clip-path="url(#clip11)"
         id="g38">
        <g
           clip-path="url(#clip12)"
           id="g37">
          <path
             d="m 88.75,53.25 h 35.5 v 53.25 c 0,5.578 0,8.367 -1.733,10.1 -1.733,1.733 -4.522,1.733 -10.1,1.733 H 88.75 Z"
             stroke="#33363f"
             stroke-width="11.8333"
             stroke-linecap="round"
             fill="none"
             transform="matrix(-1,0,0,1,1496,541)"
             id="path34" />
          <path
             d="m 17.75,53.25 h 35.5 v 65.083 H 29.5833 c -5.5783,0 -8.3674,0 -10.1004,-1.733 C 17.75,114.867 17.75,112.078 17.75,106.5 Z"
             stroke="#33363f"
             stroke-width="11.8333"
             stroke-linecap="round"
             fill="none"
             transform="matrix(-1,0,0,1,1496,541)"
             id="path35" />
          <path
             d="m 53.25,53.25 h 35.5 v 65.083 h -35.5 z"
             stroke="#33363f"
             stroke-width="11.8333"
             stroke-linecap="round"
             fill="none"
             transform="matrix(-1,0,0,1,1496,541)"
             id="path36" />
          <path
             d="m 17.75,35.5 c 0,-5.5783 0,-8.3674 1.7329,-10.1004 1.733,-1.7329 4.5221,-1.7329 10.1004,-1.7329 h 82.8337 c 5.578,0 8.367,0 10.1,1.7329 1.733,1.733 1.733,4.5221 1.733,10.1004 V 53.25 H 17.75 Z"
             stroke="#33363f"
             stroke-width="11.8333"
             stroke-linecap="round"
             fill="none"
             transform="matrix(-1,0,0,1,1496,541)"
             id="path37" />
        </g>
      </g>
    </g>
    <g
       clip-path="url(#clip13)"
       id="g44">
      <g
         clip-path="url(#clip14)"
         id="g43">
        <g
           clip-path="url(#clip15)"
           id="g42">
          <path
             d="m 88.75,53.25 h 35.5 v 53.25 c 0,5.578 0,8.367 -1.733,10.1 -1.733,1.733 -4.522,1.733 -10.1,1.733 H 88.75 Z"
             stroke="#33363f"
             stroke-width="11.8333"
             stroke-linecap="round"
             fill="none"
             transform="matrix(-1,0,0,1,1689,484)"
             id="path39" />
          <path
             d="m 17.75,53.25 h 35.5 v 65.083 H 29.5833 c -5.5783,0 -8.3674,0 -10.1004,-1.733 C 17.75,114.867 17.75,112.078 17.75,106.5 Z"
             stroke="#33363f"
             stroke-width="11.8333"
             stroke-linecap="round"
             fill="none"
             transform="matrix(-1,0,0,1,1689,484)"
             id="path40" />
          <path
             d="m 53.25,53.25 h 35.5 v 65.083 h -35.5 z"
             stroke="#33363f"
             stroke-width="11.8333"
             stroke-linecap="round"
             fill="none"
             transform="matrix(-1,0,0,1,1689,484)"
             id="path41" />
          <path
             d="m 17.75,35.5 c 0,-5.5783 0,-8.3674 1.7329,-10.1004 1.733,-1.7329 4.5221,-1.7329 10.1004,-1.7329 h 82.8337 c 5.578,0 8.367,0 10.1,1.7329 1.733,1.733 1.733,4.5221 1.733,10.1004 V 53.25 H 17.75 Z"
             stroke="#33363f"
             stroke-width="11.8333"
             stroke-linecap="round"
             fill="none"
             transform="matrix(-1,0,0,1,1689,484)"
             id="path42" />
        </g>
      </g>
    </g>
    <text
       font-family="Arial, Arial_MSFontService, sans-serif"
       font-weight="400"
       font-size="36px"
       transform="rotate(-45,1752.6804,-1158.5548)"
       id="text44">Data Integration</text>
    <text
       font-family="Arial, Arial_MSFontService, sans-serif"
       font-weight="400"
       font-size="36px"
       transform="rotate(45,-363.74482,1624.4618)"
       id="text45">Data Cleaning</text>
    <g
       clip-path="url(#clip16)"
       id="g50">
      <g
         clip-path="url(#clip17)"
         id="g49">
        <g
           clip-path="url(#clip18)"
           id="g48">
          <path
             d="m 88.75,53.25 h 35.5 v 53.25 c 0,5.578 0,8.367 -1.733,10.1 -1.733,1.733 -4.522,1.733 -10.1,1.733 H 88.75 Z"
             stroke="#33363f"
             stroke-width="11.8333"
             stroke-linecap="round"
             fill="none"
             transform="matrix(-1,0,0,1,1345,206)"
             id="path45" />
          <path
             d="m 17.75,53.25 h 35.5 v 65.083 H 29.5833 c -5.5783,0 -8.3674,0 -10.1004,-1.733 C 17.75,114.867 17.75,112.078 17.75,106.5 Z"
             stroke="#33363f"
             stroke-width="11.8333"
             stroke-linecap="round"
             fill="none"
             transform="matrix(-1,0,0,1,1345,206)"
             id="path46" />
          <path
             d="m 53.25,53.25 h 35.5 v 65.083 h -35.5 z"
             stroke="#33363f"
             stroke-width="11.8333"
             stroke-linecap="round"
             fill="none"
             transform="matrix(-1,0,0,1,1345,206)"
             id="path47" />
          <path
             d="m 17.75,35.5 c 0,-5.5783 0,-8.3674 1.7329,-10.1004 1.733,-1.7329 4.5221,-1.7329 10.1004,-1.7329 h 82.8337 c 5.578,0 8.367,0 10.1,1.7329 1.733,1.733 1.733,4.5221 1.733,10.1004 V 53.25 H 17.75 Z"
             stroke="#33363f"
             stroke-width="11.8333"
             stroke-linecap="round"
             fill="none"
             transform="matrix(-1,0,0,1,1345,206)"
             id="path48" />
        </g>
      </g>
    </g>
    <path
       d="m 1230,408.5 h 22.25 V 352 h 44.5 v 56.5 H 1319 l -44.5,44.5 z"
       stroke="#3b3838"
       stroke-width="6"
       stroke-miterlimit="8"
       fill="none"
       fill-rule="evenodd"
       id="path50" />
    <g
       clip-path="url(#clip19)"
       id="g56">
      <g
         clip-path="url(#clip20)"
         id="g55">
        <g
           clip-path="url(#clip21)"
           id="g54">
          <path
             d="m 88.75,53.25 h 35.5 v 53.25 c 0,5.578 0,8.367 -1.733,10.1 -1.733,1.733 -4.522,1.733 -10.1,1.733 H 88.75 Z"
             stroke="#33363f"
             stroke-width="11.8333"
             stroke-linecap="round"
             fill="none"
             transform="matrix(-1,0,0,1,1345,484)"
             id="path51" />
          <path
             d="m 17.75,53.25 h 35.5 v 65.083 H 29.5833 c -5.5783,0 -8.3674,0 -10.1004,-1.733 C 17.75,114.867 17.75,112.078 17.75,106.5 Z"
             stroke="#33363f"
             stroke-width="11.8333"
             stroke-linecap="round"
             fill="none"
             transform="matrix(-1,0,0,1,1345,484)"
             id="path52" />
          <path
             d="m 53.25,53.25 h 35.5 v 65.083 h -35.5 z"
             stroke="#33363f"
             stroke-width="11.8333"
             stroke-linecap="round"
             fill="none"
             transform="matrix(-1,0,0,1,1345,484)"
             id="path53" />
          <path
             d="m 17.75,35.5 c 0,-5.5783 0,-8.3674 1.7329,-10.1004 1.733,-1.7329 4.5221,-1.7329 10.1004,-1.7329 h 82.8337 c 5.578,0 8.367,0 10.1,1.7329 1.733,1.733 1.733,4.5221 1.733,10.1004 V 53.25 H 17.75 Z"
             stroke="#33363f"
             stroke-width="11.8333"
             stroke-linecap="round"
             fill="none"
             transform="matrix(-1,0,0,1,1345,484)"
             id="path54" />
        </g>
      </g>
    </g>
    <text
       font-family="Arial, Arial_MSFontService, sans-serif"
       font-weight="400"
       font-size="36px"
       transform="translate(1209.54,213)"
       id="text56">Election<tspan
   font-size="36px"
   x="-30.2931"
   y="274"
   id="tspan56">Partisanism</tspan></text>
    <text
       font-family="Arial, Arial_MSFontService, sans-serif"
       font-weight="400"
       font-size="36px"
       transform="rotate(0.22116674,-125745.37,230400.98)"
       id="text57">Education</text>
    <text
       font-family="Arial, Arial_MSFontService, sans-serif"
       font-weight="400"
       font-size="36px"
       transform="rotate(0.78490238,-34800.083,109405.36)"
       id="text58">Unemployment</text>
    <text
       font-family="Arial, Arial_MSFontService, sans-serif"
       font-weight="400"
       font-size="36px"
       transform="translate(1069.36,550)"
       id="text59">Poverty<tspan
   font-size="36px"
   x="269.69"
   y="0"
   id="tspan58">Population</tspan></text>
  </g>
</svg>
