<?xml version="1.0" encoding="utf-8" standalone="no"?>
<!DOCTYPE svg PUBLIC "-//W3C//DTD SVG 1.1//EN"
  "http://www.w3.org/Graphics/SVG/1.1/DTD/svg11.dtd">
<svg xmlns:xlink="http://www.w3.org/1999/xlink" width="576pt" height="216pt" viewBox="0 0 576 216" xmlns="http://www.w3.org/2000/svg" version="1.1">
 <metadata>
  <rdf:RDF xmlns:dc="http://purl.org/dc/elements/1.1/" xmlns:cc="http://creativecommons.org/ns#" xmlns:rdf="http://www.w3.org/1999/02/22-rdf-syntax-ns#">
   <cc:Work>
    <dc:type rdf:resource="http://purl.org/dc/dcmitype/StillImage"/>
    <dc:date>2025-01-16T11:50:28.066861</dc:date>
    <dc:format>image/svg+xml</dc:format>
    <dc:creator>
     <cc:Agent>
      <dc:title>Matplotlib v3.10.0, https://matplotlib.org/</dc:title>
     </cc:Agent>
    </dc:creator>
   </cc:Work>
  </rdf:RDF>
 </metadata>
 <defs>
  <style type="text/css">*{stroke-linejoin: round; stroke-linecap: butt}</style>
 </defs>
 <g id="figure_1">
  <g id="patch_1">
   <path d="M 0 216 
L 576 216 
L 576 0 
L 0 0 
z
" style="fill: #ffffff"/>
  </g>
  <g id="axes_1">
   <g id="patch_2">
    <path d="M 48.17 168.784 
L 210.98 168.784 
L 210.98 10.8 
L 48.17 10.8 
z
" style="fill: #ffffff"/>
   </g>
   <g id="patch_3">
    <path d="M 55.570455 168.784 
L 60.037961 168.784 
L 60.037961 165.997686 
L 55.570455 165.997686 
z
" clip-path="url(#p70ef43b730)" style="fill: #0000ff; opacity: 0.7"/>
   </g>
   <g id="patch_4">
    <path d="M 60.037961 168.784 
L 64.505467 168.784 
L 64.505467 168.784 
L 60.037961 168.784 
z
" clip-path="url(#p70ef43b730)" style="fill: #0000ff; opacity: 0.7"/>
   </g>
   <g id="patch_5">
    <path d="M 64.505467 168.784 
L 68.972973 168.784 
L 68.972973 165.997686 
L 64.505467 165.997686 
z
" clip-path="url(#p70ef43b730)" style="fill: #0000ff; opacity: 0.7"/>
   </g>
   <g id="patch_6">
    <path d="M 68.972973 168.784 
L 73.440479 168.784 
L 73.440479 165.997686 
L 68.972973 165.997686 
z
" clip-path="url(#p70ef43b730)" style="fill: #0000ff; opacity: 0.7"/>
   </g>
   <g id="patch_7">
    <path d="M 73.440479 168.784 
L 77.907985 168.784 
L 77.907985 163.211372 
L 73.440479 163.211372 
z
" clip-path="url(#p70ef43b730)" style="fill: #0000ff; opacity: 0.7"/>
   </g>
   <g id="patch_8">
    <path d="M 77.907985 168.784 
L 82.375492 168.784 
L 82.375492 146.493489 
L 77.907985 146.493489 
z
" clip-path="url(#p70ef43b730)" style="fill: #0000ff; opacity: 0.7"/>
   </g>
   <g id="patch_9">
    <path d="M 82.375492 168.784 
L 86.842998 168.784 
L 86.842998 143.707175 
L 82.375492 143.707175 
z
" clip-path="url(#p70ef43b730)" style="fill: #0000ff; opacity: 0.7"/>
   </g>
   <g id="patch_10">
    <path d="M 86.842998 168.784 
L 91.310504 168.784 
L 91.310504 115.844035 
L 86.842998 115.844035 
z
" clip-path="url(#p70ef43b730)" style="fill: #0000ff; opacity: 0.7"/>
   </g>
   <g id="patch_11">
    <path d="M 91.310504 168.784 
L 95.77801 168.784 
L 95.77801 110.271407 
L 91.310504 110.271407 
z
" clip-path="url(#p70ef43b730)" style="fill: #0000ff; opacity: 0.7"/>
   </g>
   <g id="patch_12">
    <path d="M 95.77801 168.784 
L 100.245516 168.784 
L 100.245516 85.194582 
L 95.77801 85.194582 
z
" clip-path="url(#p70ef43b730)" style="fill: #0000ff; opacity: 0.7"/>
   </g>
   <g id="patch_13">
    <path d="M 100.245516 168.784 
L 104.713023 168.784 
L 104.713023 48.972501 
L 100.245516 48.972501 
z
" clip-path="url(#p70ef43b730)" style="fill: #0000ff; opacity: 0.7"/>
   </g>
   <g id="patch_14">
    <path d="M 104.713023 168.784 
L 109.180529 168.784 
L 109.180529 54.545129 
L 104.713023 54.545129 
z
" clip-path="url(#p70ef43b730)" style="fill: #0000ff; opacity: 0.7"/>
   </g>
   <g id="patch_15">
    <path d="M 109.180529 168.784 
L 113.648035 168.784 
L 113.648035 62.904071 
L 109.180529 62.904071 
z
" clip-path="url(#p70ef43b730)" style="fill: #0000ff; opacity: 0.7"/>
   </g>
   <g id="patch_16">
    <path d="M 113.648035 168.784 
L 118.115541 168.784 
L 118.115541 35.040931 
L 113.648035 35.040931 
z
" clip-path="url(#p70ef43b730)" style="fill: #0000ff; opacity: 0.7"/>
   </g>
   <g id="patch_17">
    <path d="M 118.115541 168.784 
L 122.583047 168.784 
L 122.583047 32.254617 
L 118.115541 32.254617 
z
" clip-path="url(#p70ef43b730)" style="fill: #0000ff; opacity: 0.7"/>
   </g>
   <g id="patch_18">
    <path d="M 122.583047 168.784 
L 127.050554 168.784 
L 127.050554 37.827245 
L 122.583047 37.827245 
z
" clip-path="url(#p70ef43b730)" style="fill: #0000ff; opacity: 0.7"/>
   </g>
   <g id="patch_19">
    <path d="M 127.050554 168.784 
L 131.51806 168.784 
L 131.51806 62.904071 
L 127.050554 62.904071 
z
" clip-path="url(#p70ef43b730)" style="fill: #0000ff; opacity: 0.7"/>
   </g>
   <g id="patch_20">
    <path d="M 131.51806 168.784 
L 135.985566 168.784 
L 135.985566 74.049326 
L 131.51806 74.049326 
z
" clip-path="url(#p70ef43b730)" style="fill: #0000ff; opacity: 0.7"/>
   </g>
   <g id="patch_21">
    <path d="M 135.985566 168.784 
L 140.453072 168.784 
L 140.453072 121.416663 
L 135.985566 121.416663 
z
" clip-path="url(#p70ef43b730)" style="fill: #0000ff; opacity: 0.7"/>
   </g>
   <g id="patch_22">
    <path d="M 140.453072 168.784 
L 144.920578 168.784 
L 144.920578 121.416663 
L 140.453072 121.416663 
z
" clip-path="url(#p70ef43b730)" style="fill: #0000ff; opacity: 0.7"/>
   </g>
   <g id="patch_23">
    <path d="M 144.920578 168.784 
L 149.388084 168.784 
L 149.388084 129.775605 
L 144.920578 129.775605 
z
" clip-path="url(#p70ef43b730)" style="fill: #0000ff; opacity: 0.7"/>
   </g>
   <g id="patch_24">
    <path d="M 149.388084 168.784 
L 153.855591 168.784 
L 153.855591 146.493489 
L 149.388084 146.493489 
z
" clip-path="url(#p70ef43b730)" style="fill: #0000ff; opacity: 0.7"/>
   </g>
   <g id="patch_25">
    <path d="M 153.855591 168.784 
L 158.323097 168.784 
L 158.323097 143.707175 
L 153.855591 143.707175 
z
" clip-path="url(#p70ef43b730)" style="fill: #0000ff; opacity: 0.7"/>
   </g>
   <g id="patch_26">
    <path d="M 158.323097 168.784 
L 162.790603 168.784 
L 162.790603 165.997686 
L 158.323097 165.997686 
z
" clip-path="url(#p70ef43b730)" style="fill: #0000ff; opacity: 0.7"/>
   </g>
   <g id="patch_27">
    <path d="M 162.790603 168.784 
L 167.258109 168.784 
L 167.258109 165.997686 
L 162.790603 165.997686 
z
" clip-path="url(#p70ef43b730)" style="fill: #0000ff; opacity: 0.7"/>
   </g>
   <g id="patch_28">
    <path d="M 167.258109 168.784 
L 171.725615 168.784 
L 171.725615 165.997686 
L 167.258109 165.997686 
z
" clip-path="url(#p70ef43b730)" style="fill: #0000ff; opacity: 0.7"/>
   </g>
   <g id="patch_29">
    <path d="M 171.725615 168.784 
L 176.193122 168.784 
L 176.193122 165.997686 
L 171.725615 165.997686 
z
" clip-path="url(#p70ef43b730)" style="fill: #0000ff; opacity: 0.7"/>
   </g>
   <g id="patch_30">
    <path d="M 176.193122 168.784 
L 180.660628 168.784 
L 180.660628 168.784 
L 176.193122 168.784 
z
" clip-path="url(#p70ef43b730)" style="fill: #0000ff; opacity: 0.7"/>
   </g>
   <g id="patch_31">
    <path d="M 180.660628 168.784 
L 185.128134 168.784 
L 185.128134 168.784 
L 180.660628 168.784 
z
" clip-path="url(#p70ef43b730)" style="fill: #0000ff; opacity: 0.7"/>
   </g>
   <g id="patch_32">
    <path d="M 185.128134 168.784 
L 189.59564 168.784 
L 189.59564 165.997686 
L 185.128134 165.997686 
z
" clip-path="url(#p70ef43b730)" style="fill: #0000ff; opacity: 0.7"/>
   </g>
   <g id="patch_33">
    <path d="M 78.450476 168.784 
L 81.806629 168.784 
L 81.806629 163.211372 
L 78.450476 163.211372 
z
" clip-path="url(#p70ef43b730)" style="fill: #ffa500; opacity: 0.7"/>
   </g>
   <g id="patch_34">
    <path d="M 81.806629 168.784 
L 85.162781 168.784 
L 85.162781 163.211372 
L 81.806629 163.211372 
z
" clip-path="url(#p70ef43b730)" style="fill: #ffa500; opacity: 0.7"/>
   </g>
   <g id="patch_35">
    <path d="M 85.162781 168.784 
L 88.518933 168.784 
L 88.518933 163.211372 
L 85.162781 163.211372 
z
" clip-path="url(#p70ef43b730)" style="fill: #ffa500; opacity: 0.7"/>
   </g>
   <g id="patch_36">
    <path d="M 88.518933 168.784 
L 91.875086 168.784 
L 91.875086 157.638744 
L 88.518933 157.638744 
z
" clip-path="url(#p70ef43b730)" style="fill: #ffa500; opacity: 0.7"/>
   </g>
   <g id="patch_37">
    <path d="M 91.875086 168.784 
L 95.231238 168.784 
L 95.231238 160.425058 
L 91.875086 160.425058 
z
" clip-path="url(#p70ef43b730)" style="fill: #ffa500; opacity: 0.7"/>
   </g>
   <g id="patch_38">
    <path d="M 95.231238 168.784 
L 98.58739 168.784 
L 98.58739 143.707175 
L 95.231238 143.707175 
z
" clip-path="url(#p70ef43b730)" style="fill: #ffa500; opacity: 0.7"/>
   </g>
   <g id="patch_39">
    <path d="M 98.58739 168.784 
L 101.943543 168.784 
L 101.943543 140.920861 
L 98.58739 140.920861 
z
" clip-path="url(#p70ef43b730)" style="fill: #ffa500; opacity: 0.7"/>
   </g>
   <g id="patch_40">
    <path d="M 101.943543 168.784 
L 105.299695 168.784 
L 105.299695 118.630349 
L 101.943543 118.630349 
z
" clip-path="url(#p70ef43b730)" style="fill: #ffa500; opacity: 0.7"/>
   </g>
   <g id="patch_41">
    <path d="M 105.299695 168.784 
L 108.655848 168.784 
L 108.655848 135.348233 
L 105.299695 135.348233 
z
" clip-path="url(#p70ef43b730)" style="fill: #ffa500; opacity: 0.7"/>
   </g>
   <g id="patch_42">
    <path d="M 108.655848 168.784 
L 112.012 168.784 
L 112.012 115.844035 
L 108.655848 115.844035 
z
" clip-path="url(#p70ef43b730)" style="fill: #ffa500; opacity: 0.7"/>
   </g>
   <g id="patch_43">
    <path d="M 112.012 168.784 
L 115.368152 168.784 
L 115.368152 110.271407 
L 112.012 110.271407 
z
" clip-path="url(#p70ef43b730)" style="fill: #ffa500; opacity: 0.7"/>
   </g>
   <g id="patch_44">
    <path d="M 115.368152 168.784 
L 118.724305 168.784 
L 118.724305 85.194582 
L 115.368152 85.194582 
z
" clip-path="url(#p70ef43b730)" style="fill: #ffa500; opacity: 0.7"/>
   </g>
   <g id="patch_45">
    <path d="M 118.724305 168.784 
L 122.080457 168.784 
L 122.080457 46.186187 
L 118.724305 46.186187 
z
" clip-path="url(#p70ef43b730)" style="fill: #ffa500; opacity: 0.7"/>
   </g>
   <g id="patch_46">
    <path d="M 122.080457 168.784 
L 125.436609 168.784 
L 125.436609 82.408268 
L 122.080457 82.408268 
z
" clip-path="url(#p70ef43b730)" style="fill: #ffa500; opacity: 0.7"/>
   </g>
   <g id="patch_47">
    <path d="M 125.436609 168.784 
L 128.792762 168.784 
L 128.792762 74.049326 
L 125.436609 74.049326 
z
" clip-path="url(#p70ef43b730)" style="fill: #ffa500; opacity: 0.7"/>
   </g>
   <g id="patch_48">
    <path d="M 128.792762 168.784 
L 132.148914 168.784 
L 132.148914 85.194582 
L 128.792762 85.194582 
z
" clip-path="url(#p70ef43b730)" style="fill: #ffa500; opacity: 0.7"/>
   </g>
   <g id="patch_49">
    <path d="M 132.148914 168.784 
L 135.505066 168.784 
L 135.505066 54.545129 
L 132.148914 54.545129 
z
" clip-path="url(#p70ef43b730)" style="fill: #ffa500; opacity: 0.7"/>
   </g>
   <g id="patch_50">
    <path d="M 135.505066 168.784 
L 138.861219 168.784 
L 138.861219 74.049326 
L 135.505066 74.049326 
z
" clip-path="url(#p70ef43b730)" style="fill: #ffa500; opacity: 0.7"/>
   </g>
   <g id="patch_51">
    <path d="M 138.861219 168.784 
L 142.217371 168.784 
L 142.217371 79.621954 
L 138.861219 79.621954 
z
" clip-path="url(#p70ef43b730)" style="fill: #ffa500; opacity: 0.7"/>
   </g>
   <g id="patch_52">
    <path d="M 142.217371 168.784 
L 145.573524 168.784 
L 145.573524 96.339838 
L 142.217371 96.339838 
z
" clip-path="url(#p70ef43b730)" style="fill: #ffa500; opacity: 0.7"/>
   </g>
   <g id="patch_53">
    <path d="M 145.573524 168.784 
L 148.929676 168.784 
L 148.929676 124.202977 
L 145.573524 124.202977 
z
" clip-path="url(#p70ef43b730)" style="fill: #ffa500; opacity: 0.7"/>
   </g>
   <g id="patch_54">
    <path d="M 148.929676 168.784 
L 152.285828 168.784 
L 152.285828 99.126152 
L 148.929676 99.126152 
z
" clip-path="url(#p70ef43b730)" style="fill: #ffa500; opacity: 0.7"/>
   </g>
   <g id="patch_55">
    <path d="M 152.285828 168.784 
L 155.641981 168.784 
L 155.641981 146.493489 
L 152.285828 146.493489 
z
" clip-path="url(#p70ef43b730)" style="fill: #ffa500; opacity: 0.7"/>
   </g>
   <g id="patch_56">
    <path d="M 155.641981 168.784 
L 158.998133 168.784 
L 158.998133 129.775605 
L 155.641981 129.775605 
z
" clip-path="url(#p70ef43b730)" style="fill: #ffa500; opacity: 0.7"/>
   </g>
   <g id="patch_57">
    <path d="M 158.998133 168.784 
L 162.354285 168.784 
L 162.354285 149.279802 
L 158.998133 149.279802 
z
" clip-path="url(#p70ef43b730)" style="fill: #ffa500; opacity: 0.7"/>
   </g>
   <g id="patch_58">
    <path d="M 162.354285 168.784 
L 165.710438 168.784 
L 165.710438 126.989291 
L 162.354285 126.989291 
z
" clip-path="url(#p70ef43b730)" style="fill: #ffa500; opacity: 0.7"/>
   </g>
   <g id="patch_59">
    <path d="M 165.710438 168.784 
L 169.06659 168.784 
L 169.06659 163.211372 
L 165.710438 163.211372 
z
" clip-path="url(#p70ef43b730)" style="fill: #ffa500; opacity: 0.7"/>
   </g>
   <g id="patch_60">
    <path d="M 169.06659 168.784 
L 172.422742 168.784 
L 172.422742 163.211372 
L 169.06659 163.211372 
z
" clip-path="url(#p70ef43b730)" style="fill: #ffa500; opacity: 0.7"/>
   </g>
   <g id="patch_61">
    <path d="M 172.422742 168.784 
L 175.778895 168.784 
L 175.778895 163.211372 
L 172.422742 163.211372 
z
" clip-path="url(#p70ef43b730)" style="fill: #ffa500; opacity: 0.7"/>
   </g>
   <g id="patch_62">
    <path d="M 175.778895 168.784 
L 179.135047 168.784 
L 179.135047 154.85243 
L 175.778895 154.85243 
z
" clip-path="url(#p70ef43b730)" style="fill: #ffa500; opacity: 0.7"/>
   </g>
   <g id="matplotlib.axis_1">
    <g id="xtick_1">
     <g id="line2d_1">
      <path d="M 53.831074 168.784 
L 53.831074 10.8 
" clip-path="url(#p70ef43b730)" style="fill: none; stroke: #b0b0b0; stroke-opacity: 0.3; stroke-width: 0.8; stroke-linecap: square"/>
     </g>
     <g id="line2d_2">
      <defs>
       <path id="m7a8d4c9e9c" d="M 0 0 
L 0 3.5 
" style="stroke: #000000; stroke-width: 0.8"/>
      </defs>
      <g>
       <use xlink:href="#m7a8d4c9e9c" x="53.831074" y="168.784" style="stroke: #000000; stroke-width: 0.8"/>
      </g>
     </g>
     <g id="text_1">
      <!-- 0 -->
      <g transform="translate(50.649824 183.382437) scale(0.1 -0.1)">
       <defs>
        <path id="DejaVuSans-30" d="M 2034 4250 
Q 1547 4250 1301 3770 
Q 1056 3291 1056 2328 
Q 1056 1369 1301 889 
Q 1547 409 2034 409 
Q 2525 409 2770 889 
Q 3016 1369 3016 2328 
Q 3016 3291 2770 3770 
Q 2525 4250 2034 4250 
z
M 2034 4750 
Q 2819 4750 3233 4129 
Q 3647 3509 3647 2328 
Q 3647 1150 3233 529 
Q 2819 -91 2034 -91 
Q 1250 -91 836 529 
Q 422 1150 422 2328 
Q 422 3509 836 4129 
Q 1250 4750 2034 4750 
z
" transform="scale(0.015625)"/>
       </defs>
       <use xlink:href="#DejaVuSans-30"/>
      </g>
     </g>
    </g>
    <g id="xtick_2">
     <g id="line2d_3">
      <path d="M 116.806926 168.784 
L 116.806926 10.8 
" clip-path="url(#p70ef43b730)" style="fill: none; stroke: #b0b0b0; stroke-opacity: 0.3; stroke-width: 0.8; stroke-linecap: square"/>
     </g>
     <g id="line2d_4">
      <g>
       <use xlink:href="#m7a8d4c9e9c" x="116.806926" y="168.784" style="stroke: #000000; stroke-width: 0.8"/>
      </g>
     </g>
     <g id="text_2">
      <!-- 5 -->
      <g transform="translate(113.625676 183.382437) scale(0.1 -0.1)">
       <defs>
        <path id="DejaVuSans-35" d="M 691 4666 
L 3169 4666 
L 3169 4134 
L 1269 4134 
L 1269 2991 
Q 1406 3038 1543 3061 
Q 1681 3084 1819 3084 
Q 2600 3084 3056 2656 
Q 3513 2228 3513 1497 
Q 3513 744 3044 326 
Q 2575 -91 1722 -91 
Q 1428 -91 1123 -41 
Q 819 9 494 109 
L 494 744 
Q 775 591 1075 516 
Q 1375 441 1709 441 
Q 2250 441 2565 725 
Q 2881 1009 2881 1497 
Q 2881 1984 2565 2268 
Q 2250 2553 1709 2553 
Q 1456 2553 1204 2497 
Q 953 2441 691 2322 
L 691 4666 
z
" transform="scale(0.015625)"/>
       </defs>
       <use xlink:href="#DejaVuSans-35"/>
      </g>
     </g>
    </g>
    <g id="xtick_3">
     <g id="line2d_5">
      <path d="M 179.782778 168.784 
L 179.782778 10.8 
" clip-path="url(#p70ef43b730)" style="fill: none; stroke: #b0b0b0; stroke-opacity: 0.3; stroke-width: 0.8; stroke-linecap: square"/>
     </g>
     <g id="line2d_6">
      <g>
       <use xlink:href="#m7a8d4c9e9c" x="179.782778" y="168.784" style="stroke: #000000; stroke-width: 0.8"/>
      </g>
     </g>
     <g id="text_3">
      <!-- 10 -->
      <g transform="translate(173.420278 183.382437) scale(0.1 -0.1)">
       <defs>
        <path id="DejaVuSans-31" d="M 794 531 
L 1825 531 
L 1825 4091 
L 703 3866 
L 703 4441 
L 1819 4666 
L 2450 4666 
L 2450 531 
L 3481 531 
L 3481 0 
L 794 0 
L 794 531 
z
" transform="scale(0.015625)"/>
       </defs>
       <use xlink:href="#DejaVuSans-31"/>
       <use xlink:href="#DejaVuSans-30" transform="translate(63.623047 0)"/>
      </g>
     </g>
    </g>
    <g id="text_4">
     <!-- $X_0$ -->
     <g transform="translate(121.455 200.099937) scale(0.14 -0.14)">
      <defs>
       <path id="DejaVuSans-Oblique-58" d="M 878 4666 
L 1516 4666 
L 2316 2981 
L 3763 4666 
L 4500 4666 
L 2578 2438 
L 3738 0 
L 3103 0 
L 2163 1966 
L 459 0 
L -275 0 
L 1906 2509 
L 878 4666 
z
" transform="scale(0.015625)"/>
      </defs>
      <use xlink:href="#DejaVuSans-Oblique-58" transform="translate(0 0.09375)"/>
      <use xlink:href="#DejaVuSans-30" transform="translate(68.505859 -16.3125) scale(0.7)"/>
     </g>
    </g>
   </g>
   <g id="matplotlib.axis_2">
    <g id="ytick_1">
     <g id="line2d_7">
      <path d="M 48.17 168.784 
L 210.98 168.784 
" clip-path="url(#p70ef43b730)" style="fill: none; stroke: #b0b0b0; stroke-opacity: 0.3; stroke-width: 0.8; stroke-linecap: square"/>
     </g>
     <g id="line2d_8">
      <defs>
       <path id="mbe3947ce5e" d="M 0 0 
L -3.5 0 
" style="stroke: #000000; stroke-width: 0.8"/>
      </defs>
      <g>
       <use xlink:href="#mbe3947ce5e" x="48.17" y="168.784" style="stroke: #000000; stroke-width: 0.8"/>
      </g>
     </g>
     <g id="text_5">
      <!-- 0 -->
      <g transform="translate(34.8075 172.583219) scale(0.1 -0.1)">
       <use xlink:href="#DejaVuSans-30"/>
      </g>
     </g>
    </g>
    <g id="ytick_2">
     <g id="line2d_9">
      <path d="M 48.17 140.920861 
L 210.98 140.920861 
" clip-path="url(#p70ef43b730)" style="fill: none; stroke: #b0b0b0; stroke-opacity: 0.3; stroke-width: 0.8; stroke-linecap: square"/>
     </g>
     <g id="line2d_10">
      <g>
       <use xlink:href="#mbe3947ce5e" x="48.17" y="140.920861" style="stroke: #000000; stroke-width: 0.8"/>
      </g>
     </g>
     <g id="text_6">
      <!-- 10 -->
      <g transform="translate(28.445 144.720079) scale(0.1 -0.1)">
       <use xlink:href="#DejaVuSans-31"/>
       <use xlink:href="#DejaVuSans-30" transform="translate(63.623047 0)"/>
      </g>
     </g>
    </g>
    <g id="ytick_3">
     <g id="line2d_11">
      <path d="M 48.17 113.057721 
L 210.98 113.057721 
" clip-path="url(#p70ef43b730)" style="fill: none; stroke: #b0b0b0; stroke-opacity: 0.3; stroke-width: 0.8; stroke-linecap: square"/>
     </g>
     <g id="line2d_12">
      <g>
       <use xlink:href="#mbe3947ce5e" x="48.17" y="113.057721" style="stroke: #000000; stroke-width: 0.8"/>
      </g>
     </g>
     <g id="text_7">
      <!-- 20 -->
      <g transform="translate(28.445 116.85694) scale(0.1 -0.1)">
       <defs>
        <path id="DejaVuSans-32" d="M 1228 531 
L 3431 531 
L 3431 0 
L 469 0 
L 469 531 
Q 828 903 1448 1529 
Q 2069 2156 2228 2338 
Q 2531 2678 2651 2914 
Q 2772 3150 2772 3378 
Q 2772 3750 2511 3984 
Q 2250 4219 1831 4219 
Q 1534 4219 1204 4116 
Q 875 4013 500 3803 
L 500 4441 
Q 881 4594 1212 4672 
Q 1544 4750 1819 4750 
Q 2544 4750 2975 4387 
Q 3406 4025 3406 3419 
Q 3406 3131 3298 2873 
Q 3191 2616 2906 2266 
Q 2828 2175 2409 1742 
Q 1991 1309 1228 531 
z
" transform="scale(0.015625)"/>
       </defs>
       <use xlink:href="#DejaVuSans-32"/>
       <use xlink:href="#DejaVuSans-30" transform="translate(63.623047 0)"/>
      </g>
     </g>
    </g>
    <g id="ytick_4">
     <g id="line2d_13">
      <path d="M 48.17 85.194582 
L 210.98 85.194582 
" clip-path="url(#p70ef43b730)" style="fill: none; stroke: #b0b0b0; stroke-opacity: 0.3; stroke-width: 0.8; stroke-linecap: square"/>
     </g>
     <g id="line2d_14">
      <g>
       <use xlink:href="#mbe3947ce5e" x="48.17" y="85.194582" style="stroke: #000000; stroke-width: 0.8"/>
      </g>
     </g>
     <g id="text_8">
      <!-- 30 -->
      <g transform="translate(28.445 88.993801) scale(0.1 -0.1)">
       <defs>
        <path id="DejaVuSans-33" d="M 2597 2516 
Q 3050 2419 3304 2112 
Q 3559 1806 3559 1356 
Q 3559 666 3084 287 
Q 2609 -91 1734 -91 
Q 1441 -91 1130 -33 
Q 819 25 488 141 
L 488 750 
Q 750 597 1062 519 
Q 1375 441 1716 441 
Q 2309 441 2620 675 
Q 2931 909 2931 1356 
Q 2931 1769 2642 2001 
Q 2353 2234 1838 2234 
L 1294 2234 
L 1294 2753 
L 1863 2753 
Q 2328 2753 2575 2939 
Q 2822 3125 2822 3475 
Q 2822 3834 2567 4026 
Q 2313 4219 1838 4219 
Q 1578 4219 1281 4162 
Q 984 4106 628 3988 
L 628 4550 
Q 988 4650 1302 4700 
Q 1616 4750 1894 4750 
Q 2613 4750 3031 4423 
Q 3450 4097 3450 3541 
Q 3450 3153 3228 2886 
Q 3006 2619 2597 2516 
z
" transform="scale(0.015625)"/>
       </defs>
       <use xlink:href="#DejaVuSans-33"/>
       <use xlink:href="#DejaVuSans-30" transform="translate(63.623047 0)"/>
      </g>
     </g>
    </g>
    <g id="ytick_5">
     <g id="line2d_15">
      <path d="M 48.17 57.331443 
L 210.98 57.331443 
" clip-path="url(#p70ef43b730)" style="fill: none; stroke: #b0b0b0; stroke-opacity: 0.3; stroke-width: 0.8; stroke-linecap: square"/>
     </g>
     <g id="line2d_16">
      <g>
       <use xlink:href="#mbe3947ce5e" x="48.17" y="57.331443" style="stroke: #000000; stroke-width: 0.8"/>
      </g>
     </g>
     <g id="text_9">
      <!-- 40 -->
      <g transform="translate(28.445 61.130661) scale(0.1 -0.1)">
       <defs>
        <path id="DejaVuSans-34" d="M 2419 4116 
L 825 1625 
L 2419 1625 
L 2419 4116 
z
M 2253 4666 
L 3047 4666 
L 3047 1625 
L 3713 1625 
L 3713 1100 
L 3047 1100 
L 3047 0 
L 2419 0 
L 2419 1100 
L 313 1100 
L 313 1709 
L 2253 4666 
z
" transform="scale(0.015625)"/>
       </defs>
       <use xlink:href="#DejaVuSans-34"/>
       <use xlink:href="#DejaVuSans-30" transform="translate(63.623047 0)"/>
      </g>
     </g>
    </g>
    <g id="ytick_6">
     <g id="line2d_17">
      <path d="M 48.17 29.468303 
L 210.98 29.468303 
" clip-path="url(#p70ef43b730)" style="fill: none; stroke: #b0b0b0; stroke-opacity: 0.3; stroke-width: 0.8; stroke-linecap: square"/>
     </g>
     <g id="line2d_18">
      <g>
       <use xlink:href="#mbe3947ce5e" x="48.17" y="29.468303" style="stroke: #000000; stroke-width: 0.8"/>
      </g>
     </g>
     <g id="text_10">
      <!-- 50 -->
      <g transform="translate(28.445 33.267522) scale(0.1 -0.1)">
       <use xlink:href="#DejaVuSans-35"/>
       <use xlink:href="#DejaVuSans-30" transform="translate(63.623047 0)"/>
      </g>
     </g>
    </g>
    <g id="text_11">
     <!-- Frequency -->
     <g transform="translate(21.533438 125.953563) rotate(-90) scale(0.14 -0.14)">
      <defs>
       <path id="DejaVuSans-46" d="M 628 4666 
L 3309 4666 
L 3309 4134 
L 1259 4134 
L 1259 2759 
L 3109 2759 
L 3109 2228 
L 1259 2228 
L 1259 0 
L 628 0 
L 628 4666 
z
" transform="scale(0.015625)"/>
       <path id="DejaVuSans-72" d="M 2631 2963 
Q 2534 3019 2420 3045 
Q 2306 3072 2169 3072 
Q 1681 3072 1420 2755 
Q 1159 2438 1159 1844 
L 1159 0 
L 581 0 
L 581 3500 
L 1159 3500 
L 1159 2956 
Q 1341 3275 1631 3429 
Q 1922 3584 2338 3584 
Q 2397 3584 2469 3576 
Q 2541 3569 2628 3553 
L 2631 2963 
z
" transform="scale(0.015625)"/>
       <path id="DejaVuSans-65" d="M 3597 1894 
L 3597 1613 
L 953 1613 
Q 991 1019 1311 708 
Q 1631 397 2203 397 
Q 2534 397 2845 478 
Q 3156 559 3463 722 
L 3463 178 
Q 3153 47 2828 -22 
Q 2503 -91 2169 -91 
Q 1331 -91 842 396 
Q 353 884 353 1716 
Q 353 2575 817 3079 
Q 1281 3584 2069 3584 
Q 2775 3584 3186 3129 
Q 3597 2675 3597 1894 
z
M 3022 2063 
Q 3016 2534 2758 2815 
Q 2500 3097 2075 3097 
Q 1594 3097 1305 2825 
Q 1016 2553 972 2059 
L 3022 2063 
z
" transform="scale(0.015625)"/>
       <path id="DejaVuSans-71" d="M 947 1747 
Q 947 1113 1208 752 
Q 1469 391 1925 391 
Q 2381 391 2643 752 
Q 2906 1113 2906 1747 
Q 2906 2381 2643 2742 
Q 2381 3103 1925 3103 
Q 1469 3103 1208 2742 
Q 947 2381 947 1747 
z
M 2906 525 
Q 2725 213 2448 61 
Q 2172 -91 1784 -91 
Q 1150 -91 751 415 
Q 353 922 353 1747 
Q 353 2572 751 3078 
Q 1150 3584 1784 3584 
Q 2172 3584 2448 3432 
Q 2725 3281 2906 2969 
L 2906 3500 
L 3481 3500 
L 3481 -1331 
L 2906 -1331 
L 2906 525 
z
" transform="scale(0.015625)"/>
       <path id="DejaVuSans-75" d="M 544 1381 
L 544 3500 
L 1119 3500 
L 1119 1403 
Q 1119 906 1312 657 
Q 1506 409 1894 409 
Q 2359 409 2629 706 
Q 2900 1003 2900 1516 
L 2900 3500 
L 3475 3500 
L 3475 0 
L 2900 0 
L 2900 538 
Q 2691 219 2414 64 
Q 2138 -91 1772 -91 
Q 1169 -91 856 284 
Q 544 659 544 1381 
z
M 1991 3584 
L 1991 3584 
z
" transform="scale(0.015625)"/>
       <path id="DejaVuSans-6e" d="M 3513 2113 
L 3513 0 
L 2938 0 
L 2938 2094 
Q 2938 2591 2744 2837 
Q 2550 3084 2163 3084 
Q 1697 3084 1428 2787 
Q 1159 2491 1159 1978 
L 1159 0 
L 581 0 
L 581 3500 
L 1159 3500 
L 1159 2956 
Q 1366 3272 1645 3428 
Q 1925 3584 2291 3584 
Q 2894 3584 3203 3211 
Q 3513 2838 3513 2113 
z
" transform="scale(0.015625)"/>
       <path id="DejaVuSans-63" d="M 3122 3366 
L 3122 2828 
Q 2878 2963 2633 3030 
Q 2388 3097 2138 3097 
Q 1578 3097 1268 2742 
Q 959 2388 959 1747 
Q 959 1106 1268 751 
Q 1578 397 2138 397 
Q 2388 397 2633 464 
Q 2878 531 3122 666 
L 3122 134 
Q 2881 22 2623 -34 
Q 2366 -91 2075 -91 
Q 1284 -91 818 406 
Q 353 903 353 1747 
Q 353 2603 823 3093 
Q 1294 3584 2113 3584 
Q 2378 3584 2631 3529 
Q 2884 3475 3122 3366 
z
" transform="scale(0.015625)"/>
       <path id="DejaVuSans-79" d="M 2059 -325 
Q 1816 -950 1584 -1140 
Q 1353 -1331 966 -1331 
L 506 -1331 
L 506 -850 
L 844 -850 
Q 1081 -850 1212 -737 
Q 1344 -625 1503 -206 
L 1606 56 
L 191 3500 
L 800 3500 
L 1894 763 
L 2988 3500 
L 3597 3500 
L 2059 -325 
z
" transform="scale(0.015625)"/>
      </defs>
      <use xlink:href="#DejaVuSans-46"/>
      <use xlink:href="#DejaVuSans-72" transform="translate(50.269531 0)"/>
      <use xlink:href="#DejaVuSans-65" transform="translate(89.132812 0)"/>
      <use xlink:href="#DejaVuSans-71" transform="translate(150.65625 0)"/>
      <use xlink:href="#DejaVuSans-75" transform="translate(214.132812 0)"/>
      <use xlink:href="#DejaVuSans-65" transform="translate(277.511719 0)"/>
      <use xlink:href="#DejaVuSans-6e" transform="translate(339.035156 0)"/>
      <use xlink:href="#DejaVuSans-63" transform="translate(402.414062 0)"/>
      <use xlink:href="#DejaVuSans-79" transform="translate(457.394531 0)"/>
     </g>
    </g>
   </g>
   <g id="patch_63">
    <path d="M 48.17 168.784 
L 48.17 10.8 
" style="fill: none; stroke: #000000; stroke-width: 0.8; stroke-linejoin: miter; stroke-linecap: square"/>
   </g>
   <g id="patch_64">
    <path d="M 210.98 168.784 
L 210.98 10.8 
" style="fill: none; stroke: #000000; stroke-width: 0.8; stroke-linejoin: miter; stroke-linecap: square"/>
   </g>
   <g id="patch_65">
    <path d="M 48.17 168.784 
L 210.98 168.784 
" style="fill: none; stroke: #000000; stroke-width: 0.8; stroke-linejoin: miter; stroke-linecap: square"/>
   </g>
   <g id="patch_66">
    <path d="M 48.17 10.8 
L 210.98 10.8 
" style="fill: none; stroke: #000000; stroke-width: 0.8; stroke-linejoin: miter; stroke-linecap: square"/>
   </g>
   <g id="legend_1">
    <g id="patch_67">
     <path d="M 132.712813 62.834375 
L 203.98 62.834375 
Q 205.98 62.834375 205.98 60.834375 
L 205.98 17.8 
Q 205.98 15.8 203.98 15.8 
L 132.712813 15.8 
Q 130.712813 15.8 130.712813 17.8 
L 130.712813 60.834375 
Q 130.712813 62.834375 132.712813 62.834375 
z
" style="fill: #ffffff; opacity: 0.8; stroke: #cccccc; stroke-linejoin: miter"/>
    </g>
    <g id="text_12">
     <!-- A -->
     <g transform="translate(164.926094 27.398438) scale(0.1 -0.1)">
      <defs>
       <path id="DejaVuSans-41" d="M 2188 4044 
L 1331 1722 
L 3047 1722 
L 2188 4044 
z
M 1831 4666 
L 2547 4666 
L 4325 0 
L 3669 0 
L 3244 1197 
L 1141 1197 
L 716 0 
L 50 0 
L 1831 4666 
z
" transform="scale(0.015625)"/>
      </defs>
      <use xlink:href="#DejaVuSans-41"/>
     </g>
    </g>
    <g id="patch_68">
     <path d="M 134.712813 42.076563 
L 154.712813 42.076563 
L 154.712813 35.076563 
L 134.712813 35.076563 
z
" style="fill: #0000ff; opacity: 0.7"/>
    </g>
    <g id="text_13">
     <!-- Square -->
     <g transform="translate(162.712813 42.076563) scale(0.1 -0.1)">
      <defs>
       <path id="DejaVuSans-53" d="M 3425 4513 
L 3425 3897 
Q 3066 4069 2747 4153 
Q 2428 4238 2131 4238 
Q 1616 4238 1336 4038 
Q 1056 3838 1056 3469 
Q 1056 3159 1242 3001 
Q 1428 2844 1947 2747 
L 2328 2669 
Q 3034 2534 3370 2195 
Q 3706 1856 3706 1288 
Q 3706 609 3251 259 
Q 2797 -91 1919 -91 
Q 1588 -91 1214 -16 
Q 841 59 441 206 
L 441 856 
Q 825 641 1194 531 
Q 1563 422 1919 422 
Q 2459 422 2753 634 
Q 3047 847 3047 1241 
Q 3047 1584 2836 1778 
Q 2625 1972 2144 2069 
L 1759 2144 
Q 1053 2284 737 2584 
Q 422 2884 422 3419 
Q 422 4038 858 4394 
Q 1294 4750 2059 4750 
Q 2388 4750 2728 4690 
Q 3069 4631 3425 4513 
z
" transform="scale(0.015625)"/>
       <path id="DejaVuSans-61" d="M 2194 1759 
Q 1497 1759 1228 1600 
Q 959 1441 959 1056 
Q 959 750 1161 570 
Q 1363 391 1709 391 
Q 2188 391 2477 730 
Q 2766 1069 2766 1631 
L 2766 1759 
L 2194 1759 
z
M 3341 1997 
L 3341 0 
L 2766 0 
L 2766 531 
Q 2569 213 2275 61 
Q 1981 -91 1556 -91 
Q 1019 -91 701 211 
Q 384 513 384 1019 
Q 384 1609 779 1909 
Q 1175 2209 1959 2209 
L 2766 2209 
L 2766 2266 
Q 2766 2663 2505 2880 
Q 2244 3097 1772 3097 
Q 1472 3097 1187 3025 
Q 903 2953 641 2809 
L 641 3341 
Q 956 3463 1253 3523 
Q 1550 3584 1831 3584 
Q 2591 3584 2966 3190 
Q 3341 2797 3341 1997 
z
" transform="scale(0.015625)"/>
      </defs>
      <use xlink:href="#DejaVuSans-53"/>
      <use xlink:href="#DejaVuSans-71" transform="translate(63.476562 0)"/>
      <use xlink:href="#DejaVuSans-75" transform="translate(126.953125 0)"/>
      <use xlink:href="#DejaVuSans-61" transform="translate(190.332031 0)"/>
      <use xlink:href="#DejaVuSans-72" transform="translate(251.611328 0)"/>
      <use xlink:href="#DejaVuSans-65" transform="translate(290.474609 0)"/>
     </g>
    </g>
    <g id="patch_69">
     <path d="M 134.712813 56.754688 
L 154.712813 56.754688 
L 154.712813 49.754688 
L 134.712813 49.754688 
z
" style="fill: #ffa500; opacity: 0.7"/>
    </g>
    <g id="text_14">
     <!-- Triangle -->
     <g transform="translate(162.712813 56.754688) scale(0.1 -0.1)">
      <defs>
       <path id="DejaVuSans-54" d="M -19 4666 
L 3928 4666 
L 3928 4134 
L 2272 4134 
L 2272 0 
L 1638 0 
L 1638 4134 
L -19 4134 
L -19 4666 
z
" transform="scale(0.015625)"/>
       <path id="DejaVuSans-69" d="M 603 3500 
L 1178 3500 
L 1178 0 
L 603 0 
L 603 3500 
z
M 603 4863 
L 1178 4863 
L 1178 4134 
L 603 4134 
L 603 4863 
z
" transform="scale(0.015625)"/>
       <path id="DejaVuSans-67" d="M 2906 1791 
Q 2906 2416 2648 2759 
Q 2391 3103 1925 3103 
Q 1463 3103 1205 2759 
Q 947 2416 947 1791 
Q 947 1169 1205 825 
Q 1463 481 1925 481 
Q 2391 481 2648 825 
Q 2906 1169 2906 1791 
z
M 3481 434 
Q 3481 -459 3084 -895 
Q 2688 -1331 1869 -1331 
Q 1566 -1331 1297 -1286 
Q 1028 -1241 775 -1147 
L 775 -588 
Q 1028 -725 1275 -790 
Q 1522 -856 1778 -856 
Q 2344 -856 2625 -561 
Q 2906 -266 2906 331 
L 2906 616 
Q 2728 306 2450 153 
Q 2172 0 1784 0 
Q 1141 0 747 490 
Q 353 981 353 1791 
Q 353 2603 747 3093 
Q 1141 3584 1784 3584 
Q 2172 3584 2450 3431 
Q 2728 3278 2906 2969 
L 2906 3500 
L 3481 3500 
L 3481 434 
z
" transform="scale(0.015625)"/>
       <path id="DejaVuSans-6c" d="M 603 4863 
L 1178 4863 
L 1178 0 
L 603 0 
L 603 4863 
z
" transform="scale(0.015625)"/>
      </defs>
      <use xlink:href="#DejaVuSans-54"/>
      <use xlink:href="#DejaVuSans-72" transform="translate(46.333984 0)"/>
      <use xlink:href="#DejaVuSans-69" transform="translate(87.447266 0)"/>
      <use xlink:href="#DejaVuSans-61" transform="translate(115.230469 0)"/>
      <use xlink:href="#DejaVuSans-6e" transform="translate(176.509766 0)"/>
      <use xlink:href="#DejaVuSans-67" transform="translate(239.888672 0)"/>
      <use xlink:href="#DejaVuSans-6c" transform="translate(303.365234 0)"/>
      <use xlink:href="#DejaVuSans-65" transform="translate(331.148438 0)"/>
     </g>
    </g>
   </g>
  </g>
  <g id="axes_2">
   <g id="patch_70">
    <path d="M 225.28 168.784 
L 388.09 168.784 
L 388.09 10.8 
L 225.28 10.8 
z
" style="fill: #ffffff"/>
   </g>
   <g id="patch_71">
    <path d="M 239.198681 168.784 
L 242.661055 168.784 
L 242.661055 163.211372 
L 239.198681 163.211372 
z
" clip-path="url(#p8590490264)" style="fill: #0000ff; opacity: 0.7"/>
   </g>
   <g id="patch_72">
    <path d="M 242.661055 168.784 
L 246.123428 168.784 
L 246.123428 163.211372 
L 242.661055 163.211372 
z
" clip-path="url(#p8590490264)" style="fill: #0000ff; opacity: 0.7"/>
   </g>
   <g id="patch_73">
    <path d="M 246.123428 168.784 
L 249.585802 168.784 
L 249.585802 165.997686 
L 246.123428 165.997686 
z
" clip-path="url(#p8590490264)" style="fill: #0000ff; opacity: 0.7"/>
   </g>
   <g id="patch_74">
    <path d="M 249.585802 168.784 
L 253.048176 168.784 
L 253.048176 168.784 
L 249.585802 168.784 
z
" clip-path="url(#p8590490264)" style="fill: #0000ff; opacity: 0.7"/>
   </g>
   <g id="patch_75">
    <path d="M 253.048176 168.784 
L 256.510549 168.784 
L 256.510549 157.638744 
L 253.048176 157.638744 
z
" clip-path="url(#p8590490264)" style="fill: #0000ff; opacity: 0.7"/>
   </g>
   <g id="patch_76">
    <path d="M 256.510549 168.784 
L 259.972923 168.784 
L 259.972923 157.638744 
L 256.510549 157.638744 
z
" clip-path="url(#p8590490264)" style="fill: #0000ff; opacity: 0.7"/>
   </g>
   <g id="patch_77">
    <path d="M 259.972923 168.784 
L 263.435296 168.784 
L 263.435296 149.279802 
L 259.972923 149.279802 
z
" clip-path="url(#p8590490264)" style="fill: #0000ff; opacity: 0.7"/>
   </g>
   <g id="patch_78">
    <path d="M 263.435296 168.784 
L 266.89767 168.784 
L 266.89767 140.920861 
L 263.435296 140.920861 
z
" clip-path="url(#p8590490264)" style="fill: #0000ff; opacity: 0.7"/>
   </g>
   <g id="patch_79">
    <path d="M 266.89767 168.784 
L 270.360044 168.784 
L 270.360044 124.202977 
L 266.89767 124.202977 
z
" clip-path="url(#p8590490264)" style="fill: #0000ff; opacity: 0.7"/>
   </g>
   <g id="patch_80">
    <path d="M 270.360044 168.784 
L 273.822417 168.784 
L 273.822417 115.844035 
L 270.360044 115.844035 
z
" clip-path="url(#p8590490264)" style="fill: #0000ff; opacity: 0.7"/>
   </g>
   <g id="patch_81">
    <path d="M 273.822417 168.784 
L 277.284791 168.784 
L 277.284791 113.057721 
L 273.822417 113.057721 
z
" clip-path="url(#p8590490264)" style="fill: #0000ff; opacity: 0.7"/>
   </g>
   <g id="patch_82">
    <path d="M 277.284791 168.784 
L 280.747164 168.784 
L 280.747164 121.416663 
L 277.284791 121.416663 
z
" clip-path="url(#p8590490264)" style="fill: #0000ff; opacity: 0.7"/>
   </g>
   <g id="patch_83">
    <path d="M 280.747164 168.784 
L 284.209538 168.784 
L 284.209538 65.690384 
L 280.747164 65.690384 
z
" clip-path="url(#p8590490264)" style="fill: #0000ff; opacity: 0.7"/>
   </g>
   <g id="patch_84">
    <path d="M 284.209538 168.784 
L 287.671912 168.784 
L 287.671912 110.271407 
L 284.209538 110.271407 
z
" clip-path="url(#p8590490264)" style="fill: #0000ff; opacity: 0.7"/>
   </g>
   <g id="patch_85">
    <path d="M 287.671912 168.784 
L 291.134285 168.784 
L 291.134285 65.690384 
L 287.671912 65.690384 
z
" clip-path="url(#p8590490264)" style="fill: #0000ff; opacity: 0.7"/>
   </g>
   <g id="patch_86">
    <path d="M 291.134285 168.784 
L 294.596659 168.784 
L 294.596659 65.690384 
L 291.134285 65.690384 
z
" clip-path="url(#p8590490264)" style="fill: #0000ff; opacity: 0.7"/>
   </g>
   <g id="patch_87">
    <path d="M 294.596659 168.784 
L 298.059032 168.784 
L 298.059032 62.904071 
L 294.596659 62.904071 
z
" clip-path="url(#p8590490264)" style="fill: #0000ff; opacity: 0.7"/>
   </g>
   <g id="patch_88">
    <path d="M 298.059032 168.784 
L 301.521406 168.784 
L 301.521406 68.476698 
L 298.059032 68.476698 
z
" clip-path="url(#p8590490264)" style="fill: #0000ff; opacity: 0.7"/>
   </g>
   <g id="patch_89">
    <path d="M 301.521406 168.784 
L 304.983779 168.784 
L 304.983779 60.117757 
L 301.521406 60.117757 
z
" clip-path="url(#p8590490264)" style="fill: #0000ff; opacity: 0.7"/>
   </g>
   <g id="patch_90">
    <path d="M 304.983779 168.784 
L 308.446153 168.784 
L 308.446153 85.194582 
L 304.983779 85.194582 
z
" clip-path="url(#p8590490264)" style="fill: #0000ff; opacity: 0.7"/>
   </g>
   <g id="patch_91">
    <path d="M 308.446153 168.784 
L 311.908527 168.784 
L 311.908527 110.271407 
L 308.446153 110.271407 
z
" clip-path="url(#p8590490264)" style="fill: #0000ff; opacity: 0.7"/>
   </g>
   <g id="patch_92">
    <path d="M 311.908527 168.784 
L 315.3709 168.784 
L 315.3709 107.485093 
L 311.908527 107.485093 
z
" clip-path="url(#p8590490264)" style="fill: #0000ff; opacity: 0.7"/>
   </g>
   <g id="patch_93">
    <path d="M 315.3709 168.784 
L 318.833274 168.784 
L 318.833274 107.485093 
L 315.3709 107.485093 
z
" clip-path="url(#p8590490264)" style="fill: #0000ff; opacity: 0.7"/>
   </g>
   <g id="patch_94">
    <path d="M 318.833274 168.784 
L 322.295647 168.784 
L 322.295647 132.561919 
L 318.833274 132.561919 
z
" clip-path="url(#p8590490264)" style="fill: #0000ff; opacity: 0.7"/>
   </g>
   <g id="patch_95">
    <path d="M 322.295647 168.784 
L 325.758021 168.784 
L 325.758021 124.202977 
L 322.295647 124.202977 
z
" clip-path="url(#p8590490264)" style="fill: #0000ff; opacity: 0.7"/>
   </g>
   <g id="patch_96">
    <path d="M 325.758021 168.784 
L 329.220395 168.784 
L 329.220395 149.279802 
L 325.758021 149.279802 
z
" clip-path="url(#p8590490264)" style="fill: #0000ff; opacity: 0.7"/>
   </g>
   <g id="patch_97">
    <path d="M 329.220395 168.784 
L 332.682768 168.784 
L 332.682768 160.425058 
L 329.220395 160.425058 
z
" clip-path="url(#p8590490264)" style="fill: #0000ff; opacity: 0.7"/>
   </g>
   <g id="patch_98">
    <path d="M 332.682768 168.784 
L 336.145142 168.784 
L 336.145142 140.920861 
L 332.682768 140.920861 
z
" clip-path="url(#p8590490264)" style="fill: #0000ff; opacity: 0.7"/>
   </g>
   <g id="patch_99">
    <path d="M 336.145142 168.784 
L 339.607515 168.784 
L 339.607515 157.638744 
L 336.145142 157.638744 
z
" clip-path="url(#p8590490264)" style="fill: #0000ff; opacity: 0.7"/>
   </g>
   <g id="patch_100">
    <path d="M 339.607515 168.784 
L 343.069889 168.784 
L 343.069889 154.85243 
L 339.607515 154.85243 
z
" clip-path="url(#p8590490264)" style="fill: #0000ff; opacity: 0.7"/>
   </g>
   <g id="patch_101">
    <path d="M 250.960053 168.784 
L 254.822674 168.784 
L 254.822674 160.425058 
L 250.960053 160.425058 
z
" clip-path="url(#p8590490264)" style="fill: #ffa500; opacity: 0.7"/>
   </g>
   <g id="patch_102">
    <path d="M 254.822674 168.784 
L 258.685296 168.784 
L 258.685296 165.997686 
L 254.822674 165.997686 
z
" clip-path="url(#p8590490264)" style="fill: #ffa500; opacity: 0.7"/>
   </g>
   <g id="patch_103">
    <path d="M 258.685296 168.784 
L 262.547917 168.784 
L 262.547917 160.425058 
L 258.685296 160.425058 
z
" clip-path="url(#p8590490264)" style="fill: #ffa500; opacity: 0.7"/>
   </g>
   <g id="patch_104">
    <path d="M 262.547917 168.784 
L 266.410539 168.784 
L 266.410539 160.425058 
L 262.547917 160.425058 
z
" clip-path="url(#p8590490264)" style="fill: #ffa500; opacity: 0.7"/>
   </g>
   <g id="patch_105">
    <path d="M 266.410539 168.784 
L 270.27316 168.784 
L 270.27316 163.211372 
L 266.410539 163.211372 
z
" clip-path="url(#p8590490264)" style="fill: #ffa500; opacity: 0.7"/>
   </g>
   <g id="patch_106">
    <path d="M 270.27316 168.784 
L 274.135782 168.784 
L 274.135782 143.707175 
L 270.27316 143.707175 
z
" clip-path="url(#p8590490264)" style="fill: #ffa500; opacity: 0.7"/>
   </g>
   <g id="patch_107">
    <path d="M 274.135782 168.784 
L 277.998403 168.784 
L 277.998403 135.348233 
L 274.135782 135.348233 
z
" clip-path="url(#p8590490264)" style="fill: #ffa500; opacity: 0.7"/>
   </g>
   <g id="patch_108">
    <path d="M 277.998403 168.784 
L 281.861025 168.784 
L 281.861025 143.707175 
L 277.998403 143.707175 
z
" clip-path="url(#p8590490264)" style="fill: #ffa500; opacity: 0.7"/>
   </g>
   <g id="patch_109">
    <path d="M 281.861025 168.784 
L 285.723646 168.784 
L 285.723646 135.348233 
L 281.861025 135.348233 
z
" clip-path="url(#p8590490264)" style="fill: #ffa500; opacity: 0.7"/>
   </g>
   <g id="patch_110">
    <path d="M 285.723646 168.784 
L 289.586267 168.784 
L 289.586267 90.76721 
L 285.723646 90.76721 
z
" clip-path="url(#p8590490264)" style="fill: #ffa500; opacity: 0.7"/>
   </g>
   <g id="patch_111">
    <path d="M 289.586267 168.784 
L 293.448889 168.784 
L 293.448889 87.980896 
L 289.586267 87.980896 
z
" clip-path="url(#p8590490264)" style="fill: #ffa500; opacity: 0.7"/>
   </g>
   <g id="patch_112">
    <path d="M 293.448889 168.784 
L 297.31151 168.784 
L 297.31151 87.980896 
L 293.448889 87.980896 
z
" clip-path="url(#p8590490264)" style="fill: #ffa500; opacity: 0.7"/>
   </g>
   <g id="patch_113">
    <path d="M 297.31151 168.784 
L 301.174132 168.784 
L 301.174132 57.331443 
L 297.31151 57.331443 
z
" clip-path="url(#p8590490264)" style="fill: #ffa500; opacity: 0.7"/>
   </g>
   <g id="patch_114">
    <path d="M 301.174132 168.784 
L 305.036753 168.784 
L 305.036753 21.109362 
L 301.174132 21.109362 
z
" clip-path="url(#p8590490264)" style="fill: #ffa500; opacity: 0.7"/>
   </g>
   <g id="patch_115">
    <path d="M 305.036753 168.784 
L 308.899375 168.784 
L 308.899375 54.545129 
L 305.036753 54.545129 
z
" clip-path="url(#p8590490264)" style="fill: #ffa500; opacity: 0.7"/>
   </g>
   <g id="patch_116">
    <path d="M 308.899375 168.784 
L 312.761996 168.784 
L 312.761996 60.117757 
L 308.899375 60.117757 
z
" clip-path="url(#p8590490264)" style="fill: #ffa500; opacity: 0.7"/>
   </g>
   <g id="patch_117">
    <path d="M 312.761996 168.784 
L 316.624618 168.784 
L 316.624618 60.117757 
L 312.761996 60.117757 
z
" clip-path="url(#p8590490264)" style="fill: #ffa500; opacity: 0.7"/>
   </g>
   <g id="patch_118">
    <path d="M 316.624618 168.784 
L 320.487239 168.784 
L 320.487239 87.980896 
L 316.624618 87.980896 
z
" clip-path="url(#p8590490264)" style="fill: #ffa500; opacity: 0.7"/>
   </g>
   <g id="patch_119">
    <path d="M 320.487239 168.784 
L 324.349861 168.784 
L 324.349861 96.339838 
L 320.487239 96.339838 
z
" clip-path="url(#p8590490264)" style="fill: #ffa500; opacity: 0.7"/>
   </g>
   <g id="patch_120">
    <path d="M 324.349861 168.784 
L 328.212482 168.784 
L 328.212482 82.408268 
L 324.349861 82.408268 
z
" clip-path="url(#p8590490264)" style="fill: #ffa500; opacity: 0.7"/>
   </g>
   <g id="patch_121">
    <path d="M 328.212482 168.784 
L 332.075104 168.784 
L 332.075104 113.057721 
L 328.212482 113.057721 
z
" clip-path="url(#p8590490264)" style="fill: #ffa500; opacity: 0.7"/>
   </g>
   <g id="patch_122">
    <path d="M 332.075104 168.784 
L 335.937725 168.784 
L 335.937725 135.348233 
L 332.075104 135.348233 
z
" clip-path="url(#p8590490264)" style="fill: #ffa500; opacity: 0.7"/>
   </g>
   <g id="patch_123">
    <path d="M 335.937725 168.784 
L 339.800347 168.784 
L 339.800347 138.134547 
L 335.937725 138.134547 
z
" clip-path="url(#p8590490264)" style="fill: #ffa500; opacity: 0.7"/>
   </g>
   <g id="patch_124">
    <path d="M 339.800347 168.784 
L 343.662968 168.784 
L 343.662968 140.920861 
L 339.800347 140.920861 
z
" clip-path="url(#p8590490264)" style="fill: #ffa500; opacity: 0.7"/>
   </g>
   <g id="patch_125">
    <path d="M 343.662968 168.784 
L 347.52559 168.784 
L 347.52559 160.425058 
L 343.662968 160.425058 
z
" clip-path="url(#p8590490264)" style="fill: #ffa500; opacity: 0.7"/>
   </g>
   <g id="patch_126">
    <path d="M 347.52559 168.784 
L 351.388211 168.784 
L 351.388211 163.211372 
L 347.52559 163.211372 
z
" clip-path="url(#p8590490264)" style="fill: #ffa500; opacity: 0.7"/>
   </g>
   <g id="patch_127">
    <path d="M 351.388211 168.784 
L 355.250833 168.784 
L 355.250833 168.784 
L 351.388211 168.784 
z
" clip-path="url(#p8590490264)" style="fill: #ffa500; opacity: 0.7"/>
   </g>
   <g id="patch_128">
    <path d="M 355.250833 168.784 
L 359.113454 168.784 
L 359.113454 163.211372 
L 355.250833 163.211372 
z
" clip-path="url(#p8590490264)" style="fill: #ffa500; opacity: 0.7"/>
   </g>
   <g id="patch_129">
    <path d="M 359.113454 168.784 
L 362.976076 168.784 
L 362.976076 168.784 
L 359.113454 168.784 
z
" clip-path="url(#p8590490264)" style="fill: #ffa500; opacity: 0.7"/>
   </g>
   <g id="patch_130">
    <path d="M 362.976076 168.784 
L 366.838697 168.784 
L 366.838697 163.211372 
L 362.976076 163.211372 
z
" clip-path="url(#p8590490264)" style="fill: #ffa500; opacity: 0.7"/>
   </g>
   <g id="matplotlib.axis_3">
    <g id="xtick_4">
     <g id="line2d_19">
      <path d="M 230.941074 168.784 
L 230.941074 10.8 
" clip-path="url(#p8590490264)" style="fill: none; stroke: #b0b0b0; stroke-opacity: 0.3; stroke-width: 0.8; stroke-linecap: square"/>
     </g>
     <g id="line2d_20">
      <g>
       <use xlink:href="#m7a8d4c9e9c" x="230.941074" y="168.784" style="stroke: #000000; stroke-width: 0.8"/>
      </g>
     </g>
     <g id="text_15">
      <!-- 0 -->
      <g transform="translate(227.759824 183.382437) scale(0.1 -0.1)">
       <use xlink:href="#DejaVuSans-30"/>
      </g>
     </g>
    </g>
    <g id="xtick_5">
     <g id="line2d_21">
      <path d="M 293.916926 168.784 
L 293.916926 10.8 
" clip-path="url(#p8590490264)" style="fill: none; stroke: #b0b0b0; stroke-opacity: 0.3; stroke-width: 0.8; stroke-linecap: square"/>
     </g>
     <g id="line2d_22">
      <g>
       <use xlink:href="#m7a8d4c9e9c" x="293.916926" y="168.784" style="stroke: #000000; stroke-width: 0.8"/>
      </g>
     </g>
     <g id="text_16">
      <!-- 5 -->
      <g transform="translate(290.735676 183.382437) scale(0.1 -0.1)">
       <use xlink:href="#DejaVuSans-35"/>
      </g>
     </g>
    </g>
    <g id="xtick_6">
     <g id="line2d_23">
      <path d="M 356.892778 168.784 
L 356.892778 10.8 
" clip-path="url(#p8590490264)" style="fill: none; stroke: #b0b0b0; stroke-opacity: 0.3; stroke-width: 0.8; stroke-linecap: square"/>
     </g>
     <g id="line2d_24">
      <g>
       <use xlink:href="#m7a8d4c9e9c" x="356.892778" y="168.784" style="stroke: #000000; stroke-width: 0.8"/>
      </g>
     </g>
     <g id="text_17">
      <!-- 10 -->
      <g transform="translate(350.530278 183.382437) scale(0.1 -0.1)">
       <use xlink:href="#DejaVuSans-31"/>
       <use xlink:href="#DejaVuSans-30" transform="translate(63.623047 0)"/>
      </g>
     </g>
    </g>
    <g id="text_18">
     <!-- $X_1$ -->
     <g transform="translate(298.565 200.099937) scale(0.14 -0.14)">
      <use xlink:href="#DejaVuSans-Oblique-58" transform="translate(0 0.09375)"/>
      <use xlink:href="#DejaVuSans-31" transform="translate(68.505859 -16.3125) scale(0.7)"/>
     </g>
    </g>
   </g>
   <g id="matplotlib.axis_4">
    <g id="ytick_7">
     <g id="line2d_25">
      <path d="M 225.28 168.784 
L 388.09 168.784 
" clip-path="url(#p8590490264)" style="fill: none; stroke: #b0b0b0; stroke-opacity: 0.3; stroke-width: 0.8; stroke-linecap: square"/>
     </g>
     <g id="line2d_26">
      <g>
       <use xlink:href="#mbe3947ce5e" x="225.28" y="168.784" style="stroke: #000000; stroke-width: 0.8"/>
      </g>
     </g>
    </g>
    <g id="ytick_8">
     <g id="line2d_27">
      <path d="M 225.28 140.920861 
L 388.09 140.920861 
" clip-path="url(#p8590490264)" style="fill: none; stroke: #b0b0b0; stroke-opacity: 0.3; stroke-width: 0.8; stroke-linecap: square"/>
     </g>
     <g id="line2d_28">
      <g>
       <use xlink:href="#mbe3947ce5e" x="225.28" y="140.920861" style="stroke: #000000; stroke-width: 0.8"/>
      </g>
     </g>
    </g>
    <g id="ytick_9">
     <g id="line2d_29">
      <path d="M 225.28 113.057721 
L 388.09 113.057721 
" clip-path="url(#p8590490264)" style="fill: none; stroke: #b0b0b0; stroke-opacity: 0.3; stroke-width: 0.8; stroke-linecap: square"/>
     </g>
     <g id="line2d_30">
      <g>
       <use xlink:href="#mbe3947ce5e" x="225.28" y="113.057721" style="stroke: #000000; stroke-width: 0.8"/>
      </g>
     </g>
    </g>
    <g id="ytick_10">
     <g id="line2d_31">
      <path d="M 225.28 85.194582 
L 388.09 85.194582 
" clip-path="url(#p8590490264)" style="fill: none; stroke: #b0b0b0; stroke-opacity: 0.3; stroke-width: 0.8; stroke-linecap: square"/>
     </g>
     <g id="line2d_32">
      <g>
       <use xlink:href="#mbe3947ce5e" x="225.28" y="85.194582" style="stroke: #000000; stroke-width: 0.8"/>
      </g>
     </g>
    </g>
    <g id="ytick_11">
     <g id="line2d_33">
      <path d="M 225.28 57.331443 
L 388.09 57.331443 
" clip-path="url(#p8590490264)" style="fill: none; stroke: #b0b0b0; stroke-opacity: 0.3; stroke-width: 0.8; stroke-linecap: square"/>
     </g>
     <g id="line2d_34">
      <g>
       <use xlink:href="#mbe3947ce5e" x="225.28" y="57.331443" style="stroke: #000000; stroke-width: 0.8"/>
      </g>
     </g>
    </g>
    <g id="ytick_12">
     <g id="line2d_35">
      <path d="M 225.28 29.468303 
L 388.09 29.468303 
" clip-path="url(#p8590490264)" style="fill: none; stroke: #b0b0b0; stroke-opacity: 0.3; stroke-width: 0.8; stroke-linecap: square"/>
     </g>
     <g id="line2d_36">
      <g>
       <use xlink:href="#mbe3947ce5e" x="225.28" y="29.468303" style="stroke: #000000; stroke-width: 0.8"/>
      </g>
     </g>
    </g>
   </g>
   <g id="patch_131">
    <path d="M 225.28 168.784 
L 225.28 10.8 
" style="fill: none; stroke: #000000; stroke-width: 0.8; stroke-linejoin: miter; stroke-linecap: square"/>
   </g>
   <g id="patch_132">
    <path d="M 388.09 168.784 
L 388.09 10.8 
" style="fill: none; stroke: #000000; stroke-width: 0.8; stroke-linejoin: miter; stroke-linecap: square"/>
   </g>
   <g id="patch_133">
    <path d="M 225.28 168.784 
L 388.09 168.784 
" style="fill: none; stroke: #000000; stroke-width: 0.8; stroke-linejoin: miter; stroke-linecap: square"/>
   </g>
   <g id="patch_134">
    <path d="M 225.28 10.8 
L 388.09 10.8 
" style="fill: none; stroke: #000000; stroke-width: 0.8; stroke-linejoin: miter; stroke-linecap: square"/>
   </g>
  </g>
  <g id="axes_3">
   <g id="patch_135">
    <path d="M 402.39 168.784 
L 565.2 168.784 
L 565.2 10.8 
L 402.39 10.8 
z
" style="fill: #ffffff"/>
   </g>
   <g id="patch_136">
    <path d="M 413.980021 168.784 
L 417.840082 168.784 
L 417.840082 165.997686 
L 413.980021 165.997686 
z
" clip-path="url(#pfea49ef3ff)" style="fill: #0000ff; opacity: 0.7"/>
   </g>
   <g id="patch_137">
    <path d="M 417.840082 168.784 
L 421.700143 168.784 
L 421.700143 168.784 
L 417.840082 168.784 
z
" clip-path="url(#pfea49ef3ff)" style="fill: #0000ff; opacity: 0.7"/>
   </g>
   <g id="patch_138">
    <path d="M 421.700143 168.784 
L 425.560205 168.784 
L 425.560205 160.425058 
L 421.700143 160.425058 
z
" clip-path="url(#pfea49ef3ff)" style="fill: #0000ff; opacity: 0.7"/>
   </g>
   <g id="patch_139">
    <path d="M 425.560205 168.784 
L 429.420266 168.784 
L 429.420266 163.211372 
L 425.560205 163.211372 
z
" clip-path="url(#pfea49ef3ff)" style="fill: #0000ff; opacity: 0.7"/>
   </g>
   <g id="patch_140">
    <path d="M 429.420266 168.784 
L 433.280327 168.784 
L 433.280327 163.211372 
L 429.420266 163.211372 
z
" clip-path="url(#pfea49ef3ff)" style="fill: #0000ff; opacity: 0.7"/>
   </g>
   <g id="patch_141">
    <path d="M 433.280327 168.784 
L 437.140388 168.784 
L 437.140388 154.85243 
L 433.280327 154.85243 
z
" clip-path="url(#pfea49ef3ff)" style="fill: #0000ff; opacity: 0.7"/>
   </g>
   <g id="patch_142">
    <path d="M 437.140388 168.784 
L 441.000449 168.784 
L 441.000449 138.134547 
L 437.140388 138.134547 
z
" clip-path="url(#pfea49ef3ff)" style="fill: #0000ff; opacity: 0.7"/>
   </g>
   <g id="patch_143">
    <path d="M 441.000449 168.784 
L 444.860511 168.784 
L 444.860511 135.348233 
L 441.000449 135.348233 
z
" clip-path="url(#pfea49ef3ff)" style="fill: #0000ff; opacity: 0.7"/>
   </g>
   <g id="patch_144">
    <path d="M 444.860511 168.784 
L 448.720572 168.784 
L 448.720572 99.126152 
L 444.860511 99.126152 
z
" clip-path="url(#pfea49ef3ff)" style="fill: #0000ff; opacity: 0.7"/>
   </g>
   <g id="patch_145">
    <path d="M 448.720572 168.784 
L 452.580633 168.784 
L 452.580633 113.057721 
L 448.720572 113.057721 
z
" clip-path="url(#pfea49ef3ff)" style="fill: #0000ff; opacity: 0.7"/>
   </g>
   <g id="patch_146">
    <path d="M 452.580633 168.784 
L 456.440694 168.784 
L 456.440694 87.980896 
L 452.580633 87.980896 
z
" clip-path="url(#pfea49ef3ff)" style="fill: #0000ff; opacity: 0.7"/>
   </g>
   <g id="patch_147">
    <path d="M 456.440694 168.784 
L 460.300755 168.784 
L 460.300755 82.408268 
L 456.440694 82.408268 
z
" clip-path="url(#pfea49ef3ff)" style="fill: #0000ff; opacity: 0.7"/>
   </g>
   <g id="patch_148">
    <path d="M 460.300755 168.784 
L 464.160817 168.784 
L 464.160817 62.904071 
L 460.300755 62.904071 
z
" clip-path="url(#pfea49ef3ff)" style="fill: #0000ff; opacity: 0.7"/>
   </g>
   <g id="patch_149">
    <path d="M 464.160817 168.784 
L 468.020878 168.784 
L 468.020878 48.972501 
L 464.160817 48.972501 
z
" clip-path="url(#pfea49ef3ff)" style="fill: #0000ff; opacity: 0.7"/>
   </g>
   <g id="patch_150">
    <path d="M 468.020878 168.784 
L 471.880939 168.784 
L 471.880939 46.186187 
L 468.020878 46.186187 
z
" clip-path="url(#pfea49ef3ff)" style="fill: #0000ff; opacity: 0.7"/>
   </g>
   <g id="patch_151">
    <path d="M 471.880939 168.784 
L 475.741 168.784 
L 475.741 76.83564 
L 471.880939 76.83564 
z
" clip-path="url(#pfea49ef3ff)" style="fill: #0000ff; opacity: 0.7"/>
   </g>
   <g id="patch_152">
    <path d="M 475.741 168.784 
L 479.601061 168.784 
L 479.601061 76.83564 
L 475.741 76.83564 
z
" clip-path="url(#pfea49ef3ff)" style="fill: #0000ff; opacity: 0.7"/>
   </g>
   <g id="patch_153">
    <path d="M 479.601061 168.784 
L 483.461123 168.784 
L 483.461123 60.117757 
L 479.601061 60.117757 
z
" clip-path="url(#pfea49ef3ff)" style="fill: #0000ff; opacity: 0.7"/>
   </g>
   <g id="patch_154">
    <path d="M 483.461123 168.784 
L 487.321184 168.784 
L 487.321184 48.972501 
L 483.461123 48.972501 
z
" clip-path="url(#pfea49ef3ff)" style="fill: #0000ff; opacity: 0.7"/>
   </g>
   <g id="patch_155">
    <path d="M 487.321184 168.784 
L 491.181245 168.784 
L 491.181245 104.69878 
L 487.321184 104.69878 
z
" clip-path="url(#pfea49ef3ff)" style="fill: #0000ff; opacity: 0.7"/>
   </g>
   <g id="patch_156">
    <path d="M 491.181245 168.784 
L 495.041306 168.784 
L 495.041306 118.630349 
L 491.181245 118.630349 
z
" clip-path="url(#pfea49ef3ff)" style="fill: #0000ff; opacity: 0.7"/>
   </g>
   <g id="patch_157">
    <path d="M 495.041306 168.784 
L 498.901367 168.784 
L 498.901367 129.775605 
L 495.041306 129.775605 
z
" clip-path="url(#pfea49ef3ff)" style="fill: #0000ff; opacity: 0.7"/>
   </g>
   <g id="patch_158">
    <path d="M 498.901367 168.784 
L 502.761429 168.784 
L 502.761429 129.775605 
L 498.901367 129.775605 
z
" clip-path="url(#pfea49ef3ff)" style="fill: #0000ff; opacity: 0.7"/>
   </g>
   <g id="patch_159">
    <path d="M 502.761429 168.784 
L 506.62149 168.784 
L 506.62149 152.066116 
L 502.761429 152.066116 
z
" clip-path="url(#pfea49ef3ff)" style="fill: #0000ff; opacity: 0.7"/>
   </g>
   <g id="patch_160">
    <path d="M 506.62149 168.784 
L 510.481551 168.784 
L 510.481551 154.85243 
L 506.62149 154.85243 
z
" clip-path="url(#pfea49ef3ff)" style="fill: #0000ff; opacity: 0.7"/>
   </g>
   <g id="patch_161">
    <path d="M 510.481551 168.784 
L 514.341612 168.784 
L 514.341612 163.211372 
L 510.481551 163.211372 
z
" clip-path="url(#pfea49ef3ff)" style="fill: #0000ff; opacity: 0.7"/>
   </g>
   <g id="patch_162">
    <path d="M 514.341612 168.784 
L 518.201673 168.784 
L 518.201673 163.211372 
L 514.341612 163.211372 
z
" clip-path="url(#pfea49ef3ff)" style="fill: #0000ff; opacity: 0.7"/>
   </g>
   <g id="patch_163">
    <path d="M 518.201673 168.784 
L 522.061735 168.784 
L 522.061735 168.784 
L 518.201673 168.784 
z
" clip-path="url(#pfea49ef3ff)" style="fill: #0000ff; opacity: 0.7"/>
   </g>
   <g id="patch_164">
    <path d="M 522.061735 168.784 
L 525.921796 168.784 
L 525.921796 165.997686 
L 522.061735 165.997686 
z
" clip-path="url(#pfea49ef3ff)" style="fill: #0000ff; opacity: 0.7"/>
   </g>
   <g id="patch_165">
    <path d="M 525.921796 168.784 
L 529.781857 168.784 
L 529.781857 165.997686 
L 525.921796 165.997686 
z
" clip-path="url(#pfea49ef3ff)" style="fill: #0000ff; opacity: 0.7"/>
   </g>
   <g id="patch_166">
    <path d="M 427.111296 168.784 
L 431.467571 168.784 
L 431.467571 165.997686 
L 427.111296 165.997686 
z
" clip-path="url(#pfea49ef3ff)" style="fill: #ffa500; opacity: 0.7"/>
   </g>
   <g id="patch_167">
    <path d="M 431.467571 168.784 
L 435.823846 168.784 
L 435.823846 163.211372 
L 431.467571 163.211372 
z
" clip-path="url(#pfea49ef3ff)" style="fill: #ffa500; opacity: 0.7"/>
   </g>
   <g id="patch_168">
    <path d="M 435.823846 168.784 
L 440.180121 168.784 
L 440.180121 165.997686 
L 435.823846 165.997686 
z
" clip-path="url(#pfea49ef3ff)" style="fill: #ffa500; opacity: 0.7"/>
   </g>
   <g id="patch_169">
    <path d="M 440.180121 168.784 
L 444.536396 168.784 
L 444.536396 143.707175 
L 440.180121 143.707175 
z
" clip-path="url(#pfea49ef3ff)" style="fill: #ffa500; opacity: 0.7"/>
   </g>
   <g id="patch_170">
    <path d="M 444.536396 168.784 
L 448.892671 168.784 
L 448.892671 154.85243 
L 444.536396 154.85243 
z
" clip-path="url(#pfea49ef3ff)" style="fill: #ffa500; opacity: 0.7"/>
   </g>
   <g id="patch_171">
    <path d="M 448.892671 168.784 
L 453.248946 168.784 
L 453.248946 149.279802 
L 448.892671 149.279802 
z
" clip-path="url(#pfea49ef3ff)" style="fill: #ffa500; opacity: 0.7"/>
   </g>
   <g id="patch_172">
    <path d="M 453.248946 168.784 
L 457.605221 168.784 
L 457.605221 138.134547 
L 453.248946 138.134547 
z
" clip-path="url(#pfea49ef3ff)" style="fill: #ffa500; opacity: 0.7"/>
   </g>
   <g id="patch_173">
    <path d="M 457.605221 168.784 
L 461.961496 168.784 
L 461.961496 121.416663 
L 457.605221 121.416663 
z
" clip-path="url(#pfea49ef3ff)" style="fill: #ffa500; opacity: 0.7"/>
   </g>
   <g id="patch_174">
    <path d="M 461.961496 168.784 
L 466.317771 168.784 
L 466.317771 79.621954 
L 461.961496 79.621954 
z
" clip-path="url(#pfea49ef3ff)" style="fill: #ffa500; opacity: 0.7"/>
   </g>
   <g id="patch_175">
    <path d="M 466.317771 168.784 
L 470.674046 168.784 
L 470.674046 79.621954 
L 466.317771 79.621954 
z
" clip-path="url(#pfea49ef3ff)" style="fill: #ffa500; opacity: 0.7"/>
   </g>
   <g id="patch_176">
    <path d="M 470.674046 168.784 
L 475.030321 168.784 
L 475.030321 37.827245 
L 470.674046 37.827245 
z
" clip-path="url(#pfea49ef3ff)" style="fill: #ffa500; opacity: 0.7"/>
   </g>
   <g id="patch_177">
    <path d="M 475.030321 168.784 
L 479.386596 168.784 
L 479.386596 48.972501 
L 475.030321 48.972501 
z
" clip-path="url(#pfea49ef3ff)" style="fill: #ffa500; opacity: 0.7"/>
   </g>
   <g id="patch_178">
    <path d="M 479.386596 168.784 
L 483.742871 168.784 
L 483.742871 46.186187 
L 479.386596 46.186187 
z
" clip-path="url(#pfea49ef3ff)" style="fill: #ffa500; opacity: 0.7"/>
   </g>
   <g id="patch_179">
    <path d="M 483.742871 168.784 
L 488.099146 168.784 
L 488.099146 71.263012 
L 483.742871 71.263012 
z
" clip-path="url(#pfea49ef3ff)" style="fill: #ffa500; opacity: 0.7"/>
   </g>
   <g id="patch_180">
    <path d="M 488.099146 168.784 
L 492.455421 168.784 
L 492.455421 18.323048 
L 488.099146 18.323048 
z
" clip-path="url(#pfea49ef3ff)" style="fill: #ffa500; opacity: 0.7"/>
   </g>
   <g id="patch_181">
    <path d="M 492.455421 168.784 
L 496.811696 168.784 
L 496.811696 46.186187 
L 492.455421 46.186187 
z
" clip-path="url(#pfea49ef3ff)" style="fill: #ffa500; opacity: 0.7"/>
   </g>
   <g id="patch_182">
    <path d="M 496.811696 168.784 
L 501.167971 168.784 
L 501.167971 79.621954 
L 496.811696 79.621954 
z
" clip-path="url(#pfea49ef3ff)" style="fill: #ffa500; opacity: 0.7"/>
   </g>
   <g id="patch_183">
    <path d="M 501.167971 168.784 
L 505.524246 168.784 
L 505.524246 115.844035 
L 501.167971 115.844035 
z
" clip-path="url(#pfea49ef3ff)" style="fill: #ffa500; opacity: 0.7"/>
   </g>
   <g id="patch_184">
    <path d="M 505.524246 168.784 
L 509.880521 168.784 
L 509.880521 115.844035 
L 505.524246 115.844035 
z
" clip-path="url(#pfea49ef3ff)" style="fill: #ffa500; opacity: 0.7"/>
   </g>
   <g id="patch_185">
    <path d="M 509.880521 168.784 
L 514.236796 168.784 
L 514.236796 121.416663 
L 509.880521 121.416663 
z
" clip-path="url(#pfea49ef3ff)" style="fill: #ffa500; opacity: 0.7"/>
   </g>
   <g id="patch_186">
    <path d="M 514.236796 168.784 
L 518.593071 168.784 
L 518.593071 135.348233 
L 514.236796 135.348233 
z
" clip-path="url(#pfea49ef3ff)" style="fill: #ffa500; opacity: 0.7"/>
   </g>
   <g id="patch_187">
    <path d="M 518.593071 168.784 
L 522.949346 168.784 
L 522.949346 146.493489 
L 518.593071 146.493489 
z
" clip-path="url(#pfea49ef3ff)" style="fill: #ffa500; opacity: 0.7"/>
   </g>
   <g id="patch_188">
    <path d="M 522.949346 168.784 
L 527.305621 168.784 
L 527.305621 163.211372 
L 522.949346 163.211372 
z
" clip-path="url(#pfea49ef3ff)" style="fill: #ffa500; opacity: 0.7"/>
   </g>
   <g id="patch_189">
    <path d="M 527.305621 168.784 
L 531.661896 168.784 
L 531.661896 163.211372 
L 527.305621 163.211372 
z
" clip-path="url(#pfea49ef3ff)" style="fill: #ffa500; opacity: 0.7"/>
   </g>
   <g id="patch_190">
    <path d="M 531.661896 168.784 
L 536.01817 168.784 
L 536.01817 163.211372 
L 531.661896 163.211372 
z
" clip-path="url(#pfea49ef3ff)" style="fill: #ffa500; opacity: 0.7"/>
   </g>
   <g id="patch_191">
    <path d="M 536.01817 168.784 
L 540.374445 168.784 
L 540.374445 163.211372 
L 536.01817 163.211372 
z
" clip-path="url(#pfea49ef3ff)" style="fill: #ffa500; opacity: 0.7"/>
   </g>
   <g id="patch_192">
    <path d="M 540.374445 168.784 
L 544.73072 168.784 
L 544.73072 168.784 
L 540.374445 168.784 
z
" clip-path="url(#pfea49ef3ff)" style="fill: #ffa500; opacity: 0.7"/>
   </g>
   <g id="patch_193">
    <path d="M 544.73072 168.784 
L 549.086995 168.784 
L 549.086995 168.784 
L 544.73072 168.784 
z
" clip-path="url(#pfea49ef3ff)" style="fill: #ffa500; opacity: 0.7"/>
   </g>
   <g id="patch_194">
    <path d="M 549.086995 168.784 
L 553.44327 168.784 
L 553.44327 168.784 
L 549.086995 168.784 
z
" clip-path="url(#pfea49ef3ff)" style="fill: #ffa500; opacity: 0.7"/>
   </g>
   <g id="patch_195">
    <path d="M 553.44327 168.784 
L 557.799545 168.784 
L 557.799545 165.997686 
L 553.44327 165.997686 
z
" clip-path="url(#pfea49ef3ff)" style="fill: #ffa500; opacity: 0.7"/>
   </g>
   <g id="matplotlib.axis_5">
    <g id="xtick_7">
     <g id="line2d_37">
      <path d="M 408.051074 168.784 
L 408.051074 10.8 
" clip-path="url(#pfea49ef3ff)" style="fill: none; stroke: #b0b0b0; stroke-opacity: 0.3; stroke-width: 0.8; stroke-linecap: square"/>
     </g>
     <g id="line2d_38">
      <g>
       <use xlink:href="#m7a8d4c9e9c" x="408.051074" y="168.784" style="stroke: #000000; stroke-width: 0.8"/>
      </g>
     </g>
     <g id="text_19">
      <!-- 0 -->
      <g transform="translate(404.869824 183.382437) scale(0.1 -0.1)">
       <use xlink:href="#DejaVuSans-30"/>
      </g>
     </g>
    </g>
    <g id="xtick_8">
     <g id="line2d_39">
      <path d="M 471.026926 168.784 
L 471.026926 10.8 
" clip-path="url(#pfea49ef3ff)" style="fill: none; stroke: #b0b0b0; stroke-opacity: 0.3; stroke-width: 0.8; stroke-linecap: square"/>
     </g>
     <g id="line2d_40">
      <g>
       <use xlink:href="#m7a8d4c9e9c" x="471.026926" y="168.784" style="stroke: #000000; stroke-width: 0.8"/>
      </g>
     </g>
     <g id="text_20">
      <!-- 5 -->
      <g transform="translate(467.845676 183.382437) scale(0.1 -0.1)">
       <use xlink:href="#DejaVuSans-35"/>
      </g>
     </g>
    </g>
    <g id="xtick_9">
     <g id="line2d_41">
      <path d="M 534.002778 168.784 
L 534.002778 10.8 
" clip-path="url(#pfea49ef3ff)" style="fill: none; stroke: #b0b0b0; stroke-opacity: 0.3; stroke-width: 0.8; stroke-linecap: square"/>
     </g>
     <g id="line2d_42">
      <g>
       <use xlink:href="#m7a8d4c9e9c" x="534.002778" y="168.784" style="stroke: #000000; stroke-width: 0.8"/>
      </g>
     </g>
     <g id="text_21">
      <!-- 10 -->
      <g transform="translate(527.640278 183.382437) scale(0.1 -0.1)">
       <use xlink:href="#DejaVuSans-31"/>
       <use xlink:href="#DejaVuSans-30" transform="translate(63.623047 0)"/>
      </g>
     </g>
    </g>
    <g id="text_22">
     <!-- $X_2$ -->
     <g transform="translate(475.675 200.099937) scale(0.14 -0.14)">
      <use xlink:href="#DejaVuSans-Oblique-58" transform="translate(0 0.09375)"/>
      <use xlink:href="#DejaVuSans-32" transform="translate(68.505859 -16.3125) scale(0.7)"/>
     </g>
    </g>
   </g>
   <g id="matplotlib.axis_6">
    <g id="ytick_13">
     <g id="line2d_43">
      <path d="M 402.39 168.784 
L 565.2 168.784 
" clip-path="url(#pfea49ef3ff)" style="fill: none; stroke: #b0b0b0; stroke-opacity: 0.3; stroke-width: 0.8; stroke-linecap: square"/>
     </g>
     <g id="line2d_44">
      <g>
       <use xlink:href="#mbe3947ce5e" x="402.39" y="168.784" style="stroke: #000000; stroke-width: 0.8"/>
      </g>
     </g>
    </g>
    <g id="ytick_14">
     <g id="line2d_45">
      <path d="M 402.39 140.920861 
L 565.2 140.920861 
" clip-path="url(#pfea49ef3ff)" style="fill: none; stroke: #b0b0b0; stroke-opacity: 0.3; stroke-width: 0.8; stroke-linecap: square"/>
     </g>
     <g id="line2d_46">
      <g>
       <use xlink:href="#mbe3947ce5e" x="402.39" y="140.920861" style="stroke: #000000; stroke-width: 0.8"/>
      </g>
     </g>
    </g>
    <g id="ytick_15">
     <g id="line2d_47">
      <path d="M 402.39 113.057721 
L 565.2 113.057721 
" clip-path="url(#pfea49ef3ff)" style="fill: none; stroke: #b0b0b0; stroke-opacity: 0.3; stroke-width: 0.8; stroke-linecap: square"/>
     </g>
     <g id="line2d_48">
      <g>
       <use xlink:href="#mbe3947ce5e" x="402.39" y="113.057721" style="stroke: #000000; stroke-width: 0.8"/>
      </g>
     </g>
    </g>
    <g id="ytick_16">
     <g id="line2d_49">
      <path d="M 402.39 85.194582 
L 565.2 85.194582 
" clip-path="url(#pfea49ef3ff)" style="fill: none; stroke: #b0b0b0; stroke-opacity: 0.3; stroke-width: 0.8; stroke-linecap: square"/>
     </g>
     <g id="line2d_50">
      <g>
       <use xlink:href="#mbe3947ce5e" x="402.39" y="85.194582" style="stroke: #000000; stroke-width: 0.8"/>
      </g>
     </g>
    </g>
    <g id="ytick_17">
     <g id="line2d_51">
      <path d="M 402.39 57.331443 
L 565.2 57.331443 
" clip-path="url(#pfea49ef3ff)" style="fill: none; stroke: #b0b0b0; stroke-opacity: 0.3; stroke-width: 0.8; stroke-linecap: square"/>
     </g>
     <g id="line2d_52">
      <g>
       <use xlink:href="#mbe3947ce5e" x="402.39" y="57.331443" style="stroke: #000000; stroke-width: 0.8"/>
      </g>
     </g>
    </g>
    <g id="ytick_18">
     <g id="line2d_53">
      <path d="M 402.39 29.468303 
L 565.2 29.468303 
" clip-path="url(#pfea49ef3ff)" style="fill: none; stroke: #b0b0b0; stroke-opacity: 0.3; stroke-width: 0.8; stroke-linecap: square"/>
     </g>
     <g id="line2d_54">
      <g>
       <use xlink:href="#mbe3947ce5e" x="402.39" y="29.468303" style="stroke: #000000; stroke-width: 0.8"/>
      </g>
     </g>
    </g>
   </g>
   <g id="patch_196">
    <path d="M 402.39 168.784 
L 402.39 10.8 
" style="fill: none; stroke: #000000; stroke-width: 0.8; stroke-linejoin: miter; stroke-linecap: square"/>
   </g>
   <g id="patch_197">
    <path d="M 565.2 168.784 
L 565.2 10.8 
" style="fill: none; stroke: #000000; stroke-width: 0.8; stroke-linejoin: miter; stroke-linecap: square"/>
   </g>
   <g id="patch_198">
    <path d="M 402.39 168.784 
L 565.2 168.784 
" style="fill: none; stroke: #000000; stroke-width: 0.8; stroke-linejoin: miter; stroke-linecap: square"/>
   </g>
   <g id="patch_199">
    <path d="M 402.39 10.8 
L 565.2 10.8 
" style="fill: none; stroke: #000000; stroke-width: 0.8; stroke-linejoin: miter; stroke-linecap: square"/>
   </g>
  </g>
 </g>
 <defs>
  <clipPath id="p70ef43b730">
   <rect x="48.17" y="10.8" width="162.81" height="157.984"/>
  </clipPath>
  <clipPath id="p8590490264">
   <rect x="225.28" y="10.8" width="162.81" height="157.984"/>
  </clipPath>
  <clipPath id="pfea49ef3ff">
   <rect x="402.39" y="10.8" width="162.81" height="157.984"/>
  </clipPath>
 </defs>
</svg>
