<?xml version="1.0" encoding="utf-8" standalone="no"?>
<!DOCTYPE svg PUBLIC "-//W3C//DTD SVG 1.1//EN"
  "http://www.w3.org/Graphics/SVG/1.1/DTD/svg11.dtd">
<svg xmlns:xlink="http://www.w3.org/1999/xlink" width="288pt" height="216pt" viewBox="0 0 288 216" xmlns="http://www.w3.org/2000/svg" version="1.1">
 <metadata>
  <rdf:RDF xmlns:dc="http://purl.org/dc/elements/1.1/" xmlns:cc="http://creativecommons.org/ns#" xmlns:rdf="http://www.w3.org/1999/02/22-rdf-syntax-ns#">
   <cc:Work>
    <dc:type rdf:resource="http://purl.org/dc/dcmitype/StillImage"/>
    <dc:date>2025-01-16T11:49:38.240770</dc:date>
    <dc:format>image/svg+xml</dc:format>
    <dc:creator>
     <cc:Agent>
      <dc:title>Matplotlib v3.10.0, https://matplotlib.org/</dc:title>
     </cc:Agent>
    </dc:creator>
   </cc:Work>
  </rdf:RDF>
 </metadata>
 <defs>
  <style type="text/css">*{stroke-linejoin: round; stroke-linecap: butt}</style>
 </defs>
 <g id="figure_1">
  <g id="patch_1">
   <path d="M 0 216 
L 288 216 
L 288 0 
L 0 0 
z
" style="fill: #ffffff"/>
  </g>
  <g id="axes_1">
   <g id="patch_2">
    <path d="M 34.76 181.24 
L 277.2 181.24 
L 277.2 10.8 
L 34.76 10.8 
z
" style="fill: #ffffff"/>
   </g>
   <g id="PathCollection_1">
    <path d="M 265.251176 69.77021 
L 262.251176 75.77021 
L 268.251176 75.77021 
z
" clip-path="url(#p6d14db69f4)" style="fill: #1f77b4; stroke: #1f77b4"/>
    <path d="M 212.224611 124.661167 
L 209.224611 130.661167 
L 215.224611 130.661167 
z
" clip-path="url(#p6d14db69f4)" style="fill: #1f77b4; fill-opacity: 0.5; stroke: #1f77b4; stroke-opacity: 0.5"/>
    <path d="M 72.579312 135.750632 
L 69.579312 141.750632 
L 75.579312 141.750632 
z
" clip-path="url(#p6d14db69f4)" style="fill: #1f77b4; fill-opacity: 0.5; stroke: #1f77b4; stroke-opacity: 0.5"/>
    <path d="M 244.755745 49.463864 
L 241.755745 55.463864 
L 247.755745 55.463864 
z
" clip-path="url(#p6d14db69f4)" style="fill: #1f77b4; stroke: #1f77b4"/>
    <path d="M 180.494323 139.243641 
L 177.494323 145.243641 
L 183.494323 145.243641 
z
" clip-path="url(#p6d14db69f4)" style="fill: #1f77b4; fill-opacity: 0.5; stroke: #1f77b4; stroke-opacity: 0.5"/>
    <path d="M 206.425116 165.119544 
L 203.425116 171.119544 
L 209.425116 171.119544 
z
" clip-path="url(#p6d14db69f4)" style="fill: #1f77b4; fill-opacity: 0.5; stroke: #1f77b4; stroke-opacity: 0.5"/>
    <path d="M 269.904945 150.761444 
L 266.904945 156.761444 
L 272.904945 156.761444 
z
" clip-path="url(#p6d14db69f4)" style="fill: #1f77b4; fill-opacity: 0.5; stroke: #1f77b4; stroke-opacity: 0.5"/>
    <path d="M 236.577394 19.782332 
L 233.577394 25.782332 
L 239.577394 25.782332 
z
" clip-path="url(#p6d14db69f4)" style="fill: #1f77b4; stroke: #1f77b4"/>
    <path d="M 105.587549 124.039488 
L 102.587549 130.039488 
L 108.587549 130.039488 
z
" clip-path="url(#p6d14db69f4)" style="fill: #1f77b4; fill-opacity: 0.5; stroke: #1f77b4; stroke-opacity: 0.5"/>
    <path d="M 145.329607 139.390731 
L 142.329607 145.390731 
L 148.329607 145.390731 
z
" clip-path="url(#p6d14db69f4)" style="fill: #1f77b4; fill-opacity: 0.5; stroke: #1f77b4; stroke-opacity: 0.5"/>
    <path d="M 225.11806 105.443749 
L 222.11806 111.443749 
L 228.11806 111.443749 
z
" clip-path="url(#p6d14db69f4)" style="fill: #1f77b4; stroke: #1f77b4"/>
    <path d="M 159.430997 31.537079 
L 156.430997 37.537079 
L 162.430997 37.537079 
z
" clip-path="url(#p6d14db69f4)" style="fill: #1f77b4; stroke: #1f77b4"/>
    <path d="M 264.80781 120.69687 
L 261.80781 126.69687 
L 267.80781 126.69687 
z
" clip-path="url(#p6d14db69f4)" style="fill: #1f77b4; stroke: #1f77b4"/>
    <path d="M 268.86783 17.53047 
L 265.86783 23.53047 
L 271.86783 23.53047 
z
" clip-path="url(#p6d14db69f4)" style="fill: #1f77b4; stroke: #1f77b4"/>
    <path d="M 230.747853 123.153292 
L 227.747853 129.153292 
L 233.747853 129.153292 
z
" clip-path="url(#p6d14db69f4)" style="fill: #1f77b4; fill-opacity: 0.5; stroke: #1f77b4; stroke-opacity: 0.5"/>
    <path d="M 108.610562 89.817326 
L 105.610562 95.817326 
L 111.610562 95.817326 
z
" clip-path="url(#p6d14db69f4)" style="fill: #1f77b4; fill-opacity: 0.5; stroke: #1f77b4; stroke-opacity: 0.5"/>
    <path d="M 58.439627 58.417449 
L 55.439627 64.417449 
L 61.439627 64.417449 
z
" clip-path="url(#p6d14db69f4)" style="fill: #1f77b4; fill-opacity: 0.5; stroke: #1f77b4; stroke-opacity: 0.5"/>
    <path d="M 200.645455 116.262971 
L 197.645455 122.262971 
L 203.645455 122.262971 
z
" clip-path="url(#p6d14db69f4)" style="fill: #1f77b4; fill-opacity: 0.5; stroke: #1f77b4; stroke-opacity: 0.5"/>
    <path d="M 141.470571 12.609462 
L 138.470571 18.609462 
L 144.470571 18.609462 
z
" clip-path="url(#p6d14db69f4)" style="fill: #1f77b4; stroke: #1f77b4"/>
    <path d="M 255.215638 126.958301 
L 252.215638 132.958301 
L 258.215638 132.958301 
z
" clip-path="url(#p6d14db69f4)" style="fill: #1f77b4; stroke: #1f77b4"/>
    <path d="M 97.498619 129.691786 
L 94.498619 135.691786 
L 100.498619 135.691786 
z
" clip-path="url(#p6d14db69f4)" style="fill: #1f77b4; fill-opacity: 0.5; stroke: #1f77b4; stroke-opacity: 0.5"/>
    <path d="M 269.826097 23.435162 
L 266.826097 29.435162 
L 272.826097 29.435162 
z
" clip-path="url(#p6d14db69f4)" style="fill: #1f77b4; stroke: #1f77b4"/>
    <path d="M 222.683202 137.409071 
L 219.683202 143.409071 
L 225.683202 143.409071 
z
" clip-path="url(#p6d14db69f4)" style="fill: #1f77b4; fill-opacity: 0.5; stroke: #1f77b4; stroke-opacity: 0.5"/>
    <path d="M 262.532123 153.544118 
L 259.532123 159.544118 
L 265.532123 159.544118 
z
" clip-path="url(#p6d14db69f4)" style="fill: #1f77b4; fill-opacity: 0.5; stroke: #1f77b4; stroke-opacity: 0.5"/>
    <path d="M 251.701943 94.817672 
L 248.701943 100.817672 
L 254.701943 100.817672 
z
" clip-path="url(#p6d14db69f4)" style="fill: #1f77b4; stroke: #1f77b4"/>
    <path d="M 179.714871 10.245737 
L 176.714871 16.245737 
L 182.714871 16.245737 
z
" clip-path="url(#p6d14db69f4)" style="fill: #1f77b4; stroke: #1f77b4"/>
    <path d="M 258.25919 136.9841 
L 255.25919 142.9841 
L 261.25919 142.9841 
z
" clip-path="url(#p6d14db69f4)" style="fill: #1f77b4; fill-opacity: 0.5; stroke: #1f77b4; stroke-opacity: 0.5"/>
    <path d="M 113.633085 54.122806 
L 110.633085 60.122806 
L 116.633085 60.122806 
z
" clip-path="url(#p6d14db69f4)" style="fill: #1f77b4; fill-opacity: 0.5; stroke: #1f77b4; stroke-opacity: 0.5"/>
    <path d="M 235.679122 70.261196 
L 232.679122 76.261196 
L 238.679122 76.261196 
z
" clip-path="url(#p6d14db69f4)" style="fill: #1f77b4; stroke: #1f77b4"/>
    <path d="M 229.244636 146.449785 
L 226.244636 152.449785 
L 232.244636 152.449785 
z
" clip-path="url(#p6d14db69f4)" style="fill: #1f77b4; fill-opacity: 0.5; stroke: #1f77b4; stroke-opacity: 0.5"/>
    <path d="M 274.020869 77.528207 
L 271.020869 83.528207 
L 277.020869 83.528207 
z
" clip-path="url(#p6d14db69f4)" style="fill: #1f77b4; stroke: #1f77b4"/>
    <path d="M 206.130494 68.27675 
L 203.130494 74.27675 
L 209.130494 74.27675 
z
" clip-path="url(#p6d14db69f4)" style="fill: #1f77b4; stroke: #1f77b4"/>
    <path d="M 211.500498 148.520986 
L 208.500498 154.520986 
L 214.500498 154.520986 
z
" clip-path="url(#p6d14db69f4)" style="fill: #1f77b4; fill-opacity: 0.5; stroke: #1f77b4; stroke-opacity: 0.5"/>
    <path d="M 185.872398 158.899573 
L 182.872398 164.899573 
L 188.872398 164.899573 
z
" clip-path="url(#p6d14db69f4)" style="fill: #1f77b4; fill-opacity: 0.5; stroke: #1f77b4; stroke-opacity: 0.5"/>
    <path d="M 113.597445 65.752319 
L 110.597445 71.752319 
L 116.597445 71.752319 
z
" clip-path="url(#p6d14db69f4)" style="fill: #1f77b4; fill-opacity: 0.5; stroke: #1f77b4; stroke-opacity: 0.5"/>
    <path d="M 211.645722 38.952648 
L 208.645722 44.952648 
L 214.645722 44.952648 
z
" clip-path="url(#p6d14db69f4)" style="fill: #1f77b4; stroke: #1f77b4"/>
    <path d="M 189.329433 83.611574 
L 186.329433 89.611574 
L 192.329433 89.611574 
z
" clip-path="url(#p6d14db69f4)" style="fill: #1f77b4; fill-opacity: 0.5; stroke: #1f77b4; stroke-opacity: 0.5"/>
    <path d="M 249.855857 87.966355 
L 246.855857 93.966355 
L 252.855857 93.966355 
z
" clip-path="url(#p6d14db69f4)" style="fill: #1f77b4; stroke: #1f77b4"/>
    <path d="M 63.754429 162.371564 
L 60.754429 168.371564 
L 66.754429 168.371564 
z
" clip-path="url(#p6d14db69f4)" style="fill: #1f77b4; fill-opacity: 0.5; stroke: #1f77b4; stroke-opacity: 0.5"/>
    <path d="M 207.679066 25.318546 
L 204.679066 31.318546 
L 210.679066 31.318546 
z
" clip-path="url(#p6d14db69f4)" style="fill: #1f77b4; stroke: #1f77b4"/>
    <path d="M 170.836044 70.334188 
L 167.836044 76.334188 
L 173.836044 76.334188 
z
" clip-path="url(#p6d14db69f4)" style="fill: #1f77b4; fill-opacity: 0.5; stroke: #1f77b4; stroke-opacity: 0.5"/>
    <path d="M 221.673283 120.455762 
L 218.673283 126.455762 
L 224.673283 126.455762 
z
" clip-path="url(#p6d14db69f4)" style="fill: #1f77b4; fill-opacity: 0.5; stroke: #1f77b4; stroke-opacity: 0.5"/>
    <path d="M 138.413044 25.336527 
L 135.413044 31.336527 
L 141.413044 31.336527 
z
" clip-path="url(#p6d14db69f4)" style="fill: #1f77b4; stroke: #1f77b4"/>
    <path d="M 60.917198 45.318012 
L 57.917198 51.318012 
L 63.917198 51.318012 
z
" clip-path="url(#p6d14db69f4)" style="fill: #1f77b4; fill-opacity: 0.5; stroke: #1f77b4; stroke-opacity: 0.5"/>
   </g>
   <g id="PathCollection_2">
    <defs>
     <path id="C0_0_a22798b171" d="M -3 3 
L 3 3 
L 3 -3 
L -3 -3 
z
"/>
    </defs>
    <g clip-path="url(#p6d14db69f4)">
     <use xlink:href="#C0_0_a22798b171" x="125.563506" y="175.88321" style="fill: #ff7f0e; fill-opacity: 0.5; stroke: #ff7f0e; stroke-opacity: 0.5"/>
    </g>
    <g clip-path="url(#p6d14db69f4)">
     <use xlink:href="#C0_0_a22798b171" x="179.898763" y="94.559211" style="fill: #ff7f0e; fill-opacity: 0.5; stroke: #ff7f0e; stroke-opacity: 0.5"/>
    </g>
    <g clip-path="url(#p6d14db69f4)">
     <use xlink:href="#C0_0_a22798b171" x="72.585159" y="26.55437" style="fill: #ff7f0e; fill-opacity: 0.5; stroke: #ff7f0e; stroke-opacity: 0.5"/>
    </g>
    <g clip-path="url(#p6d14db69f4)">
     <use xlink:href="#C0_0_a22798b171" x="48.841791" y="111.294335" style="fill: #ff7f0e; fill-opacity: 0.5; stroke: #ff7f0e; stroke-opacity: 0.5"/>
    </g>
    <g clip-path="url(#p6d14db69f4)">
     <use xlink:href="#C0_0_a22798b171" x="39.750505" y="131.854762" style="fill: #ff7f0e; fill-opacity: 0.5; stroke: #ff7f0e; stroke-opacity: 0.5"/>
    </g>
    <g clip-path="url(#p6d14db69f4)">
     <use xlink:href="#C0_0_a22798b171" x="86.239494" y="43.503963" style="fill: #ff7f0e; fill-opacity: 0.5; stroke: #ff7f0e; stroke-opacity: 0.5"/>
    </g>
    <g clip-path="url(#p6d14db69f4)">
     <use xlink:href="#C0_0_a22798b171" x="78.841645" y="73.282664" style="fill: #ff7f0e; fill-opacity: 0.5; stroke: #ff7f0e; stroke-opacity: 0.5"/>
    </g>
    <g clip-path="url(#p6d14db69f4)">
     <use xlink:href="#C0_0_a22798b171" x="79.224589" y="32.708257" style="fill: #ff7f0e; fill-opacity: 0.5; stroke: #ff7f0e; stroke-opacity: 0.5"/>
    </g>
    <g clip-path="url(#p6d14db69f4)">
     <use xlink:href="#C0_0_a22798b171" x="108.520489" y="44.262131" style="fill: #ff7f0e; fill-opacity: 0.5; stroke: #ff7f0e; stroke-opacity: 0.5"/>
    </g>
    <g clip-path="url(#p6d14db69f4)">
     <use xlink:href="#C0_0_a22798b171" x="161.981949" y="149.440999" style="fill: #ff7f0e; fill-opacity: 0.5; stroke: #ff7f0e; stroke-opacity: 0.5"/>
    </g>
    <g clip-path="url(#p6d14db69f4)">
     <use xlink:href="#C0_0_a22798b171" x="139.48075" y="29.112244" style="fill: #ff7f0e; stroke: #ff7f0e"/>
    </g>
    <g clip-path="url(#p6d14db69f4)">
     <use xlink:href="#C0_0_a22798b171" x="105.365593" y="89.314508" style="fill: #ff7f0e; fill-opacity: 0.5; stroke: #ff7f0e; stroke-opacity: 0.5"/>
    </g>
    <g clip-path="url(#p6d14db69f4)">
     <use xlink:href="#C0_0_a22798b171" x="183.097616" y="43.6199" style="fill: #ff7f0e; stroke: #ff7f0e"/>
    </g>
    <g clip-path="url(#p6d14db69f4)">
     <use xlink:href="#C0_0_a22798b171" x="68.578892" y="28.510199" style="fill: #ff7f0e; fill-opacity: 0.5; stroke: #ff7f0e; stroke-opacity: 0.5"/>
    </g>
    <g clip-path="url(#p6d14db69f4)">
     <use xlink:href="#C0_0_a22798b171" x="123.580765" y="162.48275" style="fill: #ff7f0e; fill-opacity: 0.5; stroke: #ff7f0e; stroke-opacity: 0.5"/>
    </g>
    <g clip-path="url(#p6d14db69f4)">
     <use xlink:href="#C0_0_a22798b171" x="83.168912" y="41.817563" style="fill: #ff7f0e; fill-opacity: 0.5; stroke: #ff7f0e; stroke-opacity: 0.5"/>
    </g>
    <g clip-path="url(#p6d14db69f4)">
     <use xlink:href="#C0_0_a22798b171" x="178.384988" y="180.055079" style="fill: #ff7f0e; fill-opacity: 0.5; stroke: #ff7f0e; stroke-opacity: 0.5"/>
    </g>
    <g clip-path="url(#p6d14db69f4)">
     <use xlink:href="#C0_0_a22798b171" x="46.021438" y="94.18823" style="fill: #ff7f0e; fill-opacity: 0.5; stroke: #ff7f0e; stroke-opacity: 0.5"/>
    </g>
    <g clip-path="url(#p6d14db69f4)">
     <use xlink:href="#C0_0_a22798b171" x="182.053174" y="110.096469" style="fill: #ff7f0e; fill-opacity: 0.5; stroke: #ff7f0e; stroke-opacity: 0.5"/>
    </g>
    <g clip-path="url(#p6d14db69f4)">
     <use xlink:href="#C0_0_a22798b171" x="76.101869" y="143.383945" style="fill: #ff7f0e; fill-opacity: 0.5; stroke: #ff7f0e; stroke-opacity: 0.5"/>
    </g>
    <g clip-path="url(#p6d14db69f4)">
     <use xlink:href="#C0_0_a22798b171" x="50.531108" y="160.810147" style="fill: #ff7f0e; fill-opacity: 0.5; stroke: #ff7f0e; stroke-opacity: 0.5"/>
    </g>
    <g clip-path="url(#p6d14db69f4)">
     <use xlink:href="#C0_0_a22798b171" x="64.34695" y="17.200483" style="fill: #ff7f0e; fill-opacity: 0.5; stroke: #ff7f0e; stroke-opacity: 0.5"/>
    </g>
    <g clip-path="url(#p6d14db69f4)">
     <use xlink:href="#C0_0_a22798b171" x="154.81069" y="138.326225" style="fill: #ff7f0e; fill-opacity: 0.5; stroke: #ff7f0e; stroke-opacity: 0.5"/>
    </g>
    <g clip-path="url(#p6d14db69f4)">
     <use xlink:href="#C0_0_a22798b171" x="43.097153" y="96.488965" style="fill: #ff7f0e; fill-opacity: 0.5; stroke: #ff7f0e; stroke-opacity: 0.5"/>
    </g>
    <g clip-path="url(#p6d14db69f4)">
     <use xlink:href="#C0_0_a22798b171" x="195.381903" y="174.952989" style="fill: #ff7f0e; fill-opacity: 0.5; stroke: #ff7f0e; stroke-opacity: 0.5"/>
    </g>
    <g clip-path="url(#p6d14db69f4)">
     <use xlink:href="#C0_0_a22798b171" x="110.331233" y="77.345855" style="fill: #ff7f0e; fill-opacity: 0.5; stroke: #ff7f0e; stroke-opacity: 0.5"/>
    </g>
    <g clip-path="url(#p6d14db69f4)">
     <use xlink:href="#C0_0_a22798b171" x="160.845291" y="95.563387" style="fill: #ff7f0e; fill-opacity: 0.5; stroke: #ff7f0e; stroke-opacity: 0.5"/>
    </g>
    <g clip-path="url(#p6d14db69f4)">
     <use xlink:href="#C0_0_a22798b171" x="167.30444" y="172.465962" style="fill: #ff7f0e; fill-opacity: 0.5; stroke: #ff7f0e; stroke-opacity: 0.5"/>
    </g>
    <g clip-path="url(#p6d14db69f4)">
     <use xlink:href="#C0_0_a22798b171" x="79.576114" y="133.747497" style="fill: #ff7f0e; fill-opacity: 0.5; stroke: #ff7f0e; stroke-opacity: 0.5"/>
    </g>
    <g clip-path="url(#p6d14db69f4)">
     <use xlink:href="#C0_0_a22798b171" x="56.214122" y="66.681217" style="fill: #ff7f0e; fill-opacity: 0.5; stroke: #ff7f0e; stroke-opacity: 0.5"/>
    </g>
    <g clip-path="url(#p6d14db69f4)">
     <use xlink:href="#C0_0_a22798b171" x="82.274085" y="51.429553" style="fill: #ff7f0e; fill-opacity: 0.5; stroke: #ff7f0e; stroke-opacity: 0.5"/>
    </g>
    <g clip-path="url(#p6d14db69f4)">
     <use xlink:href="#C0_0_a22798b171" x="45.724904" y="140.737057" style="fill: #ff7f0e; fill-opacity: 0.5; stroke: #ff7f0e; stroke-opacity: 0.5"/>
    </g>
    <g clip-path="url(#p6d14db69f4)">
     <use xlink:href="#C0_0_a22798b171" x="128.990922" y="118.555043" style="fill: #ff7f0e; fill-opacity: 0.5; stroke: #ff7f0e; stroke-opacity: 0.5"/>
    </g>
    <g clip-path="url(#p6d14db69f4)">
     <use xlink:href="#C0_0_a22798b171" x="100.545859" y="73.469794" style="fill: #ff7f0e; fill-opacity: 0.5; stroke: #ff7f0e; stroke-opacity: 0.5"/>
    </g>
    <g clip-path="url(#p6d14db69f4)">
     <use xlink:href="#C0_0_a22798b171" x="121.251277" y="89.922563" style="fill: #ff7f0e; fill-opacity: 0.5; stroke: #ff7f0e; stroke-opacity: 0.5"/>
    </g>
    <g clip-path="url(#p6d14db69f4)">
     <use xlink:href="#C0_0_a22798b171" x="102.869763" y="165.851012" style="fill: #ff7f0e; fill-opacity: 0.5; stroke: #ff7f0e; stroke-opacity: 0.5"/>
    </g>
    <g clip-path="url(#p6d14db69f4)">
     <use xlink:href="#C0_0_a22798b171" x="166.331238" y="38.871043" style="fill: #ff7f0e; stroke: #ff7f0e"/>
    </g>
    <g clip-path="url(#p6d14db69f4)">
     <use xlink:href="#C0_0_a22798b171" x="68.925669" y="126.566246" style="fill: #ff7f0e; fill-opacity: 0.5; stroke: #ff7f0e; stroke-opacity: 0.5"/>
    </g>
    <g clip-path="url(#p6d14db69f4)">
     <use xlink:href="#C0_0_a22798b171" x="52.834058" y="174.290285" style="fill: #ff7f0e; fill-opacity: 0.5; stroke: #ff7f0e; stroke-opacity: 0.5"/>
    </g>
    <g clip-path="url(#p6d14db69f4)">
     <use xlink:href="#C0_0_a22798b171" x="221.983022" y="65.75593" style="fill: #ff7f0e; stroke: #ff7f0e"/>
    </g>
    <g clip-path="url(#p6d14db69f4)">
     <use xlink:href="#C0_0_a22798b171" x="82.93663" y="178.41277" style="fill: #ff7f0e; fill-opacity: 0.5; stroke: #ff7f0e; stroke-opacity: 0.5"/>
    </g>
    <g clip-path="url(#p6d14db69f4)">
     <use xlink:href="#C0_0_a22798b171" x="36.098782" y="93.958859" style="fill: #ff7f0e; fill-opacity: 0.5; stroke: #ff7f0e; stroke-opacity: 0.5"/>
    </g>
    <g clip-path="url(#p6d14db69f4)">
     <use xlink:href="#C0_0_a22798b171" x="232.460469" y="142.63606" style="fill: #ff7f0e; fill-opacity: 0.5; stroke: #ff7f0e; stroke-opacity: 0.5"/>
    </g>
    <g clip-path="url(#p6d14db69f4)">
     <use xlink:href="#C0_0_a22798b171" x="221.746783" y="63.476572" style="fill: #ff7f0e; stroke: #ff7f0e"/>
    </g>
    <g clip-path="url(#p6d14db69f4)">
     <use xlink:href="#C0_0_a22798b171" x="52.711385" y="115.324828" style="fill: #ff7f0e; fill-opacity: 0.5; stroke: #ff7f0e; stroke-opacity: 0.5"/>
    </g>
    <g clip-path="url(#p6d14db69f4)">
     <use xlink:href="#C0_0_a22798b171" x="121.666431" y="21.583741" style="fill: #ff7f0e; stroke: #ff7f0e"/>
    </g>
    <g clip-path="url(#p6d14db69f4)">
     <use xlink:href="#C0_0_a22798b171" x="62.851295" y="157.80093" style="fill: #ff7f0e; fill-opacity: 0.5; stroke: #ff7f0e; stroke-opacity: 0.5"/>
    </g>
    <g clip-path="url(#p6d14db69f4)">
     <use xlink:href="#C0_0_a22798b171" x="244.010795" y="123.108651" style="fill: #ff7f0e; stroke: #ff7f0e"/>
    </g>
    <g clip-path="url(#p6d14db69f4)">
     <use xlink:href="#C0_0_a22798b171" x="114.982917" y="23.63522" style="fill: #ff7f0e; stroke: #ff7f0e"/>
    </g>
    <g clip-path="url(#p6d14db69f4)">
     <use xlink:href="#C0_0_a22798b171" x="50.169086" y="31.706281" style="fill: #ff7f0e; fill-opacity: 0.5; stroke: #ff7f0e; stroke-opacity: 0.5"/>
    </g>
    <g clip-path="url(#p6d14db69f4)">
     <use xlink:href="#C0_0_a22798b171" x="110.154554" y="137.276429" style="fill: #ff7f0e; fill-opacity: 0.5; stroke: #ff7f0e; stroke-opacity: 0.5"/>
    </g>
    <g clip-path="url(#p6d14db69f4)">
     <use xlink:href="#C0_0_a22798b171" x="149.243786" y="140.018696" style="fill: #ff7f0e; fill-opacity: 0.5; stroke: #ff7f0e; stroke-opacity: 0.5"/>
    </g>
    <g clip-path="url(#p6d14db69f4)">
     <use xlink:href="#C0_0_a22798b171" x="219.204727" y="27.772746" style="fill: #ff7f0e; stroke: #ff7f0e"/>
    </g>
    <g clip-path="url(#p6d14db69f4)">
     <use xlink:href="#C0_0_a22798b171" x="154.475804" y="121.72072" style="fill: #ff7f0e; fill-opacity: 0.5; stroke: #ff7f0e; stroke-opacity: 0.5"/>
    </g>
    <g clip-path="url(#p6d14db69f4)">
     <use xlink:href="#C0_0_a22798b171" x="161.491347" y="57.508114" style="fill: #ff7f0e; stroke: #ff7f0e"/>
    </g>
    <g clip-path="url(#p6d14db69f4)">
     <use xlink:href="#C0_0_a22798b171" x="40.922613" y="30.04499" style="fill: #ff7f0e; fill-opacity: 0.5; stroke: #ff7f0e; stroke-opacity: 0.5"/>
    </g>
   </g>
   <g id="matplotlib.axis_1">
    <g id="xtick_1">
     <g id="line2d_1">
      <defs>
       <path id="m63f24a371c" d="M 0 0 
L 0 3.5 
" style="stroke: #000000; stroke-width: 0.8"/>
      </defs>
      <g>
       <use xlink:href="#m63f24a371c" x="34.76" y="181.24" style="stroke: #000000; stroke-width: 0.8"/>
      </g>
     </g>
    </g>
    <g id="xtick_2">
     <g id="line2d_2">
      <g>
       <use xlink:href="#m63f24a371c" x="83.248" y="181.24" style="stroke: #000000; stroke-width: 0.8"/>
      </g>
     </g>
    </g>
    <g id="xtick_3">
     <g id="line2d_3">
      <g>
       <use xlink:href="#m63f24a371c" x="131.736" y="181.24" style="stroke: #000000; stroke-width: 0.8"/>
      </g>
     </g>
    </g>
    <g id="xtick_4">
     <g id="line2d_4">
      <g>
       <use xlink:href="#m63f24a371c" x="180.224" y="181.24" style="stroke: #000000; stroke-width: 0.8"/>
      </g>
     </g>
    </g>
    <g id="xtick_5">
     <g id="line2d_5">
      <g>
       <use xlink:href="#m63f24a371c" x="228.712" y="181.24" style="stroke: #000000; stroke-width: 0.8"/>
      </g>
     </g>
    </g>
    <g id="xtick_6">
     <g id="line2d_6">
      <g>
       <use xlink:href="#m63f24a371c" x="277.2" y="181.24" style="stroke: #000000; stroke-width: 0.8"/>
      </g>
     </g>
    </g>
    <g id="text_1">
     <!-- GPA -->
     <g transform="translate(143.99125 201.358125) scale(0.12 -0.12)">
      <defs>
       <path id="DejaVuSans-47" d="M 3809 666 
L 3809 1919 
L 2778 1919 
L 2778 2438 
L 4434 2438 
L 4434 434 
Q 4069 175 3628 42 
Q 3188 -91 2688 -91 
Q 1594 -91 976 548 
Q 359 1188 359 2328 
Q 359 3472 976 4111 
Q 1594 4750 2688 4750 
Q 3144 4750 3555 4637 
Q 3966 4525 4313 4306 
L 4313 3634 
Q 3963 3931 3569 4081 
Q 3175 4231 2741 4231 
Q 1884 4231 1454 3753 
Q 1025 3275 1025 2328 
Q 1025 1384 1454 906 
Q 1884 428 2741 428 
Q 3075 428 3337 486 
Q 3600 544 3809 666 
z
" transform="scale(0.015625)"/>
       <path id="DejaVuSans-50" d="M 1259 4147 
L 1259 2394 
L 2053 2394 
Q 2494 2394 2734 2622 
Q 2975 2850 2975 3272 
Q 2975 3691 2734 3919 
Q 2494 4147 2053 4147 
L 1259 4147 
z
M 628 4666 
L 2053 4666 
Q 2838 4666 3239 4311 
Q 3641 3956 3641 3272 
Q 3641 2581 3239 2228 
Q 2838 1875 2053 1875 
L 1259 1875 
L 1259 0 
L 628 0 
L 628 4666 
z
" transform="scale(0.015625)"/>
       <path id="DejaVuSans-41" d="M 2188 4044 
L 1331 1722 
L 3047 1722 
L 2188 4044 
z
M 1831 4666 
L 2547 4666 
L 4325 0 
L 3669 0 
L 3244 1197 
L 1141 1197 
L 716 0 
L 50 0 
L 1831 4666 
z
" transform="scale(0.015625)"/>
      </defs>
      <use xlink:href="#DejaVuSans-47"/>
      <use xlink:href="#DejaVuSans-50" transform="translate(77.490234 0)"/>
      <use xlink:href="#DejaVuSans-41" transform="translate(131.417969 0)"/>
     </g>
    </g>
   </g>
   <g id="matplotlib.axis_2">
    <g id="ytick_1">
     <g id="line2d_7">
      <defs>
       <path id="m79ab2e9bc4" d="M 0 0 
L -3.5 0 
" style="stroke: #000000; stroke-width: 0.8"/>
      </defs>
      <g>
       <use xlink:href="#m79ab2e9bc4" x="34.76" y="181.24" style="stroke: #000000; stroke-width: 0.8"/>
      </g>
     </g>
    </g>
    <g id="ytick_2">
     <g id="line2d_8">
      <g>
       <use xlink:href="#m79ab2e9bc4" x="34.76" y="147.152" style="stroke: #000000; stroke-width: 0.8"/>
      </g>
     </g>
    </g>
    <g id="ytick_3">
     <g id="line2d_9">
      <g>
       <use xlink:href="#m79ab2e9bc4" x="34.76" y="113.064" style="stroke: #000000; stroke-width: 0.8"/>
      </g>
     </g>
    </g>
    <g id="ytick_4">
     <g id="line2d_10">
      <g>
       <use xlink:href="#m79ab2e9bc4" x="34.76" y="78.976" style="stroke: #000000; stroke-width: 0.8"/>
      </g>
     </g>
    </g>
    <g id="ytick_5">
     <g id="line2d_11">
      <g>
       <use xlink:href="#m79ab2e9bc4" x="34.76" y="44.888" style="stroke: #000000; stroke-width: 0.8"/>
      </g>
     </g>
    </g>
    <g id="ytick_6">
     <g id="line2d_12">
      <g>
       <use xlink:href="#m79ab2e9bc4" x="34.76" y="10.8" style="stroke: #000000; stroke-width: 0.8"/>
      </g>
     </g>
    </g>
    <g id="text_2">
     <!-- Interview Score -->
     <g transform="translate(21.264375 142.629688) rotate(-90) scale(0.12 -0.12)">
      <defs>
       <path id="DejaVuSans-49" d="M 628 4666 
L 1259 4666 
L 1259 0 
L 628 0 
L 628 4666 
z
" transform="scale(0.015625)"/>
       <path id="DejaVuSans-6e" d="M 3513 2113 
L 3513 0 
L 2938 0 
L 2938 2094 
Q 2938 2591 2744 2837 
Q 2550 3084 2163 3084 
Q 1697 3084 1428 2787 
Q 1159 2491 1159 1978 
L 1159 0 
L 581 0 
L 581 3500 
L 1159 3500 
L 1159 2956 
Q 1366 3272 1645 3428 
Q 1925 3584 2291 3584 
Q 2894 3584 3203 3211 
Q 3513 2838 3513 2113 
z
" transform="scale(0.015625)"/>
       <path id="DejaVuSans-74" d="M 1172 4494 
L 1172 3500 
L 2356 3500 
L 2356 3053 
L 1172 3053 
L 1172 1153 
Q 1172 725 1289 603 
Q 1406 481 1766 481 
L 2356 481 
L 2356 0 
L 1766 0 
Q 1100 0 847 248 
Q 594 497 594 1153 
L 594 3053 
L 172 3053 
L 172 3500 
L 594 3500 
L 594 4494 
L 1172 4494 
z
" transform="scale(0.015625)"/>
       <path id="DejaVuSans-65" d="M 3597 1894 
L 3597 1613 
L 953 1613 
Q 991 1019 1311 708 
Q 1631 397 2203 397 
Q 2534 397 2845 478 
Q 3156 559 3463 722 
L 3463 178 
Q 3153 47 2828 -22 
Q 2503 -91 2169 -91 
Q 1331 -91 842 396 
Q 353 884 353 1716 
Q 353 2575 817 3079 
Q 1281 3584 2069 3584 
Q 2775 3584 3186 3129 
Q 3597 2675 3597 1894 
z
M 3022 2063 
Q 3016 2534 2758 2815 
Q 2500 3097 2075 3097 
Q 1594 3097 1305 2825 
Q 1016 2553 972 2059 
L 3022 2063 
z
" transform="scale(0.015625)"/>
       <path id="DejaVuSans-72" d="M 2631 2963 
Q 2534 3019 2420 3045 
Q 2306 3072 2169 3072 
Q 1681 3072 1420 2755 
Q 1159 2438 1159 1844 
L 1159 0 
L 581 0 
L 581 3500 
L 1159 3500 
L 1159 2956 
Q 1341 3275 1631 3429 
Q 1922 3584 2338 3584 
Q 2397 3584 2469 3576 
Q 2541 3569 2628 3553 
L 2631 2963 
z
" transform="scale(0.015625)"/>
       <path id="DejaVuSans-76" d="M 191 3500 
L 800 3500 
L 1894 563 
L 2988 3500 
L 3597 3500 
L 2284 0 
L 1503 0 
L 191 3500 
z
" transform="scale(0.015625)"/>
       <path id="DejaVuSans-69" d="M 603 3500 
L 1178 3500 
L 1178 0 
L 603 0 
L 603 3500 
z
M 603 4863 
L 1178 4863 
L 1178 4134 
L 603 4134 
L 603 4863 
z
" transform="scale(0.015625)"/>
       <path id="DejaVuSans-77" d="M 269 3500 
L 844 3500 
L 1563 769 
L 2278 3500 
L 2956 3500 
L 3675 769 
L 4391 3500 
L 4966 3500 
L 4050 0 
L 3372 0 
L 2619 2869 
L 1863 0 
L 1184 0 
L 269 3500 
z
" transform="scale(0.015625)"/>
       <path id="DejaVuSans-20" transform="scale(0.015625)"/>
       <path id="DejaVuSans-53" d="M 3425 4513 
L 3425 3897 
Q 3066 4069 2747 4153 
Q 2428 4238 2131 4238 
Q 1616 4238 1336 4038 
Q 1056 3838 1056 3469 
Q 1056 3159 1242 3001 
Q 1428 2844 1947 2747 
L 2328 2669 
Q 3034 2534 3370 2195 
Q 3706 1856 3706 1288 
Q 3706 609 3251 259 
Q 2797 -91 1919 -91 
Q 1588 -91 1214 -16 
Q 841 59 441 206 
L 441 856 
Q 825 641 1194 531 
Q 1563 422 1919 422 
Q 2459 422 2753 634 
Q 3047 847 3047 1241 
Q 3047 1584 2836 1778 
Q 2625 1972 2144 2069 
L 1759 2144 
Q 1053 2284 737 2584 
Q 422 2884 422 3419 
Q 422 4038 858 4394 
Q 1294 4750 2059 4750 
Q 2388 4750 2728 4690 
Q 3069 4631 3425 4513 
z
" transform="scale(0.015625)"/>
       <path id="DejaVuSans-63" d="M 3122 3366 
L 3122 2828 
Q 2878 2963 2633 3030 
Q 2388 3097 2138 3097 
Q 1578 3097 1268 2742 
Q 959 2388 959 1747 
Q 959 1106 1268 751 
Q 1578 397 2138 397 
Q 2388 397 2633 464 
Q 2878 531 3122 666 
L 3122 134 
Q 2881 22 2623 -34 
Q 2366 -91 2075 -91 
Q 1284 -91 818 406 
Q 353 903 353 1747 
Q 353 2603 823 3093 
Q 1294 3584 2113 3584 
Q 2378 3584 2631 3529 
Q 2884 3475 3122 3366 
z
" transform="scale(0.015625)"/>
       <path id="DejaVuSans-6f" d="M 1959 3097 
Q 1497 3097 1228 2736 
Q 959 2375 959 1747 
Q 959 1119 1226 758 
Q 1494 397 1959 397 
Q 2419 397 2687 759 
Q 2956 1122 2956 1747 
Q 2956 2369 2687 2733 
Q 2419 3097 1959 3097 
z
M 1959 3584 
Q 2709 3584 3137 3096 
Q 3566 2609 3566 1747 
Q 3566 888 3137 398 
Q 2709 -91 1959 -91 
Q 1206 -91 779 398 
Q 353 888 353 1747 
Q 353 2609 779 3096 
Q 1206 3584 1959 3584 
z
" transform="scale(0.015625)"/>
      </defs>
      <use xlink:href="#DejaVuSans-49"/>
      <use xlink:href="#DejaVuSans-6e" transform="translate(29.492188 0)"/>
      <use xlink:href="#DejaVuSans-74" transform="translate(92.871094 0)"/>
      <use xlink:href="#DejaVuSans-65" transform="translate(132.080078 0)"/>
      <use xlink:href="#DejaVuSans-72" transform="translate(193.603516 0)"/>
      <use xlink:href="#DejaVuSans-76" transform="translate(234.716797 0)"/>
      <use xlink:href="#DejaVuSans-69" transform="translate(293.896484 0)"/>
      <use xlink:href="#DejaVuSans-65" transform="translate(321.679688 0)"/>
      <use xlink:href="#DejaVuSans-77" transform="translate(383.203125 0)"/>
      <use xlink:href="#DejaVuSans-20" transform="translate(464.990234 0)"/>
      <use xlink:href="#DejaVuSans-53" transform="translate(496.777344 0)"/>
      <use xlink:href="#DejaVuSans-63" transform="translate(560.253906 0)"/>
      <use xlink:href="#DejaVuSans-6f" transform="translate(615.234375 0)"/>
      <use xlink:href="#DejaVuSans-72" transform="translate(676.416016 0)"/>
      <use xlink:href="#DejaVuSans-65" transform="translate(715.279297 0)"/>
     </g>
    </g>
   </g>
   <g id="line2d_13">
    <path d="M 66.463255 -1 
L 66.595556 -0.90699 
L 69.044444 0.814626 
L 71.493333 2.536242 
L 73.942222 4.257859 
L 76.391111 5.979475 
L 78.84 7.701091 
L 81.288889 9.422707 
L 83.737778 11.144323 
L 86.186667 12.865939 
L 88.635556 14.587556 
L 91.084444 16.309172 
L 93.533333 18.030788 
L 95.982222 19.752404 
L 98.431111 21.47402 
L 100.88 23.195636 
L 103.328889 24.917253 
L 105.777778 26.638869 
L 108.226667 28.360485 
L 110.675556 30.082101 
L 113.124444 31.803717 
L 115.573333 33.525333 
L 118.022222 35.246949 
L 120.471111 36.968566 
L 122.92 38.690182 
L 125.368889 40.411798 
L 127.817778 42.133414 
L 130.266667 43.85503 
L 132.715556 45.576646 
L 135.164444 47.298263 
L 137.613333 49.019879 
L 140.062222 50.741495 
L 142.511111 52.463111 
L 144.96 54.184727 
L 147.408889 55.906343 
L 149.857778 57.62796 
L 152.306667 59.349576 
L 154.755556 61.071192 
L 157.204444 62.792808 
L 159.653333 64.514424 
L 162.102222 66.23604 
L 164.551111 67.957657 
L 167 69.679273 
L 169.448889 71.400889 
L 171.897778 73.122505 
L 174.346667 74.844121 
L 176.795556 76.565737 
L 179.244444 78.287354 
L 181.693333 80.00897 
L 184.142222 81.730586 
L 186.591111 83.452202 
L 189.04 85.173818 
L 191.488889 86.895434 
L 193.937778 88.617051 
L 196.386667 90.338667 
L 198.835556 92.060283 
L 201.284444 93.781899 
L 203.733333 95.503515 
L 206.182222 97.225131 
L 208.631111 98.946747 
L 211.08 100.668364 
L 213.528889 102.38998 
L 215.977778 104.111596 
L 218.426667 105.833212 
L 220.875556 107.554828 
L 223.324444 109.276444 
L 225.773333 110.998061 
L 228.222222 112.719677 
L 230.671111 114.441293 
L 233.12 116.162909 
L 235.568889 117.884525 
L 238.017778 119.606141 
L 240.466667 121.327758 
L 242.915556 123.049374 
L 245.364444 124.77099 
L 247.813333 126.492606 
L 250.262222 128.214222 
L 252.711111 129.935838 
L 255.16 131.657455 
L 257.608889 133.379071 
L 260.057778 135.100687 
L 262.506667 136.822303 
L 264.955556 138.543919 
L 267.404444 140.265535 
L 269.853333 141.987152 
L 272.302222 143.708768 
L 274.751111 145.430384 
L 277.2 147.152 
" clip-path="url(#p6d14db69f4)" style="fill: none; stroke-dasharray: 5.55,2.4; stroke-dashoffset: 0; stroke: #000000; stroke-width: 1.5"/>
   </g>
   <g id="patch_3">
    <path d="M 34.76 181.24 
L 34.76 10.8 
" style="fill: none; stroke: #000000; stroke-width: 0.8; stroke-linejoin: miter; stroke-linecap: square"/>
   </g>
   <g id="patch_4">
    <path d="M 277.2 181.24 
L 277.2 10.8 
" style="fill: none; stroke: #000000; stroke-width: 0.8; stroke-linejoin: miter; stroke-linecap: square"/>
   </g>
   <g id="patch_5">
    <path d="M 34.76 181.24 
L 277.2 181.24 
" style="fill: none; stroke: #000000; stroke-width: 0.8; stroke-linejoin: miter; stroke-linecap: square"/>
   </g>
   <g id="patch_6">
    <path d="M 34.76 10.8 
L 277.2 10.8 
" style="fill: none; stroke: #000000; stroke-width: 0.8; stroke-linejoin: miter; stroke-linecap: square"/>
   </g>
  </g>
 </g>
 <defs>
  <clipPath id="p6d14db69f4">
   <rect x="34.76" y="10.8" width="242.44" height="170.44"/>
  </clipPath>
 </defs>
</svg>
