<svg width="1933" height="2210" xmlns="http://www.w3.org/2000/svg" xmlns:xlink="http://www.w3.org/1999/xlink" xml:space="preserve" overflow="hidden"><g transform="translate(-839 -18)"><path d="M842.082 27.2218 1178.5 27.2218 1178.5 456.222 842.082 456.222Z" fill="#333F50" fill-rule="evenodd"/><path d="M1178.5 27.2218 1729.42 27.2218 1729.42 456.222 1178.5 456.222Z" fill="#333F50" fill-rule="evenodd"/><path d="M1729.42 27.2218 2247.98 27.2218 2247.98 456.222 1729.42 456.222Z" fill="#333F50" fill-rule="evenodd"/><path d="M2247.98 27.2218 2766.54 27.2218 2766.54 456.222 2247.98 456.222Z" fill="#333F50" fill-rule="evenodd"/><path d="M1178.5 456.222 1729.42 456.222 1729.42 590.055 1178.5 590.055Z" fill="#FFC000" fill-rule="evenodd"/><path d="M1178.5 590.055 1729.42 590.055 1729.42 723.888 1178.5 723.888Z" fill="#FFC000" fill-rule="evenodd"/><path d="M1178.5 723.888 1729.42 723.888 1729.42 857.722 1178.5 857.722Z" fill="#FFC000" fill-rule="evenodd"/><path d="M1178.5 857.722 1729.42 857.722 1729.42 991.555 1178.5 991.555Z" fill="#FFC000" fill-rule="evenodd"/><path d="M1729.42 991.555 2247.98 991.555 2247.98 1125.39 1729.42 1125.39Z" fill="#92D050" fill-rule="evenodd"/><path d="M2247.98 991.555 2766.54 991.555 2766.54 1125.39 2247.98 1125.39Z" fill="#BDD7EE" fill-rule="evenodd"/><path d="M1729.42 1125.39 2247.98 1125.39 2247.98 1259.22 1729.42 1259.22Z" fill="#92D050" fill-rule="evenodd"/><path d="M2247.98 1125.39 2766.54 1125.39 2766.54 1259.22 2247.98 1259.22Z" fill="#BDD7EE" fill-rule="evenodd"/><path d="M1729.42 1259.22 2247.98 1259.22 2247.98 1393.06 1729.42 1393.06Z" fill="#92D050" fill-rule="evenodd"/><path d="M2247.98 1259.22 2766.54 1259.22 2766.54 1393.06 2247.98 1393.06Z" fill="#BDD7EE" fill-rule="evenodd"/><path d="M1729.42 1393.06 2247.98 1393.06 2247.98 1526.89 1729.42 1526.89Z" fill="#92D050" fill-rule="evenodd"/><path d="M2247.98 1393.06 2766.54 1393.06 2766.54 1526.89 2247.98 1526.89Z" fill="#BDD7EE" fill-rule="evenodd"/><path d="M1729.42 1526.89 2247.98 1526.89 2247.98 1660.72 1729.42 1660.72Z" fill="#92D050" fill-rule="evenodd"/><path d="M2247.98 1526.89 2766.54 1526.89 2766.54 1660.72 2247.98 1660.72Z" fill="#BDD7EE" fill-rule="evenodd"/><path d="M2247.98 1660.72 2766.54 1660.72 2766.54 1794.56 2247.98 1794.56Z" fill="#BDD7EE" fill-rule="evenodd"/><path d="M2247.98 1794.56 2766.54 1794.56 2766.54 1928.39 2247.98 1928.39Z" fill="#BDD7EE" fill-rule="evenodd"/><path d="M2247.98 1928.39 2766.54 1928.39 2766.54 2062.22 2247.98 2062.22Z" fill="#BDD7EE" fill-rule="evenodd"/><path d="M1178.5 24.9301 1178.5 2198.35" stroke="#000000" stroke-width="4.58333" stroke-linejoin="round" stroke-miterlimit="10" fill="none" fill-rule="evenodd"/><path d="M1729.42 24.9301 1729.42 2198.35" stroke="#000000" stroke-width="4.58333" stroke-linejoin="round" stroke-miterlimit="10" fill="none" fill-rule="evenodd"/><path d="M2247.98 24.9301 2247.98 2198.35" stroke="#000000" stroke-width="4.58333" stroke-linejoin="round" stroke-miterlimit="10" fill="none" fill-rule="evenodd"/><path d="M839.79 456.222 2768.83 456.222" stroke="#000000" stroke-width="4.58333" stroke-linejoin="round" stroke-miterlimit="10" fill="none" fill-rule="evenodd"/><path d="M839.79 590.055 2768.83 590.055" stroke="#000000" stroke-width="4.58333" stroke-linejoin="round" stroke-miterlimit="10" fill="none" fill-rule="evenodd"/><path d="M839.79 723.888 2768.83 723.888" stroke="#000000" stroke-width="4.58333" stroke-linejoin="round" stroke-miterlimit="10" fill="none" fill-rule="evenodd"/><path d="M839.79 857.722 2768.83 857.722" stroke="#000000" stroke-width="4.58333" stroke-linejoin="round" stroke-miterlimit="10" fill="none" fill-rule="evenodd"/><path d="M839.79 991.555 2768.83 991.555" stroke="#000000" stroke-width="4.58333" stroke-linejoin="round" stroke-miterlimit="10" fill="none" fill-rule="evenodd"/><path d="M839.79 1125.39 2768.83 1125.39" stroke="#000000" stroke-width="4.58333" stroke-linejoin="round" stroke-miterlimit="10" fill="none" fill-rule="evenodd"/><path d="M839.79 1259.22 2768.83 1259.22" stroke="#000000" stroke-width="4.58333" stroke-linejoin="round" stroke-miterlimit="10" fill="none" fill-rule="evenodd"/><path d="M839.79 1393.06 2768.83 1393.06" stroke="#000000" stroke-width="4.58333" stroke-linejoin="round" stroke-miterlimit="10" fill="none" fill-rule="evenodd"/><path d="M839.79 1526.89 2768.83 1526.89" stroke="#000000" stroke-width="4.58333" stroke-linejoin="round" stroke-miterlimit="10" fill="none" fill-rule="evenodd"/><path d="M839.79 1660.72 2768.83 1660.72" stroke="#000000" stroke-width="4.58333" stroke-linejoin="round" stroke-miterlimit="10" fill="none" fill-rule="evenodd"/><path d="M839.79 1794.56 2768.83 1794.56" stroke="#000000" stroke-width="4.58333" stroke-linejoin="round" stroke-miterlimit="10" fill="none" fill-rule="evenodd"/><path d="M839.79 1928.39 2768.83 1928.39" stroke="#000000" stroke-width="4.58333" stroke-linejoin="round" stroke-miterlimit="10" fill="none" fill-rule="evenodd"/><path d="M839.79 2062.22 2768.83 2062.22" stroke="#000000" stroke-width="4.58333" stroke-linejoin="round" stroke-miterlimit="10" fill="none" fill-rule="evenodd"/><path d="M842.082 24.9301 842.082 2198.35" stroke="#000000" stroke-width="4.58333" stroke-linejoin="round" stroke-miterlimit="10" fill="none" fill-rule="evenodd"/><path d="M2766.54 24.9301 2766.54 2198.35" stroke="#000000" stroke-width="4.58333" stroke-linejoin="round" stroke-miterlimit="10" fill="none" fill-rule="evenodd"/><path d="M839.79 27.2218 2768.83 27.2218" stroke="#000000" stroke-width="4.58333" stroke-linejoin="round" stroke-miterlimit="10" fill="none" fill-rule="evenodd"/><path d="M839.79 2196.05 2768.83 2196.05" stroke="#000000" stroke-width="4.58333" stroke-linejoin="round" stroke-miterlimit="10" fill="none" fill-rule="evenodd"/><text fill="#FFFFFF" font-family="Arial,Arial_MSFontService,sans-serif" font-weight="700" font-size="83" transform="matrix(1 0 0 1 2406.43 124)">DCAI</text><text fill="#FFFFFF" font-family="Arial,Arial_MSFontService,sans-serif" font-weight="700" font-size="83" transform="matrix(1 0 0 1 2376.64 223)">Mod III</text><text fill="#FFFFFF" font-family="Arial,Arial_MSFontService,sans-serif" font-weight="700" font-size="83" transform="matrix(1 0 0 1 2422.47 322)">CSE</text><text fill="#FFFFFF" font-family="Arial,Arial_MSFontService,sans-serif" font-weight="700" font-size="83" transform="matrix(1 0 0 1 2360.59 421)">Francia</text><text fill="#FFFFFF" font-family="Arial,Arial_MSFontService,sans-serif" font-weight="700" font-size="83" transform="matrix(1 0 0 1 1887.87 124)">DCAI</text><text fill="#FFFFFF" font-family="Arial,Arial_MSFontService,sans-serif" font-weight="700" font-size="83" transform="matrix(1 0 0 1 1869.54 223)">Mod II</text><g><text fill="#FFFFFF" font-family="Arial,Arial_MSFontService,sans-serif" font-weight="700" font-size="83" transform="matrix(1 0 0 1 1767.56 322)">DTM + </text></g><g><text fill="#FFFFFF" font-family="Arial,Arial_MSFontService,sans-serif" font-weight="700" font-size="83" transform="matrix(1 0 0 1 2040.26 322)">CSE</text></g><text fill="#FFFFFF" font-family="Arial,Arial_MSFontService,sans-serif" font-weight="700" font-size="83" transform="matrix(1 0 0 1 1809.95 421)">Golfarelli</text><text fill="#FFFFFF" font-family="Arial,Arial_MSFontService,sans-serif" font-weight="700" font-size="83" transform="matrix(1 0 0 1 1300.42 124)">DM&amp;ML</text><text fill="#FFFFFF" font-family="Arial,Arial_MSFontService,sans-serif" font-weight="700" font-size="83" transform="matrix(1 0 0 1 1346.25 223)">Mod</text><text fill="#FFFFFF" font-family="Arial,Arial_MSFontService,sans-serif" font-weight="700" font-size="83" transform="matrix(1 0 0 1 1538.75 223)">I</text><text fill="#FFFFFF" font-family="Arial,Arial_MSFontService,sans-serif" font-weight="700" font-size="83" transform="matrix(1 0 0 1 1364.59 322)">DTM</text><text fill="#FFFFFF" font-family="Arial,Arial_MSFontService,sans-serif" font-weight="700" font-size="83" transform="matrix(1 0 0 1 1307.29 421)">Francia</text><g><text fill="#FFFFFF" font-family="Arial,Arial_MSFontService,sans-serif" font-weight="700" font-size="83" transform="matrix(1 0 0 1 886.54 322)">Month</text></g><text fill="#FFFFFF" font-family="Arial,Arial_MSFontService,sans-serif" font-weight="700" font-size="83" transform="matrix(1 0 0 1 903.315 421)">Week</text><text font-family="Arial,Arial_MSFontService,sans-serif" font-weight="400" font-size="83" transform="matrix(1 0 0 1 1293.54 553)">10 hours</text><text font-family="Arial,Arial_MSFontService,sans-serif" font-weight="400" font-size="83" transform="matrix(1 0 0 1 902.582 553)">Sep 3</text><text font-family="Arial,Arial_MSFontService,sans-serif" font-weight="400" font-size="83" transform="matrix(1 0 0 1 1293.54 687)">10 hours</text><text font-family="Arial,Arial_MSFontService,sans-serif" font-weight="400" font-size="83" transform="matrix(1 0 0 1 902.582 687)">Sep 4</text><text font-family="Arial,Arial_MSFontService,sans-serif" font-weight="400" font-size="83" transform="matrix(1 0 0 1 1293.54 820)">10 hours</text><text font-family="Arial,Arial_MSFontService,sans-serif" font-weight="400" font-size="83" transform="matrix(1 0 0 1 911.749 820)">Oct</text><text font-family="Arial,Arial_MSFontService,sans-serif" font-weight="400" font-size="83" transform="matrix(1 0 0 1 1063 820)">1</text><text font-family="Arial,Arial_MSFontService,sans-serif" font-weight="400" font-size="83" transform="matrix(1 0 0 1 2493.51 954)">-</text><text font-family="Arial,Arial_MSFontService,sans-serif" font-weight="400" font-size="83" transform="matrix(1 0 0 1 1974.95 954)">-</text><text font-family="Arial,Arial_MSFontService,sans-serif" font-weight="400" font-size="83" transform="matrix(1 0 0 1 1431.04 954)">?</text><text font-family="Arial,Arial_MSFontService,sans-serif" font-weight="400" font-size="83" transform="matrix(1 0 0 1 911.749 954)">Oct</text><text font-family="Arial,Arial_MSFontService,sans-serif" font-weight="400" font-size="83" transform="matrix(1 0 0 1 1063 954)">2</text><text font-family="Arial,Arial_MSFontService,sans-serif" font-weight="400" font-size="83" transform="matrix(1 0 0 1 2369.76 1088)">3</text><text font-family="Arial,Arial_MSFontService,sans-serif" font-weight="400" font-size="83" transform="matrix(1 0 0 1 2438.51 1088)">hours</text><text font-family="Arial,Arial_MSFontService,sans-serif" font-weight="400" font-size="83" transform="matrix(1 0 0 1 1851.2 1088)">7</text><text font-family="Arial,Arial_MSFontService,sans-serif" font-weight="400" font-size="83" transform="matrix(1 0 0 1 1919.95 1088)">hours</text><text font-family="Arial,Arial_MSFontService,sans-serif" font-weight="400" font-size="83" transform="matrix(1 0 0 1 911.749 1088)">Oct</text><text font-family="Arial,Arial_MSFontService,sans-serif" font-weight="400" font-size="83" transform="matrix(1 0 0 1 1063 1088)">3</text><text font-family="Arial,Arial_MSFontService,sans-serif" font-weight="400" font-size="83" transform="matrix(1 0 0 1 2369.76 1222)">3</text><text font-family="Arial,Arial_MSFontService,sans-serif" font-weight="400" font-size="83" transform="matrix(1 0 0 1 2438.51 1222)">hours</text><text font-family="Arial,Arial_MSFontService,sans-serif" font-weight="400" font-size="83" transform="matrix(1 0 0 1 1851.2 1222)">7</text><text font-family="Arial,Arial_MSFontService,sans-serif" font-weight="400" font-size="83" transform="matrix(1 0 0 1 1919.95 1222)">hours</text><text font-family="Arial,Arial_MSFontService,sans-serif" font-weight="400" font-size="83" transform="matrix(1 0 0 1 911.749 1222)">Oct</text><text font-family="Arial,Arial_MSFontService,sans-serif" font-weight="400" font-size="83" transform="matrix(1 0 0 1 1063 1222)">4</text><text font-family="Arial,Arial_MSFontService,sans-serif" font-weight="400" font-size="83" transform="matrix(1 0 0 1 2369.76 1356)">3</text><text font-family="Arial,Arial_MSFontService,sans-serif" font-weight="400" font-size="83" transform="matrix(1 0 0 1 2438.51 1356)">hours</text><text font-family="Arial,Arial_MSFontService,sans-serif" font-weight="400" font-size="83" transform="matrix(1 0 0 1 1851.2 1356)">7</text><text font-family="Arial,Arial_MSFontService,sans-serif" font-weight="400" font-size="83" transform="matrix(1 0 0 1 1919.95 1356)">hours</text><text font-family="Arial,Arial_MSFontService,sans-serif" font-weight="400" font-size="83" transform="matrix(1 0 0 1 902.582 1356)">Nov</text><text font-family="Arial,Arial_MSFontService,sans-serif" font-weight="400" font-size="83" transform="matrix(1 0 0 1 1072.17 1356)">1</text><text font-family="Arial,Arial_MSFontService,sans-serif" font-weight="400" font-size="83" transform="matrix(1 0 0 1 2369.76 1490)">3</text><text font-family="Arial,Arial_MSFontService,sans-serif" font-weight="400" font-size="83" transform="matrix(1 0 0 1 2438.51 1490)">hours</text><text font-family="Arial,Arial_MSFontService,sans-serif" font-weight="400" font-size="83" transform="matrix(1 0 0 1 1851.2 1490)">7</text><text font-family="Arial,Arial_MSFontService,sans-serif" font-weight="400" font-size="83" transform="matrix(1 0 0 1 1919.95 1490)">hours</text><text font-family="Arial,Arial_MSFontService,sans-serif" font-weight="400" font-size="83" transform="matrix(1 0 0 1 902.582 1490)">Nov</text><text font-family="Arial,Arial_MSFontService,sans-serif" font-weight="400" font-size="83" transform="matrix(1 0 0 1 1072.17 1490)">2</text><text font-family="Arial,Arial_MSFontService,sans-serif" font-weight="400" font-size="83" transform="matrix(1 0 0 1 2369.76 1623)">3</text><text font-family="Arial,Arial_MSFontService,sans-serif" font-weight="400" font-size="83" transform="matrix(1 0 0 1 2438.51 1623)">hours</text><text font-family="Arial,Arial_MSFontService,sans-serif" font-weight="400" font-size="83" transform="matrix(1 0 0 1 1851.2 1623)">2</text><text font-family="Arial,Arial_MSFontService,sans-serif" font-weight="400" font-size="83" transform="matrix(1 0 0 1 1919.95 1623)">hours</text><text font-family="Arial,Arial_MSFontService,sans-serif" font-weight="400" font-size="83" transform="matrix(1 0 0 1 902.582 1623)">Nov</text><text font-family="Arial,Arial_MSFontService,sans-serif" font-weight="400" font-size="83" transform="matrix(1 0 0 1 1072.17 1623)">3</text><text font-family="Arial,Arial_MSFontService,sans-serif" font-weight="400" font-size="83" transform="matrix(1 0 0 1 2369.76 1757)">5 hours</text><text font-family="Arial,Arial_MSFontService,sans-serif" font-weight="400" font-size="83" transform="matrix(1 0 0 1 902.582 1757)">Nov</text><text font-family="Arial,Arial_MSFontService,sans-serif" font-weight="400" font-size="83" transform="matrix(1 0 0 1 1072.17 1757)">4</text><text font-family="Arial,Arial_MSFontService,sans-serif" font-weight="400" font-size="83" transform="matrix(1 0 0 1 2369.76 1891)">5 hours</text><text font-family="Arial,Arial_MSFontService,sans-serif" font-weight="400" font-size="83" transform="matrix(1 0 0 1 902.582 1891)">Dec</text><text font-family="Arial,Arial_MSFontService,sans-serif" font-weight="400" font-size="83" transform="matrix(1 0 0 1 1072.17 1891)">1</text><text font-family="Arial,Arial_MSFontService,sans-serif" font-weight="400" font-size="83" transform="matrix(1 0 0 1 2369.76 2025)">5 hours</text><text font-family="Arial,Arial_MSFontService,sans-serif" font-weight="400" font-size="83" transform="matrix(1 0 0 1 902.582 2025)">Dec</text><text font-family="Arial,Arial_MSFontService,sans-serif" font-weight="400" font-size="83" transform="matrix(1 0 0 1 1072.17 2025)">2</text><text font-family="Arial,Arial_MSFontService,sans-serif" font-weight="400" font-size="83" transform="matrix(1 0 0 1 902.582 2159)">Dec</text><text font-family="Arial,Arial_MSFontService,sans-serif" font-weight="400" font-size="83" transform="matrix(1 0 0 1 1072.17 2159)">3</text></g></svg>