<?xml version="1.0" encoding="UTF-8" standalone="no"?>
<!-- Created with Inkscape (http://www.inkscape.org/) -->

<svg
   width="338.53439mm"
   height="47.095833mm"
   viewBox="0 0 338.53439 47.095831"
   version="1.1"
   id="svg1"
   inkscape:version="1.4.2 (ebf0e94, 2025-05-08)"
   sodipodi:docname="Immagine16.svg"
   xmlns:inkscape="http://www.inkscape.org/namespaces/inkscape"
   xmlns:sodipodi="http://sodipodi.sourceforge.net/DTD/sodipodi-0.dtd"
   xmlns="http://www.w3.org/2000/svg"
   xmlns:svg="http://www.w3.org/2000/svg">
  <sodipodi:namedview
     id="namedview1"
     pagecolor="#ffffff"
     bordercolor="#000000"
     borderopacity="0.25"
     inkscape:showpageshadow="2"
     inkscape:pageopacity="0.0"
     inkscape:pagecheckerboard="0"
     inkscape:deskcolor="#d1d1d1"
     inkscape:document-units="mm"
     inkscape:zoom="1.6168981"
     inkscape:cx="536.21188"
     inkscape:cy="298.10165"
     inkscape:window-width="1436"
     inkscape:window-height="1501"
     inkscape:window-x="8631"
     inkscape:window-y="1611"
     inkscape:window-maximized="0"
     inkscape:current-layer="layer1" />
  <defs
     id="defs1">
    <clipPath
       id="clip0">
      <rect
         x="499"
         y="484"
         width="900"
         height="432"
         id="rect1" />
    </clipPath>
    <clipPath
       id="clip0-4">
      <rect
         x="450"
         y="653"
         width="1058"
         height="216"
         id="rect1-8" />
    </clipPath>
    <clipPath
       id="clip0-2">
      <rect
         x="326"
         y="560"
         width="1280"
         height="178"
         id="rect1-4" />
    </clipPath>
  </defs>
  <g
     inkscape:label="Layer 1"
     inkscape:groupmode="layer"
     id="layer1"
     transform="translate(36.909391,-69.585412)">
    <g
       clip-path="url(#clip0-2)"
       transform="matrix(0.26458333,0,0,0.26458333,-123.29583,-78.581253)"
       id="g11">
      <path
         d="m 409.5,562.5 c -10.759,0.753 -21.711,0.376 -32.278,2.258 -2.69,0.565 -5.379,2.258 -6.916,4.516 -0.769,1.317 -10.568,24.086 -11.528,27.097 0.768,9.032 1.153,18.064 2.305,27.097 1.922,13.736 15.755,23.145 23.056,33.871 3.458,13.736 6.34,20.887 0,38.387 -1.153,3.011 -6.148,1.693 -9.222,2.258 -15.947,3.199 -32.278,4.516 -48.417,4.516"
         stroke="#99cc00"
         stroke-width="3"
         stroke-linejoin="round"
         stroke-miterlimit="10"
         stroke-dasharray="24, 9, 3, 9, 3, 9"
         fill="none"
         fill-rule="evenodd"
         id="path1" />
      <path
         d="m 444.5,582.5 c -10.889,0.753 -21.972,0.376 -32.667,2.258 -2.722,0.565 -5.444,2.258 -7,4.516 -0.777,1.317 -10.694,24.086 -11.666,27.097 0.777,9.032 1.166,18.064 2.333,27.097 1.944,13.736 15.944,23.145 23.333,33.871 3.5,13.736 6.417,20.887 0,38.387 -1.166,3.011 -6.222,1.693 -9.333,2.258 -16.139,3.199 -32.667,4.516 -49,4.516"
         stroke="#000066"
         stroke-width="3"
         stroke-linecap="round"
         stroke-linejoin="round"
         stroke-miterlimit="10"
         stroke-dasharray="0, 6"
         fill="none"
         fill-rule="evenodd"
         id="path2" />
      <path
         d="m 485.5,596.5 c -10.759,0.753 -21.711,0.376 -32.278,2.258 -2.69,0.565 -5.379,2.258 -6.916,4.516 -0.769,1.317 -10.568,24.086 -11.528,27.097 0.768,9.032 1.153,18.064 2.305,27.097 1.922,13.736 15.755,23.145 23.056,33.871 3.458,13.736 6.34,20.887 0,38.387 -1.153,3.011 -6.148,1.693 -9.222,2.258 -15.947,3.199 -32.278,4.516 -48.417,4.516"
         stroke="#ff7c80"
         stroke-width="3"
         stroke-linejoin="round"
         stroke-miterlimit="10"
         stroke-dasharray="12, 9"
         fill="none"
         fill-rule="evenodd"
         id="path3" />
      <path
         d="m 706,643.5 c 0,-11.322 9.402,-20.5 21,-20.5 11.598,0 21,9.178 21,20.5 0,11.322 -9.402,20.5 -21,20.5 -11.598,0 -21,-9.178 -21,-20.5 z"
         fill="#00ccff"
         fill-rule="evenodd"
         id="path4" />
      <path
         d="m 752.2,681.073 c -10.8,3.511 -22.9,5.344 -35.2,5.344 -40.688,0 -73.65,-19.655 -73.65,-43.917 0,-24.254 32.962,-43.917 73.65,-43.917 12.3,0 24.4,1.841 35.2,5.352 l 29.337,-32.133 C 761.737,565.369 739.537,562 717,562 c -74.562,0 -135,36.046 -135,80.5 0,44.461 60.438,80.5 135,80.5 22.537,0.007 44.737,-3.362 64.537,-9.794 z"
         fill="#9dbfbe"
         fill-rule="evenodd"
         id="path5" />
      <path
         d="m 810,643.5 c 0,-11.322 9.402,-20.5 21,-20.5 11.598,0 21,9.178 21,20.5 0,11.322 -9.402,20.5 -21,20.5 -11.598,0 -21,-9.178 -21,-20.5 z"
         fill="#00ccff"
         fill-rule="evenodd"
         id="path6" />
      <path
         d="m 748.5,643.5 h 62"
         stroke="#00ccff"
         stroke-width="3"
         stroke-linejoin="round"
         stroke-miterlimit="10"
         stroke-dasharray="3, 3"
         fill="none"
         fill-rule="evenodd"
         id="path7" />
      <path
         d="m 1350,641 c 0,-29.823 26.19,-54 58.5,-54 32.31,0 58.5,24.177 58.5,54 0,29.823 -26.19,54 -58.5,54 -32.31,0 -58.5,-24.177 -58.5,-54 z"
         fill="#00ff00"
         fill-rule="evenodd"
         id="path8" />
      <path
         d="m 1489,641 c 0,-29.823 26.19,-54 58.5,-54 32.31,0 58.5,24.177 58.5,54 0,29.823 -26.19,54 -58.5,54 -32.31,0 -58.5,-24.177 -58.5,-54 z"
         fill="#ffcc00"
         fill-rule="evenodd"
         id="path9" />
      <path
         d="m 962,627.5 c 0,-37.279 31.116,-67.5 69.5,-67.5 38.38,0 69.5,30.221 69.5,67.5 0,37.279 -31.12,67.5 -69.5,67.5 -38.384,0 -69.5,-30.221 -69.5,-67.5 z"
         fill="#3366ff"
         fill-rule="evenodd"
         id="path10" />
      <path
         d="m 1087,627.5 c 0,-37.279 30.89,-67.5 69,-67.5 38.11,0 69,30.221 69,67.5 0,37.279 -30.89,67.5 -69,67.5 -38.11,0 -69,-30.221 -69,-67.5 z"
         fill="#3366ff"
         fill-rule="evenodd"
         id="path11" />
    </g>
  </g>
</svg>
