<?xml version="1.0" encoding="UTF-8" standalone="no"?>
<svg
   version="1.1"
   width="1842"
   height="465.56088"
   viewBox="-0.5 -0.5 1842 465.56088"
   id="svg23"
   sodipodi:docname="pipeline.svg"
   inkscape:version="1.3.2 (091e20e, 2023-11-25, custom)"
   xmlns:inkscape="http://www.inkscape.org/namespaces/inkscape"
   xmlns:sodipodi="http://sodipodi.sourceforge.net/DTD/sodipodi-0.dtd"
   xmlns="http://www.w3.org/2000/svg"
   xmlns:svg="http://www.w3.org/2000/svg">
  <sodipodi:namedview
     id="namedview23"
     pagecolor="#ffffff"
     bordercolor="#000000"
     borderopacity="0.25"
     inkscape:showpageshadow="2"
     inkscape:pageopacity="0.0"
     inkscape:pagecheckerboard="0"
     inkscape:deskcolor="#d1d1d1"
     inkscape:zoom="0.88213257"
     inkscape:cx="1135.3169"
     inkscape:cy="122.99739"
     inkscape:window-width="3840"
     inkscape:window-height="2066"
     inkscape:window-x="2869"
     inkscape:window-y="-11"
     inkscape:window-maximized="1"
     inkscape:current-layer="svg23" />
  <defs
     id="defs1">
    <clipPath
       id="clip0">
      <rect
         x="20"
         y="323"
         width="1858"
         height="488"
         id="rect1" />
    </clipPath>
  </defs>
  <g
     clip-path="url(#clip0)"
     transform="translate(-27.5,-345.86719)"
     id="g27">
    <path
       d="m 514,391.499 c 25.681,0 46.5,20.81 46.5,46.48 v 322.04 c 0,25.671 -20.819,46.48 -46.5,46.48 H 297 c -25.681,0 -46.5,-20.809 -46.5,-46.48 v -322.04 c 0,-25.67 20.819,-46.48 46.5,-46.48 z"
       stroke="#ffffff"
       stroke-width="8.85811"
       stroke-miterlimit="8"
       fill="#ffc001"
       fill-rule="evenodd"
       id="path1" />
    <text
       fill="#ffffff"
       font-family="Arial, Arial_MSFontService, sans-serif"
       font-weight="700"
       font-size="32px"
       transform="translate(276.263,458)"
       id="text1">Feat. Engineering</text>
    <path
       d="M 272,484.999 H 538"
       stroke="#ffffff"
       stroke-width="2.21449"
       stroke-miterlimit="8"
       fill="none"
       fill-rule="evenodd"
       id="path2" />
    <path
       d="m 824,391.499 c 25.681,0 46.5,20.81 46.5,46.48 v 322.04 c 0,25.671 -20.819,46.48 -46.5,46.48 H 607 c -25.681,0 -46.5,-20.809 -46.5,-46.48 v -322.04 c 0,-25.67 20.819,-46.48 46.5,-46.48 z"
       stroke="#ffffff"
       stroke-width="8.85811"
       stroke-miterlimit="8"
       fill="#ffb001"
       fill-rule="evenodd"
       id="path3" />
    <text
       fill="#ffffff"
       font-family="Arial, Arial_MSFontService, sans-serif"
       font-weight="700"
       font-size="32px"
       transform="translate(612.318,458)"
       id="text3">Normalization</text>
    <path
       d="M 582,484.999 H 848"
       stroke="#ffffff"
       stroke-width="2.21449"
       stroke-miterlimit="8"
       fill="none"
       fill-rule="evenodd"
       id="path4" />
    <path
       d="m 1134,391.499 c 25.68,0 46.5,20.81 46.5,46.48 v 322.04 c 0,25.671 -20.82,46.48 -46.5,46.48 H 917 c -25.681,0 -46.5,-20.809 -46.5,-46.48 v -322.04 c 0,-25.67 20.819,-46.48 46.5,-46.48 z"
       stroke="#ffffff"
       stroke-width="8.85811"
       stroke-miterlimit="8"
       fill="#fe9900"
       fill-rule="evenodd"
       id="path5" />
    <text
       fill="#ffffff"
       font-family="Arial, Arial_MSFontService, sans-serif"
       font-weight="700"
       font-size="32px"
       transform="translate(906.851,458)"
       id="text5">Outlier Removal</text>
    <path
       d="m 892,484.999 h 266"
       stroke="#ffffff"
       stroke-width="2.21449"
       stroke-miterlimit="8"
       fill="none"
       fill-rule="evenodd"
       id="path6" />
    <path
       d="m 1085.5,565.499 c 0,35.347 -28.43,64 -63.5,64 -35.07,0 -63.5,-28.653 -63.5,-64 0,-35.346 28.43,-64 63.5,-64 35.07,0 63.5,28.654 63.5,64 z"
       stroke="#ffffff"
       stroke-width="6.64362"
       stroke-miterlimit="8"
       fill="#68b85c"
       fill-rule="evenodd"
       id="path7" />
    <text
       fill="#ffffff"
       font-family="Arial, Arial_MSFontService, sans-serif"
       font-weight="400"
       font-size="24px"
       transform="translate(984.68,573)"
       id="text7">Local...</text>
    <path
       d="m 1569.85,391.499 c 25.76,0 46.65,20.81 46.65,46.48 v 322.04 c 0,25.671 -20.89,46.48 -46.65,46.48 h -217.7 c -25.76,0 -46.65,-20.809 -46.65,-46.48 v -322.04 c 0,-25.67 20.89,-46.48 46.65,-46.48 z"
       stroke="#ffffff"
       stroke-width="8.85811"
       stroke-miterlimit="8"
       fill="#0066cc"
       fill-rule="evenodd"
       id="path8" />
    <text
       fill="#ffffff"
       font-family="Arial, Arial_MSFontService, sans-serif"
       font-weight="700"
       font-size="32px"
       transform="translate(1361.94,458)"
       id="text8">ML Algorithm</text>
    <path
       d="m 1328,484.999 h 265"
       stroke="#ffffff"
       stroke-width="2.21449"
       stroke-miterlimit="8"
       fill="none"
       fill-rule="evenodd"
       id="path9" />
    <path
       d="m 1523.5,571.999 c 0,35.07 -28.43,63.5 -63.5,63.5 -35.07,0 -63.5,-28.43 -63.5,-63.5 0,-35.07 28.43,-63.5 63.5,-63.5 35.07,0 63.5,28.43 63.5,63.5 z"
       stroke="#ffffff"
       stroke-width="6.64362"
       stroke-miterlimit="8"
       fill="#68b85c"
       fill-rule="evenodd"
       id="path10" />
    <text
       fill="#ffffff"
       font-family="Arial, Arial_MSFontService, sans-serif"
       font-weight="400"
       font-size="24px"
       transform="translate(1415.11,579)"
       id="text13">K-Means<tspan
   fill="#ff8000"
   font-size="40px"
   x="-835.57501"
   y="-204"
   id="tspan10">Pre</tspan><tspan
   fill="#ff8000"
   font-size="40px"
   x="-773.32501"
   y="-204"
   id="tspan11">-</tspan><tspan
   fill="#ff8000"
   font-size="40px"
   x="-760.07501"
   y="-204"
   id="tspan12">processing</tspan><tspan
   fill="#0066cc"
   font-size="40px"
   x="-36.343498"
   y="-205"
   id="tspan13">Modeling</tspan></text>
    <path
       d="m 778.5,565.499 c 0,35.347 -28.654,64 -64,64 -35.346,0 -64,-28.653 -64,-64 0,-35.346 28.654,-64 64,-64 35.346,0 64,28.654 64,64 z"
       stroke="#ffffff"
       stroke-width="6.64362"
       stroke-miterlimit="8"
       fill="#68b85c"
       fill-rule="evenodd"
       id="path13" />
    <text
       fill="#ffffff"
       font-family="Arial, Arial_MSFontService, sans-serif"
       font-weight="400"
       font-size="24px"
       transform="translate(669.032,573)"
       id="text14">Standard</text>
    <path
       d="m 469.5,635.499 c 0,35.347 -28.43,64 -63.5,64 -35.07,0 -63.5,-28.653 -63.5,-64 0,-35.346 28.43,-64 63.5,-64 35.07,0 63.5,28.654 63.5,64 z"
       stroke="#ffffff"
       stroke-width="6.64362"
       stroke-miterlimit="8"
       fill="#68b85c"
       fill-rule="evenodd"
       id="path14" />
    <text
       fill="#ffffff"
       font-family="Arial, Arial_MSFontService, sans-serif"
       font-weight="400"
       font-size="24px"
       transform="translate(375.363,643)"
       id="text15">SPEC</text>
    <path
       d="m 171.5,615.699 99.692,6.6 -11.077,-19.8 55.385,33 -55.385,33 11.077,-19.8 -99.692,6.6 16.615,-19.8 z"
       stroke="#82b366"
       stroke-width="1.10724"
       stroke-miterlimit="8"
       fill="#d5e8d4"
       fill-rule="evenodd"
       id="path15" />
    <path
       d="m 489.5,615.699 99.692,6.6 -11.077,-19.8 55.385,33 -55.385,33 11.077,-19.8 -99.692,6.6 16.615,-19.8 z"
       stroke="#82b366"
       stroke-width="1.10724"
       stroke-miterlimit="8"
       fill="#d5e8d4"
       fill-rule="evenodd"
       id="path16" />
    <path
       d="m 802.5,615.699 99.692,6.6 -11.077,-19.8 55.385,33 -55.385,33 11.077,-19.8 -99.692,6.6 16.615,-19.8 z"
       stroke="#82b366"
       stroke-width="1.10724"
       stroke-miterlimit="8"
       fill="#d5e8d4"
       fill-rule="evenodd"
       id="path17" />
    <path
       d="m 1107.5,606.899 221.67,6.7 -11.09,-20.1 55.42,33.5 -55.42,33.5 11.09,-20.1 -221.67,6.7 16.62,-20.1 z"
       stroke="#82b366"
       stroke-width="1.10724"
       stroke-miterlimit="8"
       fill="#d5e8d4"
       fill-rule="evenodd"
       id="path18" />
    <path
       d="M 1744.65,698.999 V 621.827 L 1732,636.016 v -51.84 l 12.65,14.123 v -43.3 h 111.64 v 43.333 L 1869,584.076 v 51.973 l -12.71,-14.256 v 77.206 z"
       fill="#a680b8"
       fill-rule="evenodd"
       id="path19" />
    <path
       d="m 1745,691.999 h 112 v 7 h -112 z"
       fill="#000000"
       fill-rule="evenodd"
       fill-opacity="0.301961"
       id="path20" />
    <path
       d="m 1748.23,609.531 -11.15,-12.628 v 25.223 z m 6.87,-0.033 -23.1,26.08 v -52.026 z m 97.7,0 11.12,12.628 v -25.19 z m -6.9,0.033 23.1,-26.079 v 52.159 z m -88.53,-28.592 v -12.94 h 86.26 v 12.94 z m 0,19.61 v -12.94 h 86.26 v 12.94 z m 0,19.61 v -12.896 h 86.26 v 12.896 z m 0,19.621 v -12.907 h 86.26 v 12.907 z m 0,19.61 v -12.94 h 86.26 v 12.94 z m 0,19.609 V 666.06 h 86.26 v 12.939 z"
       fill="#ffffff"
       fill-rule="evenodd"
       id="path21" />
    <text
       font-family="Arial, Arial_MSFontService, sans-serif"
       font-weight="400"
       font-size="40px"
       transform="translate(1740.18,745)"
       id="text21">Result</text>
    <path
       d="m 154,561.765 v 7.651 c 0,3.71 -12.808,9.141 -24.102,11.559 -23.948,5.311 -58.6269,5.278 -83.6911,-1.347 C 38.2611,577.564 27,573.015 27,568.919 v -7.198 c 0,-4.129 12.0347,-9.064 20.522,-11.018 28.8768,-7 62.284,-5.465 85.614,-0.111 8.984,2.33 20.864,6.768 20.864,11.173 z m 0,131.69 c 0,3.257 -5.172,5.63 -10.068,7.882 -7.205,3.567 -25.263,7.662 -46.6245,7.662 -19.0522,0 -37.4082,-1.192 -54.3827,-6.359 C 34.7468,700.046 27,695.95 27,693.576 V 577.531 c 4.553,3.091 11.3054,5.73 17.3945,7.375 26.9981,7.386 66.6055,6.282 87.4705,0.883 7.636,-1.91 15.814,-4.626 22.135,-9.373 z"
       fill="#b3b3b3"
       fill-rule="evenodd"
       id="path22" />
    <path
       d="m 154,562.043 v 7.637 c 0,3.747 -12.764,9.124 -24.102,11.537 -24.026,5.301 -58.6269,5.301 -83.6911,-1.344 C 38.2611,577.779 27,573.228 27,569.184 v -7.185 c 0.42,4.926 13.9244,9.4 20.7873,11.152 20.1352,5.388 55.4547,6.799 81.8007,0.992 10.687,-2.59 23.992,-6.942 24.412,-12.1 z m 0,123.198 v 8.242 c 0,3.251 -5.172,5.62 -10.068,7.868 -7.249,3.56 -25.296,7.648 -46.6245,7.648 -19.0522,0.033 -37.4523,-1.223 -54.3827,-6.347 C 34.7468,700.062 27,695.974 27,693.605 v -7.758 c 0.5415,4.242 15.2285,9.289 21.1741,10.656 14.6539,3.669 30.8107,4.738 45.9287,4.738 14.3882,0 34.0932,-1.179 48.5922,-6.876 5.371,-2.138 11.305,-5.73 11.305,-9.124 z"
       fill="#000000"
       fill-rule="evenodd"
       fill-opacity="0.301961"
       id="path23" />
    <text
       fill="#0066cc"
       font-family="Arial, Arial_MSFontService, sans-serif"
       font-weight="400"
       font-size="40px"
       transform="translate(44.8539,756)"
       id="text23">Data</text>
    <path
       d="m 1572.5,606.899 99.69,6.7 -11.07,-20.1 55.38,33.5 -55.38,33.5 11.07,-20.1 -99.69,6.7 16.62,-20.1 z"
       stroke="#82b366"
       stroke-width="1.10724"
       stroke-miterlimit="8"
       fill="#d5e8d4"
       fill-rule="evenodd"
       id="path24" />
    <path
       d="m 782.5,714.999 c 0,35.07 -28.43,63.5 -63.5,63.5 -35.07,0 -63.5,-28.43 -63.5,-63.5 0,-35.07 28.43,-63.5 63.5,-63.5 35.07,0 63.5,28.43 63.5,63.5 z"
       stroke="#ffffff"
       stroke-width="6.64362"
       stroke-miterlimit="8"
       fill="#68b85c"
       fill-rule="evenodd"
       id="path25" />
    <text
       fill="#ffffff"
       font-family="Arial, Arial_MSFontService, sans-serif"
       font-weight="400"
       font-size="24px"
       transform="translate(676.274,723)"
       id="text25">MinMax</text>
    <path
       d="m 1087.5,713.999 c 0,35.07 -28.43,63.5 -63.5,63.5 -35.07,0 -63.5,-28.43 -63.5,-63.5 0,-35.07 28.43,-63.5 63.5,-63.5 35.07,0 63.5,28.43 63.5,63.5 z"
       stroke="#ffffff"
       stroke-width="6.64362"
       stroke-miterlimit="8"
       fill="#68b85c"
       fill-rule="evenodd"
       id="path26" />
    <text
       fill="#ffffff"
       font-family="Arial, Arial_MSFontService, sans-serif"
       font-weight="400"
       font-size="24px"
       transform="translate(980.912,709)"
       id="text26">Isolation<tspan
   font-size="24px"
   x="10.5"
   y="29"
   id="tspan26">Forest</tspan></text>
    <path
       d="m 1523.5,714.999 c 0,35.07 -28.43,63.5 -63.5,63.5 -35.07,0 -63.5,-28.43 -63.5,-63.5 0,-35.07 28.43,-63.5 63.5,-63.5 35.07,0 63.5,28.43 63.5,63.5 z"
       stroke="#ffffff"
       stroke-width="6.64362"
       stroke-miterlimit="8"
       fill="#68b85c"
       fill-rule="evenodd"
       id="path27" />
    <text
       fill="#ffffff"
       font-family="Arial, Arial_MSFontService, sans-serif"
       font-weight="400"
       font-size="24px"
       transform="translate(1418.86,723)"
       id="text27">DBScan</text>
  </g>
</svg>
