<?xml version="1.0" encoding="UTF-8" standalone="no"?>
<!-- Created with Inkscape (http://www.inkscape.org/) -->

<svg
   width="376.27927mm"
   height="230.98734mm"
   viewBox="0 0 376.27926 230.98734"
   version="1.1"
   id="svg1"
   inkscape:version="1.3.2 (091e20e, 2023-11-25, custom)"
   sodipodi:docname="mlloop.svg"
   xmlns:inkscape="http://www.inkscape.org/namespaces/inkscape"
   xmlns:sodipodi="http://sodipodi.sourceforge.net/DTD/sodipodi-0.dtd"
   xmlns="http://www.w3.org/2000/svg"
   xmlns:svg="http://www.w3.org/2000/svg">
  <sodipodi:namedview
     id="namedview1"
     pagecolor="#ffffff"
     bordercolor="#000000"
     borderopacity="0.25"
     inkscape:showpageshadow="2"
     inkscape:pageopacity="0.0"
     inkscape:pagecheckerboard="0"
     inkscape:deskcolor="#d1d1d1"
     inkscape:document-units="mm"
     inkscape:zoom="1.1500912"
     inkscape:cx="283.02103"
     inkscape:cy="-189.11544"
     inkscape:window-width="3840"
     inkscape:window-height="2054"
     inkscape:window-x="2869"
     inkscape:window-y="-11"
     inkscape:window-maximized="1"
     inkscape:current-layer="layer1" />
  <defs
     id="defs1">
    <clipPath
       id="clip0">
      <rect
         x="563"
         y="234"
         width="869"
         height="702"
         id="rect1" />
    </clipPath>
    <clipPath
       id="clip0-9">
      <rect
         x="100"
         y="140"
         width="1517"
         height="899"
         id="rect1-9" />
    </clipPath>
    <clipPath
       id="clip1">
      <rect
         x="758"
         y="176"
         width="284"
         height="283"
         id="rect2" />
    </clipPath>
    <clipPath
       id="clip2">
      <rect
         x="758"
         y="176"
         width="284"
         height="283"
         id="rect3" />
    </clipPath>
    <clipPath
       id="clip3">
      <rect
         x="758"
         y="176"
         width="284"
         height="283"
         id="rect4" />
    </clipPath>
    <clipPath
       id="clip4">
      <rect
         x="1152"
         y="245"
         width="144"
         height="144"
         id="rect5" />
    </clipPath>
    <clipPath
       id="clip5">
      <rect
         x="1152"
         y="245"
         width="144"
         height="144"
         id="rect6" />
    </clipPath>
    <clipPath
       id="clip6">
      <rect
         x="1152"
         y="245"
         width="144"
         height="144"
         id="rect7" />
    </clipPath>
    <clipPath
       id="clip7">
      <rect
         x="828"
         y="475"
         width="144"
         height="144"
         id="rect8" />
    </clipPath>
    <clipPath
       id="clip8">
      <rect
         x="828"
         y="475"
         width="144"
         height="144"
         id="rect9" />
    </clipPath>
    <clipPath
       id="clip9">
      <rect
         x="828"
         y="475"
         width="144"
         height="144"
         id="rect10" />
    </clipPath>
    <clipPath
       id="clip10">
      <rect
         x="828"
         y="766"
         width="144"
         height="144"
         id="rect11" />
    </clipPath>
    <clipPath
       id="clip11">
      <rect
         x="828"
         y="766"
         width="144"
         height="144"
         id="rect12" />
    </clipPath>
    <clipPath
       id="clip12">
      <rect
         x="828"
         y="766"
         width="144"
         height="144"
         id="rect13" />
    </clipPath>
    <clipPath
       id="clip13">
      <rect
         x="436"
         y="808"
         width="144"
         height="144"
         id="rect14" />
    </clipPath>
    <clipPath
       id="clip14">
      <rect
         x="436"
         y="808"
         width="144"
         height="144"
         id="rect15" />
    </clipPath>
    <clipPath
       id="clip15">
      <rect
         x="436"
         y="808"
         width="144"
         height="144"
         id="rect16" />
    </clipPath>
    <clipPath
       id="clip16">
      <rect
         x="562"
         y="766"
         width="144"
         height="144"
         id="rect17" />
    </clipPath>
    <clipPath
       id="clip17">
      <rect
         x="562"
         y="766"
         width="144"
         height="144"
         id="rect18" />
    </clipPath>
    <clipPath
       id="clip18">
      <rect
         x="562"
         y="766"
         width="144"
         height="144"
         id="rect19" />
    </clipPath>
  </defs>
  <g
     inkscape:label="Layer 1"
     inkscape:groupmode="layer"
     id="layer1"
     transform="translate(-30.118579,-198.53064)">
    <g
       clip-path="url(#clip0-9)"
       transform="matrix(0.26458333,0,0,0.26458333,3.4395833,161.39584)"
       id="g251">
      <g
         clip-path="url(#clip1)"
         id="g23">
        <g
           clip-path="url(#clip2)"
           id="g22">
          <g
             clip-path="url(#clip3)"
             id="g21">
            <path
               d="m 231.476,138.971 c 0.02,-11.157 -2.156,-22.208 -6.403,-32.525 -0.62,-1.506 -2.343,-2.224 -3.85,-1.603 -1.506,0.62 -2.223,2.344 -1.603,3.85 16.696,40.694 -2.759,87.218 -43.453,103.914 -4.384,1.799 -8.92,3.202 -13.554,4.195 -0.038,0 -0.053,0 -0.035,-0.045 l 11.756,-20.782 c 0.899,-1.357 0.528,-3.187 -0.828,-4.086 -1.357,-0.9 -3.187,-0.529 -4.086,0.828 -0.079,0.119 -0.149,0.243 -0.21,0.372 l -14.943,26.422 c -0.801,1.417 -0.301,3.216 1.116,4.017 10e-4,0 10e-4,0 0.002,0.001 l 26.372,14.913 c 1.407,0.819 3.212,0.343 4.031,-1.064 0.819,-1.407 0.343,-3.211 -1.064,-4.031 -0.022,-0.012 -0.044,-0.025 -0.066,-0.037 l -19.404,-10.972 c -0.035,-0.021 -0.029,-0.044 0,-0.053 38.702,-9.089 66.101,-43.56 66.222,-83.314 z"
               transform="matrix(1.00353,0,0,1,758,176)"
               id="path19" />
            <path
               d="m 135.413,217.851 c -10.295,-1.375 -20.218,-4.765 -29.203,-9.976 -32.3986,-18.845 -47.3445,-57.677 -35.9405,-93.381 0,-0.035 0.0354,-0.038 0.0531,0 l 12.0717,20.565 c 0.8263,1.403 2.6336,1.871 4.0371,1.045 1.4036,-0.826 1.8714,-2.634 1.0451,-4.037 L 72.1119,105.886 c -0.8242,-1.404 -2.6304,-1.874 -4.0345,-1.05 -3e-4,0 -9e-4,0 -0.0012,0.001 l -26.1303,15.329 c -1.4041,0.824 -1.874,2.632 -1.0494,4.036 0.8245,1.404 2.6316,1.874 4.0356,1.049 l 19.2617,-11.305 c 0.0354,-0.021 0.0531,0 0.0413,0.032 -13.7721,45.201 11.7056,93.008 56.9059,106.78 4.409,1.343 8.92,2.328 13.487,2.945 0.132,0.017 0.265,0.026 0.398,0.026 1.629,0.008 2.955,-1.305 2.962,-2.933 0.008,-1.49 -1.098,-2.751 -2.575,-2.939 z"
               transform="matrix(1.00353,0,0,1,758,176)"
               id="path20" />
            <path
               d="m 204.96,85.5309 c 0.026,0.0265 0.017,0.0501 -0.021,0.0501 l -23.704,0.1179 c -1.628,0.0041 -2.945,1.3271 -2.941,2.9553 0.005,1.6281 1.328,2.9446 2.956,2.9405 v 0 l 30.363,-0.1503 c 1.628,0 2.948,-1.3198 2.948,-2.9479 L 214.402,58.186 c 0.063,-1.5651 -1.154,-2.8849 -2.719,-2.9479 -0.077,-0.003 -0.153,-0.003 -0.229,0 -1.628,0 -2.948,1.3197 -2.948,2.9479 0,0.005 0,0.0097 0,0.0147 l 0.112,22.4366 c 0,0.0413 -0.02,0.0501 -0.05,0.0207 C 181.36,51.6354 137.776,45.1093 103.26,64.8895 93.5872,70.4517 85.1049,77.8642 78.2967,86.7041 c -0.9876,1.2945 -0.7385,3.1443 0.5559,4.1318 1.2853,0.9802 3.1201,0.7429 4.1136,-0.5324 6.3389,-8.227 14.2363,-15.1248 23.2418,-20.2993 32.487,-18.6123 73.543,-12.1569 98.752,15.5267 z"
               transform="matrix(1.00353,0,0,1,758,176)"
               id="path21" />
          </g>
        </g>
      </g>
      <path
         d="M 148,361.167 C 148,342.297 195.01,327 253,327 c 57.99,0 105,15.297 105,34.167 V 497.833 C 358,516.703 310.99,532 253,532 195.01,532 148,516.703 148,497.833 Z"
         fill="#a5a5a5"
         fill-rule="evenodd"
         id="path23" />
      <path
         d="m 358,361.167 c 0,18.869 -47.01,34.166 -105,34.166 -57.99,0 -105,-15.297 -105,-34.166"
         stroke="#434343"
         stroke-width="2"
         stroke-miterlimit="8"
         fill="none"
         fill-rule="evenodd"
         id="path24" />
      <path
         d="M 148,361.167 C 148,342.297 195.01,327 253,327 c 57.99,0 105,15.297 105,34.167 V 497.833 C 358,516.703 310.99,532 253,532 195.01,532 148,516.703 148,497.833 Z"
         stroke="#434343"
         stroke-width="2"
         stroke-miterlimit="8"
         fill="none"
         fill-rule="evenodd"
         id="path25" />
      <text
         fill="#ffffff"
         font-family="Arial, Arial_MSFontService, sans-serif"
         font-weight="400"
         font-size="32px"
         transform="translate(197.772,458)"
         id="text25">Dataset</text>
      <path
         d="m 476,269 c 0,-13.255 47.01,-24 105,-24 57.99,0 105,10.745 105,24 v 96 c 0,13.255 -47.01,24 -105,24 -57.99,0 -105,-10.745 -105,-24 z"
         fill="#70ad47"
         fill-rule="evenodd"
         id="path26" />
      <path
         d="m 686,269 c 0,13.255 -47.01,24 -105,24 -57.99,0 -105,-10.745 -105,-24"
         stroke="#2b4719"
         stroke-width="2"
         stroke-miterlimit="8"
         fill="none"
         fill-rule="evenodd"
         id="path27" />
      <path
         d="m 476,269 c 0,-13.255 47.01,-24 105,-24 57.99,0 105,10.745 105,24 v 96 c 0,13.255 -47.01,24 -105,24 -57.99,0 -105,-10.745 -105,-24 z"
         stroke="#2b4719"
         stroke-width="2"
         stroke-miterlimit="8"
         fill="none"
         fill-rule="evenodd"
         id="path28" />
      <text
         fill="#ffffff"
         font-family="Arial, Arial_MSFontService, sans-serif"
         font-weight="400"
         font-size="32px"
         transform="translate(497.962,341)"
         id="text28">Training set</text>
      <path
         d="M 476,511.333 C 476,503.417 523.01,497 581,497 c 57.99,0 105,6.417 105,14.333 v 57.334 C 686,576.583 638.99,583 581,583 523.01,583 476,576.583 476,568.667 Z"
         fill="#ed7d31"
         fill-rule="evenodd"
         id="path29" />
      <path
         d="m 686,511.333 c 0,7.916 -47.01,14.334 -105,14.334 -57.99,0 -105,-6.418 -105,-14.334"
         stroke="#64310f"
         stroke-width="2"
         stroke-miterlimit="8"
         fill="none"
         fill-rule="evenodd"
         id="path30" />
      <path
         d="M 476,511.333 C 476,503.417 523.01,497 581,497 c 57.99,0 105,6.417 105,14.333 v 57.334 C 686,576.583 638.99,583 581,583 523.01,583 476,576.583 476,568.667 Z"
         stroke="#64310f"
         stroke-width="2"
         stroke-miterlimit="8"
         fill="none"
         fill-rule="evenodd"
         id="path31" />
      <text
         fill="#ffffff"
         font-family="Arial, Arial_MSFontService, sans-serif"
         font-weight="400"
         font-size="32px"
         transform="translate(525.642,559)"
         id="text31">Test set</text>
      <rect
         x="785"
         y="274"
         width="231"
         height="87"
         stroke="#2b4719"
         stroke-width="2"
         stroke-miterlimit="8"
         fill="#70ad47"
         id="rect31" />
      <text
         fill="#ffffff"
         font-family="Arial, Arial_MSFontService, sans-serif"
         font-weight="400"
         font-size="32px"
         transform="translate(808.336,329)"
         id="text32">ML algorithm</text>
      <g
         clip-path="url(#clip4)"
         id="g45">
        <g
           clip-path="url(#clip5)"
           id="g44">
          <g
             clip-path="url(#clip6)"
             id="g43">
            <path
               d="m 1222.65,303.2 c -4.2,0 -7.5,3.3 -7.5,7.5 0,4.2 3.3,7.5 7.5,7.5 4.2,0 7.5,-3.3 7.5,-7.5 0,0 0,0 0,0 0,-4.2 -3.3,-7.5 -7.5,-7.5 z m 0,12 c -2.55,0 -4.5,-1.95 -4.5,-4.5 0,-2.55 1.95,-4.5 4.5,-4.5 2.55,0 4.5,1.95 4.5,4.5 0,2.55 -1.95,4.5 -4.5,4.5 z"
               id="path32" />
            <path
               d="m 1236.6,303.65 1.35,-4.05 -4.2,-4.2 -4.05,1.35 c -0.75,-0.3 -1.5,-0.6 -2.25,-0.9 l -1.95,-3.75 h -5.85 l -1.95,3.75 c -0.75,0.3 -1.5,0.6 -2.25,0.9 l -4.05,-1.35 -4.2,4.2 1.35,4.05 c -0.45,0.75 -0.75,1.5 -0.9,2.25 l -3.75,1.95 v 5.85 l 3.75,1.95 c 0.3,0.75 0.6,1.5 0.9,2.25 l -1.35,4.05 4.35,4.2 4.05,-1.35 c 0.75,0.3 1.5,0.6 2.25,0.9 l 1.95,3.75 h 5.85 l 1.95,-3.75 c 0.75,-0.3 1.5,-0.6 2.1,-0.9 l 4.05,1.35 4.2,-4.2 -1.35,-4.05 c 0.3,-0.75 0.75,-1.5 0.9,-2.25 l 3.75,-1.95 v -5.85 l -3.75,-1.95 c -0.15,-0.75 -0.45,-1.5 -0.9,-2.25 z m 1.65,8.1 -3.3,1.65 -0.15,0.6 c -0.3,1.05 -0.75,1.95 -1.2,2.85 l -0.3,0.6 1.2,3.6 -1.5,1.5 -3.45,-1.2 -0.6,0.3 c -0.9,0.45 -1.8,0.9 -2.7,1.05 l -0.75,0.3 -1.65,3.3 h -2.25 l -1.65,-3.3 -0.6,-0.15 c -0.9,-0.3 -1.95,-0.6 -2.7,-1.2 l -0.6,-0.3 -3.6,1.2 -1.65,-1.65 1.2,-3.45 -0.3,-0.6 c -0.45,-0.9 -0.9,-1.8 -1.2,-2.7 l -0.15,-0.6 -3.3,-1.65 v -2.1 l 3.3,-1.65 0.15,-0.6 c 0.3,-0.9 0.6,-1.95 1.2,-2.7 l 0.3,-0.6 -1.2,-3.75 1.5,-1.65 3.6,1.2 0.6,-0.3 c 0.9,-0.45 1.8,-0.9 2.85,-1.2 l 0.6,-0.15 1.65,-3.3 h 2.1 l 1.65,3.3 0.6,0.15 c 0.9,0.3 1.95,0.6 2.7,1.2 l 0.6,0.3 3.6,-1.2 1.5,1.5 -1.2,3.6 0.3,0.6 c 0.45,0.9 0.9,1.8 1.2,2.7 l 0.15,0.6 3.3,1.65 z"
               id="path33" />
            <path
               d="m 1260.15,311.75 v -1.35 c 0,-20.7 -16.8,-37.5 -37.5,-37.5 -20.7,0 -37.5,16.8 -37.5,37.5 v 1.35 c 0.15,4.5 1.05,8.85 2.55,13.05 1.5,3.9 3.75,7.5 6.45,10.65 3.45,3.75 7.2,10.95 8.85,14.25 0.45,0.9 1.5,1.65 2.55,1.65 h 34.05 c 1.05,0 2.1,-0.6 2.55,-1.65 1.65,-3.3 5.4,-10.5 8.7,-14.25 2.85,-3.15 4.95,-6.75 6.45,-10.65 1.8,-4.2 2.7,-8.7 2.85,-13.05 z m -3,0 c -0.15,4.05 -0.9,8.1 -2.4,12 -1.35,3.6 -3.45,6.9 -6,9.75 -3.6,3.9 -7.35,10.95 -9.15,14.85 h -33.9 c -1.95,-3.9 -5.7,-10.95 -9.15,-14.85 -2.55,-2.85 -4.5,-6.15 -6,-9.75 -1.5,-3.75 -2.25,-7.8 -2.4,-12 v -1.2 c 0,-19.05 15.45,-34.5 34.5,-34.5 19.05,0 34.5,15.45 34.5,34.5 v 0 z"
               id="path34" />
            <path
               d="m 1239.3,360.35 h -33 c -0.9,0 -1.5,0.6 -1.5,1.5 0,0.9 0.6,1.5 1.5,1.5 h 33 c 0.9,0 1.5,-0.6 1.5,-1.5 0,-0.9 -0.6,-1.5 -1.5,-1.5 z"
               id="path35" />
            <path
               d="m 1223.1,267.5 c 0.9,0 1.5,-0.6 1.5,-1.5 v -13.5 c 0,-0.9 -0.6,-1.5 -1.5,-1.5 -0.9,0 -1.5,0.6 -1.5,1.5 V 266 c 0,0.9 0.6,1.5 1.5,1.5 z"
               id="path36" />
            <path
               d="m 1177.65,309.5 h -13.5 c -0.9,0 -1.5,0.6 -1.5,1.5 0,0.9 0.6,1.5 1.5,1.5 h 13.5 c 0.9,0 1.5,-0.6 1.5,-1.5 0,-0.9 -0.75,-1.5 -1.5,-1.5 z"
               id="path37" />
            <path
               d="m 1281.15,309.5 h -13.5 c -0.9,0 -1.5,0.6 -1.5,1.5 0,0.9 0.6,1.5 1.5,1.5 h 13.5 c 0.9,0 1.5,-0.6 1.5,-1.5 0,-0.9 -0.75,-1.5 -1.5,-1.5 z"
               id="path38" />
            <path
               d="m 1189.8,280.25 c 0.6,0.6 1.5,0.6 2.1,0 0.6,-0.6 0.6,-1.5 0,-2.1 l -9.6,-9.6 c -0.6,-0.6 -1.5,-0.6 -2.1,-0.15 -0.6,0.6 -0.6,1.5 -0.15,2.1 0,0 0,0 0.15,0.15 z"
               id="path39" />
            <path
               d="m 1255.5,341.75 c -0.6,-0.6 -1.5,-0.6 -2.1,0 -0.6,0.6 -0.6,1.5 0,2.1 0,0 0,0 0,0 l 9.6,9.6 c 0.6,0.6 1.5,0.6 2.1,0 0.6,-0.6 0.6,-1.5 0,-2.1 z"
               id="path40" />
            <path
               d="m 1262.7,268.7 -9.3,9.3 c -0.6,0.6 -0.6,1.5 -0.15,2.1 0.6,0.6 1.5,0.6 2.1,0.15 0,0 0,0 0.15,-0.15 l 9.6,-9.6 c 0.6,-0.6 0.6,-1.5 0,-2.1 -0.6,-0.6 -1.5,-0.6 -2.1,0 z"
               id="path41" />
            <path
               d="m 1189.8,341.75 -9.6,9.6 c -0.6,0.6 -0.6,1.5 0,2.1 0.6,0.6 1.5,0.6 2.1,0 0,0 0,0 0,0 l 9.6,-9.6 c 0.6,-0.6 0.6,-1.5 0,-2.1 -0.6,-0.6 -1.5,-0.6 -2.1,0 z"
               id="path42" />
            <path
               d="m 1222.65,381.5 c -4.5,0 -8.25,-3.45 -8.7,-7.95 0,-0.9 0.6,-1.5 1.35,-1.65 0,0 0.15,0 0.15,0 h 14.4 c 0.9,0 1.5,0.6 1.5,1.5 0,0 0,0.15 0,0.15 -0.45,4.5 -4.2,7.95 -8.7,7.95 z m -5.25,-6.6 c 1.2,2.85 4.5,4.35 7.35,3.3 1.5,-0.6 2.7,-1.8 3.3,-3.3 z"
               id="path43" />
          </g>
        </g>
      </g>
      <path
         d="m 694,306.25 h 59.5 V 295 L 776,317.5 753.5,340 V 328.75 H 694 Z"
         stroke="#2b4719"
         stroke-width="2"
         stroke-miterlimit="8"
         fill="#70ad47"
         fill-rule="evenodd"
         id="path45" />
      <path
         d="m 1027,306.25 h 59.5 V 295 l 22.5,22.5 -22.5,22.5 V 328.75 H 1027 Z"
         stroke="#2b4719"
         stroke-width="2"
         stroke-miterlimit="8"
         fill="#70ad47"
         fill-rule="evenodd"
         id="path46" />
      <text
         font-family="Arial, Arial_MSFontService, sans-serif"
         font-weight="400"
         font-size="32px"
         transform="translate(1147.47,225)"
         id="text46">ML model</text>
      <g
         clip-path="url(#clip7)"
         id="g60">
        <g
           clip-path="url(#clip8)"
           id="g59">
          <g
             clip-path="url(#clip9)"
             id="g58">
            <path
               d="m 898.65,533.2 c -4.2,0 -7.5,3.3 -7.5,7.5 0,4.2 3.3,7.5 7.5,7.5 4.2,0 7.5,-3.3 7.5,-7.5 0,0 0,0 0,0 0,-4.2 -3.3,-7.5 -7.5,-7.5 z m 0,12 c -2.55,0 -4.5,-1.95 -4.5,-4.5 0,-2.55 1.95,-4.5 4.5,-4.5 2.55,0 4.5,1.95 4.5,4.5 0,2.55 -1.95,4.5 -4.5,4.5 z"
               id="path47" />
            <path
               d="m 912.6,533.65 1.35,-4.05 -4.2,-4.2 -4.05,1.35 c -0.75,-0.3 -1.5,-0.6 -2.25,-0.9 l -1.95,-3.75 h -5.85 l -1.95,3.75 c -0.75,0.3 -1.5,0.6 -2.25,0.9 l -4.05,-1.35 -4.2,4.2 1.35,4.05 c -0.45,0.75 -0.75,1.5 -0.9,2.25 l -3.75,1.95 v 5.85 l 3.75,1.95 c 0.3,0.75 0.6,1.5 0.9,2.25 l -1.35,4.05 4.35,4.2 4.05,-1.35 c 0.75,0.3 1.5,0.6 2.25,0.9 l 1.95,3.75 h 5.85 l 1.95,-3.75 c 0.75,-0.3 1.5,-0.6 2.1,-0.9 l 4.05,1.35 4.2,-4.2 -1.35,-4.05 c 0.3,-0.75 0.75,-1.5 0.9,-2.25 l 3.75,-1.95 v -5.85 l -3.75,-1.95 c -0.15,-0.75 -0.45,-1.5 -0.9,-2.25 z m 1.65,8.1 -3.3,1.65 -0.15,0.6 c -0.3,1.05 -0.75,1.95 -1.2,2.85 l -0.3,0.6 1.2,3.6 -1.5,1.5 -3.45,-1.2 -0.6,0.3 c -0.9,0.45 -1.8,0.9 -2.7,1.05 l -0.75,0.3 -1.65,3.3 h -2.25 l -1.65,-3.3 -0.6,-0.15 c -0.9,-0.3 -1.95,-0.6 -2.7,-1.2 l -0.6,-0.3 -3.6,1.2 -1.65,-1.65 1.2,-3.45 -0.3,-0.6 c -0.45,-0.9 -0.9,-1.8 -1.2,-2.7 l -0.15,-0.6 -3.3,-1.65 v -2.1 l 3.3,-1.65 0.15,-0.6 c 0.3,-0.9 0.6,-1.95 1.2,-2.7 l 0.3,-0.6 -1.2,-3.75 1.5,-1.65 3.6,1.2 0.6,-0.3 c 0.9,-0.45 1.8,-0.9 2.85,-1.2 l 0.6,-0.15 1.65,-3.3 h 2.1 l 1.65,3.3 0.6,0.15 c 0.9,0.3 1.95,0.6 2.7,1.2 l 0.6,0.3 3.6,-1.2 1.5,1.5 -1.2,3.6 0.3,0.6 c 0.45,0.9 0.9,1.8 1.2,2.7 l 0.15,0.6 3.3,1.65 z"
               id="path48" />
            <path
               d="m 936.15,541.75 v -1.35 c 0,-20.7 -16.8,-37.5 -37.5,-37.5 -20.7,0 -37.5,16.8 -37.5,37.5 v 1.35 c 0.15,4.5 1.05,8.85 2.55,13.05 1.5,3.9 3.75,7.5 6.45,10.65 3.45,3.75 7.2,10.95 8.85,14.25 0.45,0.9 1.5,1.65 2.55,1.65 h 34.05 c 1.05,0 2.1,-0.6 2.55,-1.65 1.65,-3.3 5.4,-10.5 8.7,-14.25 2.85,-3.15 4.95,-6.75 6.45,-10.65 1.8,-4.2 2.7,-8.7 2.85,-13.05 z m -3,0 c -0.15,4.05 -0.9,8.1 -2.4,12 -1.35,3.6 -3.45,6.9 -6,9.75 -3.6,3.9 -7.35,10.95 -9.15,14.85 h -33.9 c -1.95,-3.9 -5.7,-10.95 -9.15,-14.85 -2.55,-2.85 -4.5,-6.15 -6,-9.75 -1.5,-3.75 -2.25,-7.8 -2.4,-12 v -1.2 c 0,-19.05 15.45,-34.5 34.5,-34.5 19.05,0 34.5,15.45 34.5,34.5 v 0 z"
               id="path49" />
            <path
               d="m 915.3,590.35 h -33 c -0.9,0 -1.5,0.6 -1.5,1.5 0,0.9 0.6,1.5 1.5,1.5 h 33 c 0.9,0 1.5,-0.6 1.5,-1.5 0,-0.9 -0.6,-1.5 -1.5,-1.5 z"
               id="path50" />
            <path
               d="m 899.1,497.5 c 0.9,0 1.5,-0.6 1.5,-1.5 v -13.5 c 0,-0.9 -0.6,-1.5 -1.5,-1.5 -0.9,0 -1.5,0.6 -1.5,1.5 V 496 c 0,0.9 0.6,1.5 1.5,1.5 z"
               id="path51" />
            <path
               d="m 853.65,539.5 h -13.5 c -0.9,0 -1.5,0.6 -1.5,1.5 0,0.9 0.6,1.5 1.5,1.5 h 13.5 c 0.9,0 1.5,-0.6 1.5,-1.5 0,-0.9 -0.75,-1.5 -1.5,-1.5 z"
               id="path52" />
            <path
               d="m 957.15,539.5 h -13.5 c -0.9,0 -1.5,0.6 -1.5,1.5 0,0.9 0.6,1.5 1.5,1.5 h 13.5 c 0.9,0 1.5,-0.6 1.5,-1.5 0,-0.9 -0.75,-1.5 -1.5,-1.5 z"
               id="path53" />
            <path
               d="m 865.8,510.25 c 0.6,0.6 1.5,0.6 2.1,0 0.6,-0.6 0.6,-1.5 0,-2.1 l -9.6,-9.6 c -0.6,-0.6 -1.5,-0.6 -2.1,-0.15 -0.6,0.6 -0.6,1.5 -0.15,2.1 0,0 0,0 0.15,0.15 z"
               id="path54" />
            <path
               d="m 931.5,571.75 c -0.6,-0.6 -1.5,-0.6 -2.1,0 -0.6,0.6 -0.6,1.5 0,2.1 0,0 0,0 0,0 l 9.6,9.6 c 0.6,0.6 1.5,0.6 2.1,0 0.6,-0.6 0.6,-1.5 0,-2.1 z"
               id="path55" />
            <path
               d="m 938.7,498.7 -9.3,9.3 c -0.6,0.6 -0.6,1.5 -0.15,2.1 0.6,0.6 1.5,0.6 2.1,0.15 0,0 0,0 0.15,-0.15 l 9.6,-9.6 c 0.6,-0.6 0.6,-1.5 0,-2.1 -0.6,-0.6 -1.5,-0.6 -2.1,0 z"
               id="path56" />
            <path
               d="m 865.8,571.75 -9.6,9.6 c -0.6,0.6 -0.6,1.5 0,2.1 0.6,0.6 1.5,0.6 2.1,0 0,0 0,0 0,0 l 9.6,-9.6 c 0.6,-0.6 0.6,-1.5 0,-2.1 -0.6,-0.6 -1.5,-0.6 -2.1,0 z"
               id="path57" />
            <path
               d="m 898.65,611.5 c -4.5,0 -8.25,-3.45 -8.7,-7.95 0,-0.9 0.6,-1.5 1.35,-1.65 0,0 0.15,0 0.15,0 h 14.4 c 0.9,0 1.5,0.6 1.5,1.5 0,0 0,0.15 0,0.15 -0.45,4.5 -4.2,7.95 -8.7,7.95 z m -5.25,-6.6 c 1.2,2.85 4.5,4.35 7.35,3.3 1.5,-0.6 2.7,-1.8 3.3,-3.3 z"
               id="path58" />
          </g>
        </g>
      </g>
      <path
         d="m 694,529 h 60 v -11 l 22,22 -22,22 v -11 h -60 z"
         stroke="#64310f"
         stroke-width="2"
         stroke-miterlimit="8"
         fill="#ed7d31"
         fill-rule="evenodd"
         id="path60" />
      <path
         d="m 369.147,387.462 53.071,-27.587 -5.138,-9.885 30.045,9.493 -9.493,30.045 -5.138,-9.885 -53.071,27.588 z"
         stroke="#434343"
         stroke-width="2"
         stroke-miterlimit="8"
         fill="#a5a5a5"
         fill-rule="evenodd"
         id="path61" />
      <path
         d="m 385.7,459.09 46.61,37.484 6.982,-8.681 3.399,31.325 -31.325,3.4 6.982,-8.681 -46.611,-37.485 z"
         stroke="#434343"
         stroke-width="2"
         stroke-miterlimit="8"
         fill="#a5a5a5"
         fill-rule="evenodd"
         id="path62" />
      <path
         d="m 1027,529 h 60 v -11 l 22,22 -22,22 v -11 h -60 z"
         stroke="#64310f"
         stroke-width="2"
         stroke-miterlimit="8"
         fill="#ed7d31"
         fill-rule="evenodd"
         id="path63" />
      <path
         d="m 1119,511.333 c 0,-7.916 47.01,-14.333 105,-14.333 57.99,0 105,6.417 105,14.333 v 57.334 c 0,7.916 -47.01,14.333 -105,14.333 -57.99,0 -105,-6.417 -105,-14.333 z"
         fill="#ed7d31"
         fill-rule="evenodd"
         id="path64" />
      <path
         d="m 1329,511.333 c 0,7.916 -47.01,14.334 -105,14.334 -57.99,0 -105,-6.418 -105,-14.334"
         stroke="#64310f"
         stroke-width="2"
         stroke-miterlimit="8"
         fill="none"
         fill-rule="evenodd"
         id="path65" />
      <path
         d="m 1119,511.333 c 0,-7.916 47.01,-14.333 105,-14.333 57.99,0 105,6.417 105,14.333 v 57.334 c 0,7.916 -47.01,14.333 -105,14.333 -57.99,0 -105,-6.417 -105,-14.333 z"
         stroke="#64310f"
         stroke-width="2"
         stroke-miterlimit="8"
         fill="none"
         fill-rule="evenodd"
         id="path66" />
      <text
         fill="#ffffff"
         font-family="Arial, Arial_MSFontService, sans-serif"
         font-weight="400"
         font-size="32px"
         transform="translate(1152.89,559)"
         id="text66">Prediction</text>
      <path
         d="m 101.834,475.391 h 52.398 v 39.6 h -52.398 z"
         fill="#262626"
         fill-rule="evenodd"
         id="path67" />
      <path
         d="m 154.232,475.391 h 52.399 v 39.6 h -52.399 z"
         fill="#262626"
         fill-rule="evenodd"
         id="path68" />
      <path
         d="m 206.631,475.391 h 52.398 v 39.6 h -52.398 z"
         fill="#262626"
         fill-rule="evenodd"
         id="path69" />
      <path
         d="m 259.029,475.391 h 52.398 v 39.6 h -52.398 z"
         fill="#262626"
         fill-rule="evenodd"
         id="path70" />
      <path
         d="m 101.834,514.991 h 52.398 v 39.6 h -52.398 z"
         fill="#cfd5ea"
         fill-rule="evenodd"
         id="path71" />
      <path
         d="m 154.232,514.991 h 52.399 v 39.6 h -52.399 z"
         fill="#cfd5ea"
         fill-rule="evenodd"
         id="path72" />
      <path
         d="m 206.631,514.991 h 52.398 v 39.6 h -52.398 z"
         fill="#cfd5ea"
         fill-rule="evenodd"
         id="path73" />
      <path
         d="m 259.029,514.991 h 52.398 v 39.6 h -52.398 z"
         fill="#cfd5ea"
         fill-rule="evenodd"
         id="path74" />
      <path
         d="m 101.834,554.591 h 52.398 v 39.6 h -52.398 z"
         fill="#e9ebf5"
         fill-rule="evenodd"
         id="path75" />
      <path
         d="m 154.232,554.591 h 52.399 v 39.6 h -52.399 z"
         fill="#e9ebf5"
         fill-rule="evenodd"
         id="path76" />
      <path
         d="m 206.631,554.591 h 52.398 v 39.6 h -52.398 z"
         fill="#e9ebf5"
         fill-rule="evenodd"
         id="path77" />
      <path
         d="m 259.029,554.591 h 52.398 v 39.6 h -52.398 z"
         fill="#e9ebf5"
         fill-rule="evenodd"
         id="path78" />
      <path
         d="m 101.834,594.191 h 52.398 v 39.6 h -52.398 z"
         fill="#cfd5ea"
         fill-rule="evenodd"
         id="path79" />
      <path
         d="m 154.232,594.191 h 52.399 v 39.6 h -52.399 z"
         fill="#cfd5ea"
         fill-rule="evenodd"
         id="path80" />
      <path
         d="m 206.631,594.191 h 52.398 v 39.6 h -52.398 z"
         fill="#cfd5ea"
         fill-rule="evenodd"
         id="path81" />
      <path
         d="m 259.029,594.191 h 52.398 v 39.6 h -52.398 z"
         fill="#cfd5ea"
         fill-rule="evenodd"
         id="path82" />
      <path
         d="m 101.834,633.791 h 52.398 v 39.6 h -52.398 z"
         fill="#e9ebf5"
         fill-rule="evenodd"
         id="path83" />
      <path
         d="m 154.232,633.791 h 52.399 v 39.6 h -52.399 z"
         fill="#e9ebf5"
         fill-rule="evenodd"
         id="path84" />
      <path
         d="m 206.631,633.791 h 52.398 v 39.6 h -52.398 z"
         fill="#e9ebf5"
         fill-rule="evenodd"
         id="path85" />
      <path
         d="m 259.029,633.791 h 52.398 v 39.6 h -52.398 z"
         fill="#e9ebf5"
         fill-rule="evenodd"
         id="path86" />
      <path
         d="m 101.834,673.391 h 52.398 v 39.6 h -52.398 z"
         fill="#cfd5ea"
         fill-rule="evenodd"
         id="path87" />
      <path
         d="m 154.232,673.391 h 52.399 v 39.6 h -52.399 z"
         fill="#cfd5ea"
         fill-rule="evenodd"
         id="path88" />
      <path
         d="m 206.631,673.391 h 52.398 v 39.6 h -52.398 z"
         fill="#cfd5ea"
         fill-rule="evenodd"
         id="path89" />
      <path
         d="m 259.029,673.391 h 52.398 v 39.6 h -52.398 z"
         fill="#cfd5ea"
         fill-rule="evenodd"
         id="path90" />
      <path
         d="m 154.232,474.391 v 239.6"
         stroke="#ffffff"
         stroke-width="2"
         stroke-linejoin="round"
         stroke-miterlimit="10"
         fill="none"
         fill-rule="evenodd"
         id="path91" />
      <path
         d="m 206.631,474.391 v 239.6"
         stroke="#ffffff"
         stroke-width="2"
         stroke-linejoin="round"
         stroke-miterlimit="10"
         fill="none"
         fill-rule="evenodd"
         id="path92" />
      <path
         d="m 259.029,474.391 v 239.6"
         stroke="#ffffff"
         stroke-width="2"
         stroke-linejoin="round"
         stroke-miterlimit="10"
         fill="none"
         fill-rule="evenodd"
         id="path93" />
      <path
         d="M 100.834,514.991 H 312.427"
         stroke="#ffffff"
         stroke-width="6"
         stroke-linejoin="round"
         stroke-miterlimit="10"
         fill="none"
         fill-rule="evenodd"
         id="path94" />
      <path
         d="M 100.834,554.591 H 312.427"
         stroke="#ffffff"
         stroke-width="2"
         stroke-linejoin="round"
         stroke-miterlimit="10"
         fill="none"
         fill-rule="evenodd"
         id="path95" />
      <path
         d="M 100.834,594.191 H 312.427"
         stroke="#ffffff"
         stroke-width="2"
         stroke-linejoin="round"
         stroke-miterlimit="10"
         fill="none"
         fill-rule="evenodd"
         id="path96" />
      <path
         d="M 100.834,633.791 H 312.427"
         stroke="#ffffff"
         stroke-width="2"
         stroke-linejoin="round"
         stroke-miterlimit="10"
         fill="none"
         fill-rule="evenodd"
         id="path97" />
      <path
         d="M 100.834,673.391 H 312.427"
         stroke="#ffffff"
         stroke-width="2"
         stroke-linejoin="round"
         stroke-miterlimit="10"
         fill="none"
         fill-rule="evenodd"
         id="path98" />
      <path
         d="m 101.834,474.391 v 239.6"
         stroke="#ffffff"
         stroke-width="2"
         stroke-linejoin="round"
         stroke-miterlimit="10"
         fill="none"
         fill-rule="evenodd"
         id="path99" />
      <path
         d="m 311.427,474.391 v 239.6"
         stroke="#ffffff"
         stroke-width="2"
         stroke-linejoin="round"
         stroke-miterlimit="10"
         fill="none"
         fill-rule="evenodd"
         id="path100" />
      <path
         d="M 100.834,475.391 H 312.427"
         stroke="#ffffff"
         stroke-width="2"
         stroke-linejoin="round"
         stroke-miterlimit="10"
         fill="none"
         fill-rule="evenodd"
         id="path101" />
      <path
         d="M 100.834,712.991 H 312.427"
         stroke="#ffffff"
         stroke-width="2"
         stroke-linejoin="round"
         stroke-miterlimit="10"
         fill="none"
         fill-rule="evenodd"
         id="path102" />
      <text
         fill="#ffffff"
         font-family="Calibri, Calibri_MSFontService, sans-serif"
         font-weight="700"
         font-size="21px"
         transform="translate(118.283,503)"
         id="text127">V<tspan
   font-size="14px"
   x="12.5"
   y="4"
   id="tspan102">1</tspan><tspan
   font-size="21px"
   x="52.3983"
   y="0"
   id="tspan103">V</tspan><tspan
   font-size="14px"
   x="64.8983"
   y="4"
   id="tspan104">2</tspan><tspan
   font-size="21px"
   x="104.797"
   y="0"
   id="tspan105">V</tspan><tspan
   font-size="14px"
   x="117.297"
   y="4"
   id="tspan106">3</tspan><tspan
   font-size="21px"
   x="161.44501"
   y="0"
   id="tspan107">C</tspan><tspan
   fill="#000000"
   font-weight="400"
   font-size="21px"
   x="-0.62504601"
   y="39"
   id="tspan108">a1</tspan><tspan
   fill="#000000"
   font-weight="400"
   font-size="21px"
   x="51.273201"
   y="39"
   id="tspan109">b2</tspan><tspan
   fill="#000000"
   font-weight="400"
   font-size="21px"
   x="104.671"
   y="39"
   id="tspan110">c1</tspan><tspan
   fill="#000000"
   font-weight="400"
   font-size="21px"
   x="160.57001"
   y="39"
   id="tspan111">□</tspan><tspan
   fill="#000000"
   font-weight="400"
   font-size="21px"
   x="-0.62504601"
   y="79"
   id="tspan112">a1</tspan><tspan
   fill="#000000"
   font-weight="400"
   font-size="21px"
   x="51.273201"
   y="79"
   id="tspan113">b1</tspan><tspan
   fill="#000000"
   font-weight="400"
   font-size="21px"
   x="104.671"
   y="79"
   id="tspan114">c4</tspan><tspan
   fill="#000000"
   font-weight="400"
   font-size="21px"
   x="161.19501"
   y="79"
   id="tspan115">○</tspan><tspan
   fill="#000000"
   font-weight="400"
   font-size="21px"
   x="-0.62504601"
   y="118"
   id="tspan116">a2</tspan><tspan
   fill="#000000"
   font-weight="400"
   font-size="21px"
   x="51.273201"
   y="118"
   id="tspan117">b1</tspan><tspan
   fill="#000000"
   font-weight="400"
   font-size="21px"
   x="104.671"
   y="118"
   id="tspan118">c3</tspan><tspan
   fill="#000000"
   font-weight="400"
   font-size="21px"
   x="161.19501"
   y="118"
   id="tspan119">○</tspan><tspan
   fill="#000000"
   font-weight="400"
   font-size="21px"
   x="-0.62504601"
   y="158"
   id="tspan120">a3</tspan><tspan
   fill="#000000"
   font-weight="400"
   font-size="21px"
   x="51.273201"
   y="158"
   id="tspan121">b3</tspan><tspan
   fill="#000000"
   font-weight="400"
   font-size="21px"
   x="104.671"
   y="158"
   id="tspan122">c2</tspan><tspan
   fill="#000000"
   font-weight="400"
   font-size="21px"
   x="160.57001"
   y="158"
   id="tspan123">□</tspan><tspan
   fill="#000000"
   font-weight="400"
   font-size="21px"
   x="-0.62504601"
   y="198"
   id="tspan124">a1</tspan><tspan
   fill="#000000"
   font-weight="400"
   font-size="21px"
   x="51.273201"
   y="198"
   id="tspan125">b5</tspan><tspan
   fill="#000000"
   font-weight="400"
   font-size="21px"
   x="104.671"
   y="198"
   id="tspan126">c2</tspan><tspan
   fill="#000000"
   font-weight="400"
   font-size="21px"
   x="160.57001"
   y="198"
   id="tspan127">□</tspan></text>
      <path
         d="m 502.269,595.18 h 52.399 v 39.599 h -52.399 z"
         fill="#262626"
         fill-rule="evenodd"
         id="path127" />
      <path
         d="m 554.668,595.18 h 52.398 v 39.599 h -52.398 z"
         fill="#262626"
         fill-rule="evenodd"
         id="path128" />
      <path
         d="m 607.066,595.18 h 52.398 v 39.599 h -52.398 z"
         fill="#262626"
         fill-rule="evenodd"
         id="path129" />
      <path
         d="m 502.269,634.779 h 52.399 v 39.601 h -52.399 z"
         fill="#cfd5ea"
         fill-rule="evenodd"
         id="path130" />
      <path
         d="m 554.668,634.779 h 52.398 v 39.601 h -52.398 z"
         fill="#cfd5ea"
         fill-rule="evenodd"
         id="path131" />
      <path
         d="m 607.066,634.779 h 52.398 v 39.601 h -52.398 z"
         fill="#cfd5ea"
         fill-rule="evenodd"
         id="path132" />
      <path
         d="m 502.269,674.38 h 52.399 v 39.599 h -52.399 z"
         fill="#e9ebf5"
         fill-rule="evenodd"
         id="path133" />
      <path
         d="m 554.668,674.38 h 52.398 v 39.599 h -52.398 z"
         fill="#e9ebf5"
         fill-rule="evenodd"
         id="path134" />
      <path
         d="m 607.066,674.38 h 52.398 v 39.599 h -52.398 z"
         fill="#e9ebf5"
         fill-rule="evenodd"
         id="path135" />
      <path
         d="M 554.668,594.18 V 714.979"
         stroke="#ffffff"
         stroke-width="2"
         stroke-linejoin="round"
         stroke-miterlimit="10"
         fill="none"
         fill-rule="evenodd"
         id="path136" />
      <path
         d="M 607.066,594.18 V 714.979"
         stroke="#ffffff"
         stroke-width="2"
         stroke-linejoin="round"
         stroke-miterlimit="10"
         fill="none"
         fill-rule="evenodd"
         id="path137" />
      <path
         d="M 501.269,634.779 H 660.464"
         stroke="#ffffff"
         stroke-width="6"
         stroke-linejoin="round"
         stroke-miterlimit="10"
         fill="none"
         fill-rule="evenodd"
         id="path138" />
      <path
         d="M 501.269,674.38 H 660.464"
         stroke="#ffffff"
         stroke-width="2"
         stroke-linejoin="round"
         stroke-miterlimit="10"
         fill="none"
         fill-rule="evenodd"
         id="path139" />
      <path
         d="M 502.269,594.18 V 714.979"
         stroke="#ffffff"
         stroke-width="2"
         stroke-linejoin="round"
         stroke-miterlimit="10"
         fill="none"
         fill-rule="evenodd"
         id="path140" />
      <path
         d="M 659.464,594.18 V 714.979"
         stroke="#ffffff"
         stroke-width="2"
         stroke-linejoin="round"
         stroke-miterlimit="10"
         fill="none"
         fill-rule="evenodd"
         id="path141" />
      <path
         d="M 501.269,595.18 H 660.464"
         stroke="#ffffff"
         stroke-width="2"
         stroke-linejoin="round"
         stroke-miterlimit="10"
         fill="none"
         fill-rule="evenodd"
         id="path142" />
      <path
         d="M 501.269,713.979 H 660.464"
         stroke="#ffffff"
         stroke-width="2"
         stroke-linejoin="round"
         stroke-miterlimit="10"
         fill="none"
         fill-rule="evenodd"
         id="path143" />
      <text
         fill="#ffffff"
         font-family="Calibri, Calibri_MSFontService, sans-serif"
         font-weight="700"
         font-size="21px"
         transform="translate(518.719,622)"
         id="text153">V<tspan
   font-size="14px"
   x="12.5"
   y="4"
   id="tspan143">1</tspan><tspan
   font-size="21px"
   x="52.3983"
   y="0"
   id="tspan144">V</tspan><tspan
   font-size="14px"
   x="64.8983"
   y="4"
   id="tspan145">2</tspan><tspan
   font-size="21px"
   x="104.797"
   y="0"
   id="tspan146">V</tspan><tspan
   font-size="14px"
   x="117.297"
   y="4"
   id="tspan147">3</tspan><tspan
   fill="#000000"
   font-weight="400"
   font-size="21px"
   x="-0.625"
   y="40"
   id="tspan148">a3</tspan><tspan
   fill="#000000"
   font-weight="400"
   font-size="21px"
   x="51.2733"
   y="40"
   id="tspan149">b3</tspan><tspan
   fill="#000000"
   font-weight="400"
   font-size="21px"
   x="104.672"
   y="40"
   id="tspan150">c2</tspan><tspan
   fill="#000000"
   font-weight="400"
   font-size="21px"
   x="-0.625"
   y="80"
   id="tspan151">a1</tspan><tspan
   fill="#000000"
   font-weight="400"
   font-size="21px"
   x="51.2733"
   y="80"
   id="tspan152">b5</tspan><tspan
   fill="#000000"
   font-weight="400"
   font-size="21px"
   x="104.672"
   y="80"
   id="tspan153">c2</tspan></text>
      <path
         d="m 427.621,141.352 h 52.398 v 39.6 h -52.398 z"
         fill="#262626"
         fill-rule="evenodd"
         id="path153" />
      <path
         d="m 480.019,141.352 h 52.399 v 39.6 h -52.399 z"
         fill="#262626"
         fill-rule="evenodd"
         id="path154" />
      <path
         d="m 532.418,141.352 h 52.398 v 39.6 h -52.398 z"
         fill="#262626"
         fill-rule="evenodd"
         id="path155" />
      <path
         d="m 584.816,141.352 h 52.398 v 39.6 h -52.398 z"
         fill="#262626"
         fill-rule="evenodd"
         id="path156" />
      <path
         d="m 427.621,180.952 h 52.398 v 39.6 h -52.398 z"
         fill="#cfd5ea"
         fill-rule="evenodd"
         id="path157" />
      <path
         d="m 480.019,180.952 h 52.399 v 39.6 h -52.399 z"
         fill="#cfd5ea"
         fill-rule="evenodd"
         id="path158" />
      <path
         d="m 532.418,180.952 h 52.398 v 39.6 h -52.398 z"
         fill="#cfd5ea"
         fill-rule="evenodd"
         id="path159" />
      <path
         d="m 584.816,180.952 h 52.398 v 39.6 h -52.398 z"
         fill="#cfd5ea"
         fill-rule="evenodd"
         id="path160" />
      <path
         d="m 427.621,220.552 h 52.398 v 39.599 h -52.398 z"
         fill="#e9ebf5"
         fill-rule="evenodd"
         id="path161" />
      <path
         d="m 480.019,220.552 h 52.399 v 39.599 h -52.399 z"
         fill="#e9ebf5"
         fill-rule="evenodd"
         id="path162" />
      <path
         d="m 532.418,220.552 h 52.398 v 39.599 h -52.398 z"
         fill="#e9ebf5"
         fill-rule="evenodd"
         id="path163" />
      <path
         d="m 584.816,220.552 h 52.398 v 39.599 h -52.398 z"
         fill="#e9ebf5"
         fill-rule="evenodd"
         id="path164" />
      <path
         d="m 427.621,260.151 h 52.398 v 39.601 h -52.398 z"
         fill="#cfd5ea"
         fill-rule="evenodd"
         id="path165" />
      <path
         d="m 480.019,260.151 h 52.399 v 39.601 h -52.399 z"
         fill="#cfd5ea"
         fill-rule="evenodd"
         id="path166" />
      <path
         d="m 532.418,260.151 h 52.398 v 39.601 h -52.398 z"
         fill="#cfd5ea"
         fill-rule="evenodd"
         id="path167" />
      <path
         d="m 584.816,260.151 h 52.398 v 39.601 h -52.398 z"
         fill="#cfd5ea"
         fill-rule="evenodd"
         id="path168" />
      <path
         d="m 480.019,140.352 v 160.4"
         stroke="#ffffff"
         stroke-width="2"
         stroke-linejoin="round"
         stroke-miterlimit="10"
         fill="none"
         fill-rule="evenodd"
         id="path169" />
      <path
         d="m 532.418,140.352 v 160.4"
         stroke="#ffffff"
         stroke-width="2"
         stroke-linejoin="round"
         stroke-miterlimit="10"
         fill="none"
         fill-rule="evenodd"
         id="path170" />
      <path
         d="m 584.816,140.352 v 160.4"
         stroke="#ffffff"
         stroke-width="2"
         stroke-linejoin="round"
         stroke-miterlimit="10"
         fill="none"
         fill-rule="evenodd"
         id="path171" />
      <path
         d="M 426.621,180.952 H 638.214"
         stroke="#ffffff"
         stroke-width="6"
         stroke-linejoin="round"
         stroke-miterlimit="10"
         fill="none"
         fill-rule="evenodd"
         id="path172" />
      <path
         d="M 426.621,220.552 H 638.214"
         stroke="#ffffff"
         stroke-width="2"
         stroke-linejoin="round"
         stroke-miterlimit="10"
         fill="none"
         fill-rule="evenodd"
         id="path173" />
      <path
         d="M 426.621,260.151 H 638.214"
         stroke="#ffffff"
         stroke-width="2"
         stroke-linejoin="round"
         stroke-miterlimit="10"
         fill="none"
         fill-rule="evenodd"
         id="path174" />
      <path
         d="m 427.621,140.352 v 160.4"
         stroke="#ffffff"
         stroke-width="2"
         stroke-linejoin="round"
         stroke-miterlimit="10"
         fill="none"
         fill-rule="evenodd"
         id="path175" />
      <path
         d="m 637.214,140.352 v 160.4"
         stroke="#ffffff"
         stroke-width="2"
         stroke-linejoin="round"
         stroke-miterlimit="10"
         fill="none"
         fill-rule="evenodd"
         id="path176" />
      <path
         d="M 426.621,141.352 H 638.214"
         stroke="#ffffff"
         stroke-width="2"
         stroke-linejoin="round"
         stroke-miterlimit="10"
         fill="none"
         fill-rule="evenodd"
         id="path177" />
      <path
         d="M 426.621,299.752 H 638.214"
         stroke="#ffffff"
         stroke-width="2"
         stroke-linejoin="round"
         stroke-miterlimit="10"
         fill="none"
         fill-rule="evenodd"
         id="path178" />
      <text
         fill="#ffffff"
         font-family="Calibri, Calibri_MSFontService, sans-serif"
         font-weight="700"
         font-size="21px"
         transform="translate(444.07,169)"
         id="text195">V<tspan
   font-size="14px"
   x="12.5"
   y="4"
   id="tspan178">1</tspan><tspan
   font-size="21px"
   x="52.3983"
   y="0"
   id="tspan179">V</tspan><tspan
   font-size="14px"
   x="64.8983"
   y="4"
   id="tspan180">2</tspan><tspan
   font-size="21px"
   x="104.797"
   y="0"
   id="tspan181">V</tspan><tspan
   font-size="14px"
   x="117.297"
   y="4"
   id="tspan182">3</tspan><tspan
   font-size="21px"
   x="161.44501"
   y="0"
   id="tspan183">C</tspan><tspan
   fill="#000000"
   font-weight="400"
   font-size="21px"
   x="-0.62503099"
   y="39"
   id="tspan184">a1</tspan><tspan
   fill="#000000"
   font-weight="400"
   font-size="21px"
   x="51.2733"
   y="39"
   id="tspan185">b2</tspan><tspan
   fill="#000000"
   font-weight="400"
   font-size="21px"
   x="104.672"
   y="39"
   id="tspan186">c1</tspan><tspan
   fill="#000000"
   font-weight="400"
   font-size="21px"
   x="160.57001"
   y="39"
   id="tspan187">□</tspan><tspan
   fill="#000000"
   font-weight="400"
   font-size="21px"
   x="-0.62503099"
   y="79"
   id="tspan188">a1</tspan><tspan
   fill="#000000"
   font-weight="400"
   font-size="21px"
   x="51.2733"
   y="79"
   id="tspan189">b1</tspan><tspan
   fill="#000000"
   font-weight="400"
   font-size="21px"
   x="104.672"
   y="79"
   id="tspan190">c4</tspan><tspan
   fill="#000000"
   font-weight="400"
   font-size="21px"
   x="161.19501"
   y="79"
   id="tspan191">○</tspan><tspan
   fill="#000000"
   font-weight="400"
   font-size="21px"
   x="-0.62503099"
   y="118"
   id="tspan192">a2</tspan><tspan
   fill="#000000"
   font-weight="400"
   font-size="21px"
   x="51.2733"
   y="118"
   id="tspan193">b1</tspan><tspan
   fill="#000000"
   font-weight="400"
   font-size="21px"
   x="104.672"
   y="118"
   id="tspan194">c3</tspan><tspan
   fill="#000000"
   font-weight="400"
   font-size="21px"
   x="161.19501"
   y="118"
   id="tspan195">○</tspan></text>
      <path
         d="m 1197.7,594.191 h 52.39 v 39.6 h -52.39 z"
         fill="#262626"
         fill-rule="evenodd"
         id="path195" />
      <path
         d="m 1197.7,633.791 h 52.39 v 39.6 h -52.39 z"
         fill="#cfd5ea"
         fill-rule="evenodd"
         id="path196" />
      <path
         d="m 1197.7,673.391 h 52.39 v 39.6 h -52.39 z"
         fill="#e9ebf5"
         fill-rule="evenodd"
         id="path197" />
      <path
         d="m 1196.7,633.791 h 54.39"
         stroke="#ffffff"
         stroke-width="6"
         stroke-linejoin="round"
         stroke-miterlimit="10"
         fill="none"
         fill-rule="evenodd"
         id="path198" />
      <path
         d="m 1196.7,673.391 h 54.39"
         stroke="#ffffff"
         stroke-width="2"
         stroke-linejoin="round"
         stroke-miterlimit="10"
         fill="none"
         fill-rule="evenodd"
         id="path199" />
      <path
         d="m 1197.7,593.191 v 120.8"
         stroke="#ffffff"
         stroke-width="2"
         stroke-linejoin="round"
         stroke-miterlimit="10"
         fill="none"
         fill-rule="evenodd"
         id="path200" />
      <path
         d="m 1250.09,593.191 v 120.8"
         stroke="#ffffff"
         stroke-width="2"
         stroke-linejoin="round"
         stroke-miterlimit="10"
         fill="none"
         fill-rule="evenodd"
         id="path201" />
      <path
         d="m 1196.7,594.191 h 54.39"
         stroke="#ffffff"
         stroke-width="2"
         stroke-linejoin="round"
         stroke-miterlimit="10"
         fill="none"
         fill-rule="evenodd"
         id="path202" />
      <path
         d="m 1196.7,712.991 h 54.39"
         stroke="#ffffff"
         stroke-width="2"
         stroke-linejoin="round"
         stroke-miterlimit="10"
         fill="none"
         fill-rule="evenodd"
         id="path203" />
      <text
         fill="#ffffff"
         font-family="Calibri, Calibri_MSFontService, sans-serif"
         font-weight="700"
         font-size="21px"
         transform="translate(1218.39,621)"
         id="text204">C<tspan
   fill="#000000"
   font-weight="400"
   font-size="21px"
   x="-0.249878"
   y="40"
   id="tspan203">○</tspan><tspan
   fill="#000000"
   font-weight="400"
   font-size="21px"
   x="-0.87487799"
   y="80"
   id="tspan204">□</tspan></text>
      <g
         clip-path="url(#clip10)"
         id="g217">
        <g
           clip-path="url(#clip11)"
           id="g216">
          <g
             clip-path="url(#clip12)"
             id="g215">
            <path
               d="m 898.65,824.2 c -4.2,0 -7.5,3.3 -7.5,7.5 0,4.2 3.3,7.5 7.5,7.5 4.2,0 7.5,-3.3 7.5,-7.5 0,0 0,0 0,0 0,-4.2 -3.3,-7.5 -7.5,-7.5 z m 0,12 c -2.55,0 -4.5,-1.95 -4.5,-4.5 0,-2.55 1.95,-4.5 4.5,-4.5 2.55,0 4.5,1.95 4.5,4.5 0,2.55 -1.95,4.5 -4.5,4.5 z"
               id="path204" />
            <path
               d="m 912.6,824.65 1.35,-4.05 -4.2,-4.2 -4.05,1.35 c -0.75,-0.3 -1.5,-0.6 -2.25,-0.9 l -1.95,-3.75 h -5.85 l -1.95,3.75 c -0.75,0.3 -1.5,0.6 -2.25,0.9 l -4.05,-1.35 -4.2,4.2 1.35,4.05 c -0.45,0.75 -0.75,1.5 -0.9,2.25 l -3.75,1.95 v 5.85 l 3.75,1.95 c 0.3,0.75 0.6,1.5 0.9,2.25 l -1.35,4.05 4.35,4.2 4.05,-1.35 c 0.75,0.3 1.5,0.6 2.25,0.9 l 1.95,3.75 h 5.85 l 1.95,-3.75 c 0.75,-0.3 1.5,-0.6 2.1,-0.9 l 4.05,1.35 4.2,-4.2 -1.35,-4.05 c 0.3,-0.75 0.75,-1.5 0.9,-2.25 l 3.75,-1.95 v -5.85 l -3.75,-1.95 c -0.15,-0.75 -0.45,-1.5 -0.9,-2.25 z m 1.65,8.1 -3.3,1.65 -0.15,0.6 c -0.3,1.05 -0.75,1.95 -1.2,2.85 l -0.3,0.6 1.2,3.6 -1.5,1.5 -3.45,-1.2 -0.6,0.3 c -0.9,0.45 -1.8,0.9 -2.7,1.05 l -0.75,0.3 -1.65,3.3 h -2.25 l -1.65,-3.3 -0.6,-0.15 c -0.9,-0.3 -1.95,-0.6 -2.7,-1.2 l -0.6,-0.3 -3.6,1.2 -1.65,-1.65 1.2,-3.45 -0.3,-0.6 c -0.45,-0.9 -0.9,-1.8 -1.2,-2.7 l -0.15,-0.6 -3.3,-1.65 v -2.1 l 3.3,-1.65 0.15,-0.6 c 0.3,-0.9 0.6,-1.95 1.2,-2.7 l 0.3,-0.6 -1.2,-3.75 1.5,-1.65 3.6,1.2 0.6,-0.3 c 0.9,-0.45 1.8,-0.9 2.85,-1.2 l 0.6,-0.15 1.65,-3.3 h 2.1 l 1.65,3.3 0.6,0.15 c 0.9,0.3 1.95,0.6 2.7,1.2 l 0.6,0.3 3.6,-1.2 1.5,1.5 -1.2,3.6 0.3,0.6 c 0.45,0.9 0.9,1.8 1.2,2.7 l 0.15,0.6 3.3,1.65 z"
               id="path205" />
            <path
               d="m 936.15,832.75 v -1.35 c 0,-20.7 -16.8,-37.5 -37.5,-37.5 -20.7,0 -37.5,16.8 -37.5,37.5 v 1.35 c 0.15,4.5 1.05,8.85 2.55,13.05 1.5,3.9 3.75,7.5 6.45,10.65 3.45,3.75 7.2,10.95 8.85,14.25 0.45,0.9 1.5,1.65 2.55,1.65 h 34.05 c 1.05,0 2.1,-0.6 2.55,-1.65 1.65,-3.3 5.4,-10.5 8.7,-14.25 2.85,-3.15 4.95,-6.75 6.45,-10.65 1.8,-4.2 2.7,-8.7 2.85,-13.05 z m -3,0 c -0.15,4.05 -0.9,8.1 -2.4,12 -1.35,3.6 -3.45,6.9 -6,9.75 -3.6,3.9 -7.35,10.95 -9.15,14.85 h -33.9 c -1.95,-3.9 -5.7,-10.95 -9.15,-14.85 -2.55,-2.85 -4.5,-6.15 -6,-9.75 -1.5,-3.75 -2.25,-7.8 -2.4,-12 v -1.2 c 0,-19.05 15.45,-34.5 34.5,-34.5 19.05,0 34.5,15.45 34.5,34.5 v 0 z"
               id="path206" />
            <path
               d="m 915.3,881.35 h -33 c -0.9,0 -1.5,0.6 -1.5,1.5 0,0.9 0.6,1.5 1.5,1.5 h 33 c 0.9,0 1.5,-0.6 1.5,-1.5 0,-0.9 -0.6,-1.5 -1.5,-1.5 z"
               id="path207" />
            <path
               d="m 899.1,788.5 c 0.9,0 1.5,-0.6 1.5,-1.5 v -13.5 c 0,-0.9 -0.6,-1.5 -1.5,-1.5 -0.9,0 -1.5,0.6 -1.5,1.5 V 787 c 0,0.9 0.6,1.5 1.5,1.5 z"
               id="path208" />
            <path
               d="m 853.65,830.5 h -13.5 c -0.9,0 -1.5,0.6 -1.5,1.5 0,0.9 0.6,1.5 1.5,1.5 h 13.5 c 0.9,0 1.5,-0.6 1.5,-1.5 0,-0.9 -0.75,-1.5 -1.5,-1.5 z"
               id="path209" />
            <path
               d="m 957.15,830.5 h -13.5 c -0.9,0 -1.5,0.6 -1.5,1.5 0,0.9 0.6,1.5 1.5,1.5 h 13.5 c 0.9,0 1.5,-0.6 1.5,-1.5 0,-0.9 -0.75,-1.5 -1.5,-1.5 z"
               id="path210" />
            <path
               d="m 865.8,801.25 c 0.6,0.6 1.5,0.6 2.1,0 0.6,-0.6 0.6,-1.5 0,-2.1 l -9.6,-9.6 c -0.6,-0.6 -1.5,-0.6 -2.1,-0.15 -0.6,0.6 -0.6,1.5 -0.15,2.1 0,0 0,0 0.15,0.15 z"
               id="path211" />
            <path
               d="m 931.5,862.75 c -0.6,-0.6 -1.5,-0.6 -2.1,0 -0.6,0.6 -0.6,1.5 0,2.1 0,0 0,0 0,0 l 9.6,9.6 c 0.6,0.6 1.5,0.6 2.1,0 0.6,-0.6 0.6,-1.5 0,-2.1 z"
               id="path212" />
            <path
               d="m 938.7,789.7 -9.3,9.3 c -0.6,0.6 -0.6,1.5 -0.15,2.1 0.6,0.6 1.5,0.6 2.1,0.15 0,0 0,0 0.15,-0.15 l 9.6,-9.6 c 0.6,-0.6 0.6,-1.5 0,-2.1 -0.6,-0.6 -1.5,-0.6 -2.1,0 z"
               id="path213" />
            <path
               d="m 865.8,862.75 -9.6,9.6 c -0.6,0.6 -0.6,1.5 0,2.1 0.6,0.6 1.5,0.6 2.1,0 0,0 0,0 0,0 l 9.6,-9.6 c 0.6,-0.6 0.6,-1.5 0,-2.1 -0.6,-0.6 -1.5,-0.6 -2.1,0 z"
               id="path214" />
            <path
               d="m 898.65,902.5 c -4.5,0 -8.25,-3.45 -8.7,-7.95 0,-0.9 0.6,-1.5 1.35,-1.65 0,0 0.15,0 0.15,0 h 14.4 c 0.9,0 1.5,0.6 1.5,1.5 0,0 0,0.15 0,0.15 -0.45,4.5 -4.2,7.95 -8.7,7.95 z m -5.25,-6.6 c 1.2,2.85 4.5,4.35 7.35,3.3 1.5,-0.6 2.7,-1.8 3.3,-3.3 z"
               id="path215" />
          </g>
        </g>
      </g>
      <path
         d="m 1027,826.25 h 59.5 V 815 l 22.5,22.5 -22.5,22.5 V 848.75 H 1027 Z"
         stroke="#6c4f00"
         stroke-width="2"
         stroke-miterlimit="8"
         fill="#ffc000"
         fill-rule="evenodd"
         id="path217" />
      <path
         d="m 1119,808.5 c 0,-8.008 47.01,-14.5 105,-14.5 57.99,0 105,6.492 105,14.5 v 58 c 0,8.008 -47.01,14.5 -105,14.5 -57.99,0 -105,-6.492 -105,-14.5 z"
         fill="#ffc000"
         fill-rule="evenodd"
         id="path218" />
      <path
         d="m 1329,808.5 c 0,8.008 -47.01,14.5 -105,14.5 -57.99,0 -105,-6.492 -105,-14.5"
         stroke="#6c4f00"
         stroke-width="2"
         stroke-miterlimit="8"
         fill="none"
         fill-rule="evenodd"
         id="path219" />
      <path
         d="m 1119,808.5 c 0,-8.008 47.01,-14.5 105,-14.5 57.99,0 105,6.492 105,14.5 v 58 c 0,8.008 -47.01,14.5 -105,14.5 -57.99,0 -105,-6.492 -105,-14.5 z"
         stroke="#6c4f00"
         stroke-width="2"
         stroke-miterlimit="8"
         fill="none"
         fill-rule="evenodd"
         id="path220" />
      <text
         fill="#ffffff"
         font-family="Arial, Arial_MSFontService, sans-serif"
         font-weight="400"
         font-size="32px"
         transform="translate(1152.89,857)"
         id="text220">Prediction</text>
      <g
         clip-path="url(#clip13)"
         id="g228">
        <g
           clip-path="url(#clip14)"
           id="g227">
          <g
             clip-path="url(#clip15)"
             id="g226">
            <path
               d="m 475.585,923.5 c -11.592,-0.013 -20.987,-9.408 -21,-21 v -0.975 c 0.55,-11.597 10.396,-20.552 21.993,-20.002 10.871,0.515 19.551,9.243 20.007,20.118 v 0.859 c -0.012,11.593 -9.407,20.988 -21,21 z m 0,-39 c -9.609,-0.035 -17.542,7.502 -18,17.1 v 0.9 c 0,9.941 8.059,18 18,18 9.941,0 18,-8.059 18,-18 v -0.813 c -0.341,-9.665 -8.33,-17.293 -18,-17.187 z"
               id="path221" />
            <path
               d="m 475.585,911.5 c -4.971,0 -9,-4.029 -9,-9 0,-4.971 4.029,-9 9,-9 4.971,0 9,4.029 9,9 0.053,4.918 -3.892,8.948 -8.81,9 -0.063,10e-4 -0.127,10e-4 -0.19,0 z m 0,-15 c -3.314,0 -6,2.686 -6,6 0,3.314 2.686,6 6,6 3.314,0 6,-2.686 6,-6 0.036,-3.278 -2.592,-5.964 -5.87,-6 -0.044,0 -0.087,0 -0.13,0 z"
               id="path222" />
            <path
               d="m 499.656,903.883 v 4.547 c 0,0.828 0.671,1.5 1.5,1.5 0.828,0 1.5,-0.672 1.5,-1.5 v -4.547 c 0,-0.508 -0.015,-0.956 -0.039,-1.383 h 31.033 c 0.363,-1.039 0.821,-2.044 1.366,-3 h -35.598 c 0.078,0.675 0.151,1.35 0.165,2.047 z"
               id="path223" />
            <path
               d="m 550.543,923.365 c -5.9,0.012 -11.249,-3.467 -13.631,-8.865 -3.362,-7.536 0.02,-16.371 7.556,-19.734 5.397,-2.408 11.707,-1.409 16.097,2.55 3.233,2.747 5.073,6.792 5.02,11.034 -0.021,8.295 -6.747,15.009 -15.042,15.015 z m -0.085,-26.85 c -2.491,-0.012 -4.921,0.773 -6.934,2.24 -4.53,3.343 -6.139,9.378 -3.874,14.533 2.73,6.039 9.838,8.722 15.877,5.993 4.295,-1.942 7.056,-6.218 7.058,-10.931 0.048,-3.365 -1.408,-6.575 -3.97,-8.756 l -0.019,-0.015 c -2.254,-1.969 -5.145,-3.056 -8.138,-3.058 z"
               id="path224" />
            <path
               d="m 550.585,914.5 c -3.314,0 -6,-2.686 -6,-6 0,-3.314 2.686,-6 6,-6 3.314,0 6,2.686 6,6 0.036,3.278 -2.592,5.964 -5.87,6 -0.044,0 -0.087,0 -0.13,0 z m 0,-9 c -1.657,0 -3,1.343 -3,3 0,1.657 1.343,3 3,3 1.657,0 3,-1.343 3,-3 0.018,-1.639 -1.297,-2.982 -2.937,-3 -0.021,0 -0.042,0 -0.063,0 z"
               id="path225" />
            <path
               d="m 557.937,869.8 c -1.145,-1.168 -2.716,-1.818 -4.351,-1.8 h -18.599 v -15 c 0,-1.657 1.343,-3 3,-3 v -3 c -3.314,0 -6,2.686 -6,6 v 15 h -19.201 l -12.299,-25.05 c -1.401,-3.007 -4.412,-4.936 -7.73,-4.95 -0.123,0 -0.248,0 -0.37,0 h -19.65 c -4.965,0.015 -8.986,4.036 -9,9 v 21 l -3.151,1.95 c -0.863,0.557 -1.375,1.523 -1.349,2.55 v 8.601 c -1.776,1.236 -3.402,2.673 -4.845,4.284 -0.551,0.619 -0.496,1.567 0.123,2.118 0.596,0.531 1.504,0.501 2.065,-0.068 0.837,-0.907 1.724,-1.766 2.657,-2.575 0.936,-0.845 1.939,-1.613 3,-2.297 V 872.455 L 464.59,871 h 88.996 c 0.839,-0.017 1.646,0.317 2.228,0.921 l 0.072,0.071 0.073,0.065 c 0.53,0.507 0.814,1.219 0.778,1.951 v 17.612 c 1.04,0.382 2.044,0.857 3,1.418 V 874 c 0.044,-1.596 -0.614,-3.132 -1.8,-4.2 z m -84.45,-1.8 h -6.75 v -21 c 0,-3.314 2.686,-6 6,-6 h 19.714 0.065 0.241 c 2.058,0.015 3.939,1.17 4.882,3 H 473.49 Z m 3,0 v -21 h 22.65 l 10.369,21 z"
               id="path226" />
          </g>
        </g>
      </g>
      <g
         clip-path="url(#clip16)"
         id="g241">
        <g
           clip-path="url(#clip17)"
           id="g240">
          <g
             clip-path="url(#clip18)"
             id="g239">
            <path
               d="M 616.333,865.175 C 602.395,848.657 580.21,845.855 569.5,845.524 v 3.044 c 10.268,0.388 31.552,3.15 44.584,18.592 0.401,0.436 0.881,1.009 1.361,1.602 1.394,-0.81 2.241,-1.395 2.55,-1.617 -0.575,-0.718 -1.169,-1.436 -1.662,-1.97 z"
               id="path228" />
            <path
               d="m 689.029,866.448 c -0.9,-0.53 -1.769,-1.022 -2.529,-1.439 V 831.16 l 0.19,0.47 1.149,2.828 2.81,-1.2 3.405,-1.455 2.712,-1.157 -1.116,-2.732 -10.35,-25.41 -0.472,-1.163 -1.16,-0.478 -27.525,-11.385 -1.143,-0.474 -1.146,0.474 -27.48,11.355 -1.15,0.474 -0.476,1.152 -10.398,25.14 -1.121,2.709 2.684,1.182 3.405,1.5 2.815,1.24 1.169,-2.85 0.195,-0.475 v 35.91 c -1.233,0.814 -2.422,1.691 -3.564,2.628 -1.383,1.035 -14.22,10.169 -38.837,12.087 L 569.5,881.5 v 3 l 11.712,0.027 c 25.58,-1.989 39.069,-11.592 40.602,-12.743 8.568,-7.05 21.212,-11.099 34.686,-11.099 0.518,0 3.963,0.067 6.398,0.247 3.317,0.363 6.604,0.968 9.834,1.81 3.466,0.944 6.844,2.189 10.093,3.722 0.023,0.012 2.336,1.179 4.671,2.567 3.506,2.409 6.848,5.05 10.004,7.904 l 1,0.901 v -4.021 c -2.977,-2.678 -6.142,-5.14 -9.471,-7.367 z m -68.499,-36.203 -3.405,-1.5 10.395,-25.14 27.48,-11.355 27.525,11.385 10.35,25.41 -3.405,1.455 -9.75,-24 -24.72,-10.2 -24.72,10.2 z m 31.581,17.505 -16.611,10.084 v -20.168 z m -12.75,-11.25 h 31.28 L 655,845.995 Z m 23.756,21.435 c -2.55,-0.189 -6.059,-0.255 -6.617,-0.255 -6.746,-0.018 -13.455,0.994 -19.896,3 L 655,849.503 l 16.05,9.75 c -2.617,-0.59 -5.266,-1.031 -7.933,-1.318 z M 674.5,857.834 657.889,847.75 674.5,837.666 Z m 9,5.633 c -1.62,-0.75 -3.727,-1.614 -6,-2.4 V 835 c 0,-0.828 -0.672,-1.5 -1.5,-1.5 h -42 c -0.828,0 -1.5,0.672 -1.5,1.5 v 27.15 c -2.058,0.822 -4.062,1.774 -6,2.85 v -41.4 l 6.079,-14.806 22.421,-9.25 22.414,9.25 6.086,14.982 z"
               id="path229" />
            <path
               d="m 667,808 h -24 c -0.828,0 -1.5,0.672 -1.5,1.5 v 15 c 0,0.828 0.672,1.5 1.5,1.5 h 24 c 0.828,0 1.5,-0.672 1.5,-1.5 v -15 c 0,-0.828 -0.672,-1.5 -1.5,-1.5 z m -1.5,15 h -21 v -12 h 21 z"
               id="path230" />
            <path
               d="m 569.5,799 h 7.5 v 3 h -7.5 z"
               id="path231" />
            <path
               d="m 579.76,793.51 -5.22,-5.325 2.13,-2.175 5.205,5.325 z"
               id="path232" />
            <path
               d="m 589,794.68 c 3.314,0 6,2.686 6,6 0,3.314 -2.686,6 -6,6 -3.314,0 -6,-2.686 -6,-6 0,-3.314 2.686,-6 6,-6 m 0,-3 c -4.971,0 -9,4.029 -9,9 0,4.971 4.029,9 9,9 4.971,0 9,-4.029 9,-9 0,-4.971 -4.029,-9 -9,-9 z"
               id="path233" />
            <path
               d="m 587.5,781 h 3 v 7.5 h -3 z"
               id="path234" />
            <path
               d="m 601,799 h 7.5 v 3 H 601 Z"
               id="path235" />
            <path
               d="m 598.24,793.51 5.22,-5.325 -2.13,-2.175 -5.205,5.325 z"
               id="path236" />
            <path
               d="m 579.76,807.655 -5.22,5.34 2.13,2.16 5.205,-5.325 z"
               id="path237" />
            <path
               d="m 587.5,812.68 h 3 v 7.5 h -3 z"
               id="path238" />
            <path
               d="m 598.24,807.655 5.22,5.34 -2.13,2.16 -5.205,-5.325 z"
               id="path239" />
          </g>
        </g>
      </g>
      <text
         font-family="Arial, Arial_MSFontService, sans-serif"
         font-weight="400"
         font-size="32px"
         transform="translate(318.294,830)"
         id="text241">Real<tspan
   font-size="32px"
   x="-64.120003"
   y="39"
   id="tspan241">Data Sources</tspan></text>
      <path
         d="m 708,826.25 h 60.5 V 815 L 791,837.5 768.5,860 V 848.75 H 708 Z"
         stroke="#6c4f00"
         stroke-width="2"
         stroke-miterlimit="8"
         fill="#ffc000"
         fill-rule="evenodd"
         id="path241" />
      <path
         d="m 1342.5,180.5 c 12.15,0 22,0.821 22,1.833 v 271.334 c 0,1.012 -9.85,1.833 -22,1.833"
         stroke="#262626"
         stroke-width="3"
         stroke-miterlimit="8"
         fill="none"
         fill-rule="evenodd"
         id="path242" />
      <path
         d="m 1342.5,463.5 c 12.7,0 23,0.858 23,1.916 v 275.168 c 0,1.058 -10.3,1.916 -23,1.916"
         stroke="#262626"
         stroke-width="3"
         stroke-miterlimit="8"
         fill="none"
         fill-rule="evenodd"
         id="path243" />
      <path
         d="m 1342.5,750.5 c 12.7,0 23,0.858 23,1.917 v 171.166 c 0,1.059 -10.3,1.917 -23,1.917"
         stroke="#262626"
         stroke-width="3"
         stroke-miterlimit="8"
         fill="none"
         fill-rule="evenodd"
         id="path244" />
      <text
         font-family="Arial, Arial_MSFontService, sans-serif"
         font-weight="400"
         font-size="32px"
         transform="translate(1380.03,329)"
         id="text245">Learning<tspan
   font-size="32px"
   x="-534.021"
   y="-112"
   id="tspan244">Training</tspan><tspan
   font-size="32px"
   x="0"
   y="284"
   id="tspan245">Testing</tspan></text>
      <rect
         x="279"
         y="529"
         width="12"
         height="13"
         fill="#0476a8"
         id="rect245" />
      <path
         d="m 291,575.5 c 0,3.59 -2.686,6.5 -6,6.5 -3.314,0 -6,-2.91 -6,-6.5 0,-3.59 2.686,-6.5 6,-6.5 3.314,0 6,2.91 6,6.5 z"
         fill="#d68828"
         fill-rule="evenodd"
         id="path245" />
      <rect
         x="279"
         y="648"
         width="12"
         height="13"
         fill="#0476a8"
         id="rect246" />
      <rect
         x="279"
         y="689"
         width="12"
         height="12"
         fill="#0476a8"
         id="rect247" />
      <path
         d="m 291,615 c 0,3.314 -2.686,6 -6,6 -3.314,0 -6,-2.686 -6,-6 0,-3.314 2.686,-6 6,-6 3.314,0 6,2.686 6,6 z"
         fill="#d68828"
         fill-rule="evenodd"
         id="path247" />
      <rect
         x="605"
         y="195"
         width="12"
         height="13"
         fill="#0476a8"
         id="rect248" />
      <path
         d="m 617,241.5 c 0,3.59 -2.686,6.5 -6,6.5 -3.314,0 -6,-2.91 -6,-6.5 0,-3.59 2.686,-6.5 6,-6.5 3.314,0 6,2.91 6,6.5 z"
         fill="#d68828"
         fill-rule="evenodd"
         id="path248" />
      <path
         d="m 617,281 c 0,3.314 -2.686,6 -6,6 -3.314,0 -6,-2.686 -6,-6 0,-3.314 2.686,-6 6,-6 3.314,0 6,2.686 6,6 z"
         fill="#d68828"
         fill-rule="evenodd"
         id="path249" />
      <rect
         x="1217"
         y="688"
         width="13"
         height="13"
         fill="#0476a8"
         id="rect249" />
      <path
         d="m 1230,655 c 0,3.314 -2.91,6 -6.5,6 -3.59,0 -6.5,-2.686 -6.5,-6 0,-3.314 2.91,-6 6.5,-6 3.59,0 6.5,2.686 6.5,6 z"
         fill="#d68828"
         fill-rule="evenodd"
         id="path250" />
      <text
         font-family="Arial, Arial_MSFontService, sans-serif"
         font-weight="400"
         font-size="32px"
         transform="translate(1382.82,849)"
         id="text250">Deploying</text>
      <path
         d="m 1229.54,935.01 -44.13,8.415 -44.08,8.101 -44.17,7.668 -44.1,6.914 -44.22,5.981 -44.162,4.726 -22.089,1.863 -22.172,1.428 -22.071,0.984 -22.164,0.55 -22.768,-0.108 -23.736,-0.745 -24.517,-1.393 -25.1,-1.925 -25.367,-2.286 -25.45,-2.72 -25.332,-2.975 -24.901,-3.124 -24.28,-3.281 -23.462,-3.262 -22.329,-3.196 -10.726,-1.559 0.007,10e-4 -10.347,-1.454 -9.972,-1.474 h 0.005 l -9.523,-1.371 h 0.006 l -9.081,-1.27 -8.569,-1.171 0.007,10e-4 -8.13,-1.07 -7.559,-0.975 0.011,10e-4 -3.486,-0.424 0.362,-2.978 3.492,0.425 7.571,0.976 8.135,1.071 8.582,1.173 9.083,1.271 9.53,1.372 9.97,1.474 -0.011,-10e-4 10.345,1.454 10.723,1.559 22.326,3.195 -0.006,-10e-4 23.456,3.261 -0.006,-10e-4 24.271,3.28 -0.014,-0.002 24.888,3.122 -0.012,-10e-4 25.318,2.974 -0.015,-0.002 25.43,2.718 -0.025,-0.003 25.344,2.284 -0.02,-10e-4 25.075,1.923 -0.029,-0.002 24.483,1.391 -0.038,-0.002 23.698,0.744 h -0.04 l 22.725,0.107 -0.045,10e-4 22.127,-0.55 -0.029,10e-4 22.041,-0.983 -0.029,0.002 22.143,-1.426 -0.03,0.002 22.057,-1.86 -0.033,0.003 44.124,-4.721 -0.04,0.005 44.18,-5.977 -0.03,0.005 44.07,-6.91 -0.02,0.004 44.15,-7.665 -0.01,0.003 44.07,-8.099 -0.01,0.002 44.11,-8.414 z m -696.497,15.554 -11.209,-7.372 12.623,-4.544 z"
         fill="#262626"
         id="path251" />
      <text
         font-family="Arial, Arial_MSFontService, sans-serif"
         font-weight="400"
         font-size="32px"
         transform="translate(831.912,1013)"
         id="text251">Action</text>
    </g>
  </g>
</svg>
