<?xml version="1.0" encoding="UTF-8" standalone="no"?>
<!-- Created with Inkscape (http://www.inkscape.org/) -->

<svg
   width="508mm"
   height="200.58208mm"
   viewBox="0 0 507.99999 200.58208"
   version="1.1"
   id="svg1"
   inkscape:version="1.3.2 (091e20e, 2023-11-25, custom)"
   sodipodi:docname="universaltheorem1.svg"
   xmlns:inkscape="http://www.inkscape.org/namespaces/inkscape"
   xmlns:sodipodi="http://sodipodi.sourceforge.net/DTD/sodipodi-0.dtd"
   xmlns="http://www.w3.org/2000/svg"
   xmlns:svg="http://www.w3.org/2000/svg">
  <sodipodi:namedview
     id="namedview1"
     pagecolor="#ffffff"
     bordercolor="#000000"
     borderopacity="0.25"
     inkscape:showpageshadow="2"
     inkscape:pageopacity="0.0"
     inkscape:pagecheckerboard="0"
     inkscape:deskcolor="#d1d1d1"
     inkscape:document-units="mm"
     inkscape:zoom="1.1500912"
     inkscape:cx="657.77392"
     inkscape:cy="132.59818"
     inkscape:window-width="2880"
     inkscape:window-height="1514"
     inkscape:window-x="-11"
     inkscape:window-y="1600"
     inkscape:window-maximized="1"
     inkscape:current-layer="layer1" />
  <defs
     id="defs1">
    <clipPath
       id="clip0">
      <rect
         x="563"
         y="234"
         width="869"
         height="702"
         id="rect1" />
    </clipPath>
    <clipPath
       id="clip0-0">
      <rect
         x="25"
         y="-12"
         width="1920"
         height="1141"
         id="rect1-8" />
    </clipPath>
    <clipPath
       id="clip0-9">
      <rect
         x="25"
         y="72"
         width="1920"
         height="789"
         id="rect1-9" />
    </clipPath>
  </defs>
  <g
     inkscape:label="Layer 1"
     inkscape:groupmode="layer"
     id="layer1"
     transform="translate(69.056254,-113.49282)">
    <g
       clip-path="url(#clip0-9)"
       transform="matrix(0.26458333,0,0,0.26458333,-75.670837,94.442816)"
       id="g48">
      <path
         d="m 469,693 c 0,-39.765 32.236,-72 72,-72 39.765,0 72,32.235 72,72 0,39.765 -32.235,72 -72,72 -39.764,0 -72,-32.235 -72,-72 z"
         stroke="#2f528f"
         stroke-width="2"
         stroke-miterlimit="8"
         fill="#a9d18e"
         fill-rule="evenodd"
         id="path1" />
      <path
         d="m 765,693 c 0,-39.765 32.235,-72 72,-72 39.765,0 72,32.235 72,72 0,39.765 -32.235,72 -72,72 -39.765,0 -72,-32.235 -72,-72 z"
         stroke="#2f528f"
         stroke-width="2"
         stroke-miterlimit="8"
         fill="#a9d18e"
         fill-rule="evenodd"
         id="path2" />
      <path
         d="m 1061,693 c 0,-39.765 32.24,-72 72,-72 39.76,0 72,32.235 72,72 0,39.765 -32.24,72 -72,72 -39.76,0 -72,-32.235 -72,-72 z"
         stroke="#2f528f"
         stroke-width="2"
         stroke-miterlimit="8"
         fill="#a9d18e"
         fill-rule="evenodd"
         id="path3" />
      <path
         d="m 1356,693 c 0,-39.765 32.24,-72 72,-72 39.76,0 72,32.235 72,72 0,39.765 -32.24,72 -72,72 -39.76,0 -72,-32.235 -72,-72 z"
         stroke="#2f528f"
         stroke-width="2"
         stroke-miterlimit="8"
         fill="#a9d18e"
         fill-rule="evenodd"
         id="path4" />
      <path
         d="m 913,145 c 0,-39.765 32.235,-72 72,-72 39.76,0 72,32.235 72,72 0,39.764 -32.24,72 -72,72 -39.765,0 -72,-32.236 -72,-72 z"
         stroke="#2f528f"
         stroke-width="2"
         stroke-miterlimit="8"
         fill="#ed7d31"
         fill-rule="evenodd"
         id="path5" />
      <path
         d="m 617,420 c 0,-39.764 32.235,-72 72,-72 39.765,0 72,32.236 72,72 0,39.764 -32.235,72 -72,72 -39.765,0 -72,-32.236 -72,-72 z"
         stroke="#2f528f"
         stroke-width="2"
         stroke-miterlimit="8"
         fill="#4472c4"
         fill-rule="evenodd"
         id="path6" />
      <path
         d="m 913,420 c 0,-39.764 32.235,-72 72,-72 39.76,0 72,32.236 72,72 0,39.764 -32.24,72 -72,72 -39.765,0 -72,-32.236 -72,-72 z"
         stroke="#2f528f"
         stroke-width="2"
         stroke-miterlimit="8"
         fill="#4472c4"
         fill-rule="evenodd"
         id="path7" />
      <path
         d="m 1208,420 c 0,-39.764 32.24,-72 72,-72 39.76,0 72,32.236 72,72 0,39.764 -32.24,72 -72,72 -39.76,0 -72,-32.236 -72,-72 z"
         stroke="#2f528f"
         stroke-width="2"
         stroke-miterlimit="8"
         fill="#4472c4"
         fill-rule="evenodd"
         id="path8" />
      <path
         d="m 1504,420 c 0,-39.764 32.24,-72 72,-72 39.76,0 72,32.236 72,72 0,39.764 -32.24,72 -72,72 -39.76,0 -72,-32.236 -72,-72 z"
         stroke="#2f528f"
         stroke-width="2"
         stroke-miterlimit="8"
         fill="#4472c4"
         fill-rule="evenodd"
         id="path9" />
      <path
         d="m 26,423 c 0,-39.764 32.2355,-72 72,-72 39.764,0 72,32.236 72,72 0,39.764 -32.236,72 -72,72 -39.7645,0 -72,-32.236 -72,-72 z"
         stroke="#2f528f"
         stroke-width="2"
         stroke-miterlimit="8"
         fill="#4472c4"
         fill-rule="evenodd"
         id="path10" />
      <path
         d="m 321,423 c 0,-39.764 32.236,-72 72,-72 39.764,0 72,32.236 72,72 0,39.764 -32.236,72 -72,72 -39.764,0 -72,-32.236 -72,-72 z"
         stroke="#2f528f"
         stroke-width="2"
         stroke-miterlimit="8"
         fill="#4472c4"
         fill-rule="evenodd"
         id="path11" />
      <path
         d="m 1800,420 c 0,-39.764 32.24,-72 72,-72 39.76,0 72,32.236 72,72 0,39.764 -32.24,72 -72,72 -39.76,0 -72,-32.236 -72,-72 z"
         stroke="#2f528f"
         stroke-width="2"
         stroke-miterlimit="8"
         fill="#4472c4"
         fill-rule="evenodd"
         id="path12" />
      <path
         d="M 542.253,622.016 98.5,495.5"
         stroke="#000000"
         stroke-miterlimit="8"
         fill="none"
         fill-rule="evenodd"
         id="path13" />
      <path
         d="M 541.583,622.016 393.5,495.5"
         stroke="#000000"
         stroke-miterlimit="8"
         fill="none"
         fill-rule="evenodd"
         id="path14" />
      <path
         d="M 0,0 147.588,128.866"
         stroke="#000000"
         stroke-miterlimit="8"
         fill="none"
         fill-rule="evenodd"
         transform="matrix(1,0,0,-1,541.5,621.366)"
         id="path15" />
      <path
         d="M 0,0 443.258,128.866"
         stroke="#000000"
         stroke-miterlimit="8"
         fill="none"
         fill-rule="evenodd"
         transform="matrix(1,0,0,-1,541.5,621.366)"
         id="path16" />
      <path
         d="M 0,0 738.928,128.866"
         stroke="#000000"
         stroke-miterlimit="8"
         fill="none"
         fill-rule="evenodd"
         transform="matrix(1,0,0,-1,541.5,621.366)"
         id="path17" />
      <path
         d="M 0,0 1034.6,128.866"
         stroke="#000000"
         stroke-miterlimit="8"
         fill="none"
         fill-rule="evenodd"
         transform="matrix(1,0,0,-1,541.5,621.366)"
         id="path18" />
      <path
         d="M 0,0 1330.76,128.866"
         stroke="#000000"
         stroke-miterlimit="8"
         fill="none"
         fill-rule="evenodd"
         transform="matrix(1,0,0,-1,541.5,621.366)"
         id="path19" />
      <path
         d="M 98.5,495.5 1429.26,622.016"
         stroke="#000000"
         stroke-miterlimit="8"
         fill="none"
         fill-rule="evenodd"
         id="path20" />
      <path
         d="M 393.5,495.5 1428.59,622.016"
         stroke="#000000"
         stroke-miterlimit="8"
         fill="none"
         fill-rule="evenodd"
         id="path21" />
      <path
         d="m 689.5,492.5 739.42,128.866"
         stroke="#000000"
         stroke-miterlimit="8"
         fill="none"
         fill-rule="evenodd"
         id="path22" />
      <path
         d="m 985.5,492.5 443.75,128.866"
         stroke="#000000"
         stroke-miterlimit="8"
         fill="none"
         fill-rule="evenodd"
         id="path23" />
      <path
         d="m 1280.5,492.5 148.08,128.866"
         stroke="#000000"
         stroke-miterlimit="8"
         fill="none"
         fill-rule="evenodd"
         id="path24" />
      <path
         d="M 0,0 147.588,128.866"
         stroke="#000000"
         stroke-miterlimit="8"
         fill="none"
         fill-rule="evenodd"
         transform="matrix(-1,0,0,1,1576.09,492.5)"
         id="path25" />
      <path
         d="M 0,0 443.752,128.866"
         stroke="#000000"
         stroke-miterlimit="8"
         fill="none"
         fill-rule="evenodd"
         transform="matrix(-1,0,0,1,1872.25,492.5)"
         id="path26" />
      <path
         d="M 0,0 739.423,128.866"
         stroke="#000000"
         stroke-miterlimit="8"
         fill="none"
         fill-rule="evenodd"
         transform="matrix(-1,0,0,1,1872.92,492.5)"
         id="path27" />
      <path
         d="M 0,0 443.258,128.866"
         stroke="#000000"
         stroke-miterlimit="8"
         fill="none"
         fill-rule="evenodd"
         transform="matrix(-1,0,0,1,1576.76,492.5)"
         id="path28" />
      <path
         d="M 0,0 147.588,128.866"
         stroke="#000000"
         stroke-miterlimit="8"
         fill="none"
         fill-rule="evenodd"
         transform="matrix(-1,0,0,1,1281.09,492.5)"
         id="path29" />
      <path
         d="m 985.5,492.5 148.08,128.866"
         stroke="#000000"
         stroke-miterlimit="8"
         fill="none"
         fill-rule="evenodd"
         id="path30" />
      <path
         d="m 689.5,492.5 443.75,128.866"
         stroke="#000000"
         stroke-miterlimit="8"
         fill="none"
         fill-rule="evenodd"
         id="path31" />
      <path
         d="m 393.5,495.5 739.42,126.516"
         stroke="#000000"
         stroke-miterlimit="8"
         fill="none"
         fill-rule="evenodd"
         id="path32" />
      <path
         d="M 98.5,495.5 1133.59,622.016"
         stroke="#000000"
         stroke-miterlimit="8"
         fill="none"
         fill-rule="evenodd"
         id="path33" />
      <path
         d="M 837.923,622.016 98.5,495.5"
         stroke="#000000"
         stroke-miterlimit="8"
         fill="none"
         fill-rule="evenodd"
         id="path34" />
      <path
         d="M 837.253,622.016 393.5,495.5"
         stroke="#000000"
         stroke-miterlimit="8"
         fill="none"
         fill-rule="evenodd"
         id="path35" />
      <path
         d="M 837.583,621.366 689.5,492.5"
         stroke="#000000"
         stroke-miterlimit="8"
         fill="none"
         fill-rule="evenodd"
         id="path36" />
      <path
         d="M 0,0 147.588,128.866"
         stroke="#000000"
         stroke-miterlimit="8"
         fill="none"
         fill-rule="evenodd"
         transform="matrix(1,0,0,-1,837.5,621.366)"
         id="path37" />
      <path
         d="M 0,0 443.258,128.866"
         stroke="#000000"
         stroke-miterlimit="8"
         fill="none"
         fill-rule="evenodd"
         transform="matrix(1,0,0,-1,837.5,621.366)"
         id="path38" />
      <path
         d="M 0,0 738.928,128.866"
         stroke="#000000"
         stroke-miterlimit="8"
         fill="none"
         fill-rule="evenodd"
         transform="matrix(1,0,0,-1,837.5,621.366)"
         id="path39" />
      <path
         d="M 0,0 1035.09,128.866"
         stroke="#000000"
         stroke-miterlimit="8"
         fill="none"
         fill-rule="evenodd"
         transform="matrix(1,0,0,-1,837.5,621.366)"
         id="path40" />
      <path
         d="M 0,0 887.505,131.533"
         stroke="#000000"
         stroke-miterlimit="8"
         fill="none"
         fill-rule="evenodd"
         transform="matrix(-1,0,0,1,985.005,217.5)"
         id="path41" />
      <path
         d="M 0,0 591.835,131.533"
         stroke="#000000"
         stroke-miterlimit="8"
         fill="none"
         fill-rule="evenodd"
         transform="matrix(-1,0,0,1,985.335,217.5)"
         id="path42" />
      <path
         d="M 0,0 296.165,129.182"
         stroke="#000000"
         stroke-miterlimit="8"
         fill="none"
         fill-rule="evenodd"
         transform="matrix(-1,0,0,1,985.665,217.5)"
         id="path43" />
      <path
         d="M 0,0 0.494803,129.182"
         stroke="#000000"
         stroke-miterlimit="8"
         fill="none"
         fill-rule="evenodd"
         transform="matrix(-1,0,0,1,984.995,217.5)"
         id="path44" />
      <path
         d="m 985.5,217.5 295.18,129.182"
         stroke="#000000"
         stroke-miterlimit="8"
         fill="none"
         fill-rule="evenodd"
         id="path45" />
      <path
         d="m 985.5,217.5 590.85,129.182"
         stroke="#000000"
         stroke-miterlimit="8"
         fill="none"
         fill-rule="evenodd"
         id="path46" />
      <path
         d="m 985.5,217.5 887.01,129.182"
         stroke="#000000"
         stroke-miterlimit="8"
         fill="none"
         fill-rule="evenodd"
         id="path47" />
      <path
         d="m 1506.5,765.5 c 0,12.15 -0.82,22 -1.83,22 H 465.333 c -1.012,0 -1.833,-9.85 -1.833,-22"
         stroke="#000000"
         stroke-miterlimit="8"
         fill="none"
         fill-rule="evenodd"
         id="path48" />
      <text
         font-family="Calibri, Calibri_MSFontService, sans-serif"
         font-weight="400"
         font-size="36px"
         transform="translate(975.132,830)"
         id="text48">n</text>
    </g>
  </g>
</svg>
