<?xml version="1.0" encoding="UTF-8" standalone="no"?>
<!-- Created with Inkscape (http://www.inkscape.org/) -->

<svg
   width="508mm"
   height="286.3205mm"
   viewBox="0 0 507.99999 286.3205"
   version="1.1"
   id="svg1"
   inkscape:version="1.3.2 (091e20e, 2023-11-25, custom)"
   sodipodi:docname="universaltheorem2.svg"
   xmlns:inkscape="http://www.inkscape.org/namespaces/inkscape"
   xmlns:sodipodi="http://sodipodi.sourceforge.net/DTD/sodipodi-0.dtd"
   xmlns="http://www.w3.org/2000/svg"
   xmlns:svg="http://www.w3.org/2000/svg">
  <sodipodi:namedview
     id="namedview1"
     pagecolor="#ffffff"
     bordercolor="#000000"
     borderopacity="0.25"
     inkscape:showpageshadow="2"
     inkscape:pageopacity="0.0"
     inkscape:pagecheckerboard="0"
     inkscape:deskcolor="#d1d1d1"
     inkscape:document-units="mm"
     inkscape:zoom="1.1500912"
     inkscape:cx="1375.9778"
     inkscape:cy="660.38241"
     inkscape:window-width="2880"
     inkscape:window-height="1514"
     inkscape:window-x="-11"
     inkscape:window-y="1600"
     inkscape:window-maximized="1"
     inkscape:current-layer="layer1" />
  <defs
     id="defs1">
    <clipPath
       id="clip0">
      <rect
         x="563"
         y="234"
         width="869"
         height="702"
         id="rect1" />
    </clipPath>
    <clipPath
       id="clip0-0">
      <rect
         x="25"
         y="-12"
         width="1920"
         height="1141"
         id="rect1-8" />
    </clipPath>
  </defs>
  <g
     inkscape:label="Layer 1"
     inkscape:groupmode="layer"
     id="layer1"
     transform="translate(259.02709,26.207184)">
    <g
       clip-path="url(#clip0-0)"
       transform="matrix(0.26458333,0,0,0.26458333,-265.64167,-30.427081)"
       id="g88">
      <path
         d="m 953.17,498.48 h 60.75 v 107 h -60.75 z"
         fill="#ffffff"
         fill-rule="evenodd"
         id="path1" />
      <text
         font-family="Calibri, Calibri_MSFontService, sans-serif"
         font-weight="400"
         font-size="88px"
         transform="translate(953.17,582)"
         id="text1">…</text>
      <path
         d="m 469,961 c 0,-39.765 32.236,-72 72,-72 39.765,0 72,32.235 72,72 0,39.76 -32.235,72 -72,72 -39.764,0 -72,-32.24 -72,-72 z"
         stroke="#2f528f"
         stroke-width="2"
         stroke-miterlimit="8"
         fill="#a9d18e"
         fill-rule="evenodd"
         id="path2" />
      <path
         d="m 765,961 c 0,-39.765 32.235,-72 72,-72 39.765,0 72,32.235 72,72 0,39.76 -32.235,72 -72,72 -39.765,0 -72,-32.24 -72,-72 z"
         stroke="#2f528f"
         stroke-width="2"
         stroke-miterlimit="8"
         fill="#a9d18e"
         fill-rule="evenodd"
         id="path3" />
      <path
         d="m 1061,961 c 0,-39.765 32.24,-72 72,-72 39.76,0 72,32.235 72,72 0,39.76 -32.24,72 -72,72 -39.76,0 -72,-32.24 -72,-72 z"
         stroke="#2f528f"
         stroke-width="2"
         stroke-miterlimit="8"
         fill="#a9d18e"
         fill-rule="evenodd"
         id="path4" />
      <path
         d="m 1356,961 c 0,-39.765 32.24,-72 72,-72 39.76,0 72,32.235 72,72 0,39.76 -32.24,72 -72,72 -39.76,0 -72,-32.24 -72,-72 z"
         stroke="#2f528f"
         stroke-width="2"
         stroke-miterlimit="8"
         fill="#a9d18e"
         fill-rule="evenodd"
         id="path5" />
      <path
         d="m 617,145 c 0,-39.765 32.235,-72 72,-72 39.765,0 72,32.235 72,72 0,39.764 -32.235,72 -72,72 -39.765,0 -72,-32.236 -72,-72 z"
         stroke="#2f528f"
         stroke-width="2"
         stroke-miterlimit="8"
         fill="#ed7d31"
         fill-rule="evenodd"
         id="path6" />
      <path
         d="m 913,145 c 0,-39.765 32.235,-72 72,-72 39.76,0 72,32.235 72,72 0,39.764 -32.24,72 -72,72 -39.765,0 -72,-32.236 -72,-72 z"
         stroke="#2f528f"
         stroke-width="2"
         stroke-miterlimit="8"
         fill="#ed7d31"
         fill-rule="evenodd"
         id="path7" />
      <path
         d="m 1209,145 c 0,-39.765 32.24,-72 72,-72 39.76,0 72,32.235 72,72 0,39.764 -32.24,72 -72,72 -39.76,0 -72,-32.236 -72,-72 z"
         stroke="#2f528f"
         stroke-width="2"
         stroke-miterlimit="8"
         fill="#ed7d31"
         fill-rule="evenodd"
         id="path8" />
      <path
         d="m 617,416 c 0,-39.764 32.235,-72 72,-72 39.765,0 72,32.236 72,72 0,39.764 -32.235,72 -72,72 -39.765,0 -72,-32.236 -72,-72 z"
         stroke="#2f528f"
         stroke-width="2"
         stroke-miterlimit="8"
         fill="#4472c4"
         fill-rule="evenodd"
         id="path9" />
      <path
         d="m 913,416 c 0,-39.764 32.235,-72 72,-72 39.76,0 72,32.236 72,72 0,39.764 -32.24,72 -72,72 -39.765,0 -72,-32.236 -72,-72 z"
         stroke="#2f528f"
         stroke-width="2"
         stroke-miterlimit="8"
         fill="#4472c4"
         fill-rule="evenodd"
         id="path10" />
      <path
         d="m 1208,416 c 0,-39.764 32.24,-72 72,-72 39.76,0 72,32.236 72,72 0,39.764 -32.24,72 -72,72 -39.76,0 -72,-32.236 -72,-72 z"
         stroke="#2f528f"
         stroke-width="2"
         stroke-miterlimit="8"
         fill="#4472c4"
         fill-rule="evenodd"
         id="path11" />
      <path
         d="m 1504,416 c 0,-39.764 32.24,-72 72,-72 39.76,0 72,32.236 72,72 0,39.764 -32.24,72 -72,72 -39.76,0 -72,-32.236 -72,-72 z"
         stroke="#2f528f"
         stroke-width="2"
         stroke-miterlimit="8"
         fill="#4472c4"
         fill-rule="evenodd"
         id="path12" />
      <path
         d="m 26,418 c 0,-39.764 32.2355,-72 72,-72 39.764,0 72,32.236 72,72 0,39.764 -32.236,72 -72,72 -39.7645,0 -72,-32.236 -72,-72 z"
         stroke="#2f528f"
         stroke-width="2"
         stroke-miterlimit="8"
         fill="#4472c4"
         fill-rule="evenodd"
         id="path13" />
      <path
         d="m 321,418 c 0,-39.764 32.236,-72 72,-72 39.764,0 72,32.236 72,72 0,39.764 -32.236,72 -72,72 -39.764,0 -72,-32.236 -72,-72 z"
         stroke="#2f528f"
         stroke-width="2"
         stroke-miterlimit="8"
         fill="#4472c4"
         fill-rule="evenodd"
         id="path14" />
      <path
         d="m 1800,416 c 0,-39.764 32.24,-72 72,-72 39.76,0 72,32.236 72,72 0,39.764 -32.24,72 -72,72 -39.76,0 -72,-32.236 -72,-72 z"
         stroke="#2f528f"
         stroke-width="2"
         stroke-miterlimit="8"
         fill="#4472c4"
         fill-rule="evenodd"
         id="path15" />
      <path
         d="m 617,688 c 0,-39.765 32.235,-72 72,-72 39.765,0 72,32.235 72,72 0,39.765 -32.235,72 -72,72 -39.765,0 -72,-32.235 -72,-72 z"
         stroke="#2f528f"
         stroke-width="2"
         stroke-miterlimit="8"
         fill="#4472c4"
         fill-rule="evenodd"
         id="path16" />
      <path
         d="m 913,688 c 0,-39.765 32.235,-72 72,-72 39.76,0 72,32.235 72,72 0,39.765 -32.24,72 -72,72 -39.765,0 -72,-32.235 -72,-72 z"
         stroke="#2f528f"
         stroke-width="2"
         stroke-miterlimit="8"
         fill="#4472c4"
         fill-rule="evenodd"
         id="path17" />
      <path
         d="m 1208,688 c 0,-39.765 32.24,-72 72,-72 39.76,0 72,32.235 72,72 0,39.765 -32.24,72 -72,72 -39.76,0 -72,-32.235 -72,-72 z"
         stroke="#2f528f"
         stroke-width="2"
         stroke-miterlimit="8"
         fill="#4472c4"
         fill-rule="evenodd"
         id="path18" />
      <path
         d="m 1504,688 c 0,-39.765 32.24,-72 72,-72 39.76,0 72,32.235 72,72 0,39.765 -32.24,72 -72,72 -39.76,0 -72,-32.235 -72,-72 z"
         stroke="#2f528f"
         stroke-width="2"
         stroke-miterlimit="8"
         fill="#4472c4"
         fill-rule="evenodd"
         id="path19" />
      <path
         d="m 26,691 c 0,-39.765 32.2355,-72 72,-72 39.764,0 72,32.235 72,72 0,39.765 -32.236,72 -72,72 -39.7645,0 -72,-32.235 -72,-72 z"
         stroke="#2f528f"
         stroke-width="2"
         stroke-miterlimit="8"
         fill="#4472c4"
         fill-rule="evenodd"
         id="path20" />
      <path
         d="m 321,691 c 0,-39.765 32.236,-72 72,-72 39.764,0 72,32.235 72,72 0,39.765 -32.236,72 -72,72 -39.764,0 -72,-32.235 -72,-72 z"
         stroke="#2f528f"
         stroke-width="2"
         stroke-miterlimit="8"
         fill="#4472c4"
         fill-rule="evenodd"
         id="path21" />
      <path
         d="m 1800,688 c 0,-39.765 32.24,-72 72,-72 39.76,0 72,32.235 72,72 0,39.765 -32.24,72 -72,72 -39.76,0 -72,-32.235 -72,-72 z"
         stroke="#2f528f"
         stroke-width="2"
         stroke-miterlimit="8"
         fill="#4472c4"
         fill-rule="evenodd"
         id="path22" />
      <path
         d="M 542.253,890.016 98.5,763.5"
         stroke="#000000"
         stroke-miterlimit="8"
         fill="none"
         fill-rule="evenodd"
         id="path23" />
      <path
         d="M 541.583,890.016 393.5,763.5"
         stroke="#000000"
         stroke-miterlimit="8"
         fill="none"
         fill-rule="evenodd"
         id="path24" />
      <path
         d="M 0,0 147.588,128.866"
         stroke="#000000"
         stroke-miterlimit="8"
         fill="none"
         fill-rule="evenodd"
         transform="matrix(1,0,0,-1,541.5,889.366)"
         id="path25" />
      <path
         d="M 0,0 443.258,128.866"
         stroke="#000000"
         stroke-miterlimit="8"
         fill="none"
         fill-rule="evenodd"
         transform="matrix(1,0,0,-1,541.5,889.366)"
         id="path26" />
      <path
         d="M 0,0 738.928,128.866"
         stroke="#000000"
         stroke-miterlimit="8"
         fill="none"
         fill-rule="evenodd"
         transform="matrix(1,0,0,-1,541.5,889.366)"
         id="path27" />
      <path
         d="M 0,0 1034.6,128.866"
         stroke="#000000"
         stroke-miterlimit="8"
         fill="none"
         fill-rule="evenodd"
         transform="matrix(1,0,0,-1,541.5,889.366)"
         id="path28" />
      <path
         d="M 0,0 1330.76,128.866"
         stroke="#000000"
         stroke-miterlimit="8"
         fill="none"
         fill-rule="evenodd"
         transform="matrix(1,0,0,-1,541.5,889.366)"
         id="path29" />
      <path
         d="M 98.5,763.5 1429.26,890.016"
         stroke="#000000"
         stroke-miterlimit="8"
         fill="none"
         fill-rule="evenodd"
         id="path30" />
      <path
         d="M 393.5,763.5 1428.59,890.016"
         stroke="#000000"
         stroke-miterlimit="8"
         fill="none"
         fill-rule="evenodd"
         id="path31" />
      <path
         d="m 689.5,760.5 739.42,128.866"
         stroke="#000000"
         stroke-miterlimit="8"
         fill="none"
         fill-rule="evenodd"
         id="path32" />
      <path
         d="m 985.5,760.5 443.75,128.866"
         stroke="#000000"
         stroke-miterlimit="8"
         fill="none"
         fill-rule="evenodd"
         id="path33" />
      <path
         d="m 1280.5,760.5 148.08,128.866"
         stroke="#000000"
         stroke-miterlimit="8"
         fill="none"
         fill-rule="evenodd"
         id="path34" />
      <path
         d="M 0,0 147.588,128.866"
         stroke="#000000"
         stroke-miterlimit="8"
         fill="none"
         fill-rule="evenodd"
         transform="matrix(-1,0,0,1,1576.09,760.5)"
         id="path35" />
      <path
         d="M 0,0 443.752,128.866"
         stroke="#000000"
         stroke-miterlimit="8"
         fill="none"
         fill-rule="evenodd"
         transform="matrix(-1,0,0,1,1872.25,760.5)"
         id="path36" />
      <path
         d="M 0,0 739.423,128.866"
         stroke="#000000"
         stroke-miterlimit="8"
         fill="none"
         fill-rule="evenodd"
         transform="matrix(-1,0,0,1,1872.92,760.5)"
         id="path37" />
      <path
         d="M 0,0 443.258,128.866"
         stroke="#000000"
         stroke-miterlimit="8"
         fill="none"
         fill-rule="evenodd"
         transform="matrix(-1,0,0,1,1576.76,760.5)"
         id="path38" />
      <path
         d="M 0,0 147.588,128.866"
         stroke="#000000"
         stroke-miterlimit="8"
         fill="none"
         fill-rule="evenodd"
         transform="matrix(-1,0,0,1,1281.09,760.5)"
         id="path39" />
      <path
         d="m 985.5,760.5 148.08,128.866"
         stroke="#000000"
         stroke-miterlimit="8"
         fill="none"
         fill-rule="evenodd"
         id="path40" />
      <path
         d="m 689.5,760.5 443.75,128.866"
         stroke="#000000"
         stroke-miterlimit="8"
         fill="none"
         fill-rule="evenodd"
         id="path41" />
      <path
         d="m 393.5,763.5 739.42,126.516"
         stroke="#000000"
         stroke-miterlimit="8"
         fill="none"
         fill-rule="evenodd"
         id="path42" />
      <path
         d="M 98.5,763.5 1133.59,890.016"
         stroke="#000000"
         stroke-miterlimit="8"
         fill="none"
         fill-rule="evenodd"
         id="path43" />
      <path
         d="M 837.923,890.016 98.5,763.5"
         stroke="#000000"
         stroke-miterlimit="8"
         fill="none"
         fill-rule="evenodd"
         id="path44" />
      <path
         d="M 837.253,890.016 393.5,763.5"
         stroke="#000000"
         stroke-miterlimit="8"
         fill="none"
         fill-rule="evenodd"
         id="path45" />
      <path
         d="M 837.583,889.366 689.5,760.5"
         stroke="#000000"
         stroke-miterlimit="8"
         fill="none"
         fill-rule="evenodd"
         id="path46" />
      <path
         d="M 0,0 147.588,128.866"
         stroke="#000000"
         stroke-miterlimit="8"
         fill="none"
         fill-rule="evenodd"
         transform="matrix(1,0,0,-1,837.5,889.366)"
         id="path47" />
      <path
         d="M 0,0 443.258,128.866"
         stroke="#000000"
         stroke-miterlimit="8"
         fill="none"
         fill-rule="evenodd"
         transform="matrix(1,0,0,-1,837.5,889.366)"
         id="path48" />
      <path
         d="M 0,0 738.928,128.866"
         stroke="#000000"
         stroke-miterlimit="8"
         fill="none"
         fill-rule="evenodd"
         transform="matrix(1,0,0,-1,837.5,889.366)"
         id="path49" />
      <path
         d="M 0,0 1035.09,128.866"
         stroke="#000000"
         stroke-miterlimit="8"
         fill="none"
         fill-rule="evenodd"
         transform="matrix(1,0,0,-1,837.5,889.366)"
         id="path50" />
      <path
         d="M 0,0 591.588,128.866"
         stroke="#000000"
         stroke-miterlimit="8"
         fill="none"
         fill-rule="evenodd"
         transform="matrix(-1,0,0,1,690.088,217.5)"
         id="path51" />
      <path
         d="M 0,0 887.258,128.866"
         stroke="#000000"
         stroke-miterlimit="8"
         fill="none"
         fill-rule="evenodd"
         transform="matrix(-1,0,0,1,985.758,217.5)"
         id="path52" />
      <path
         d="M 0,0 1182.93,128.866"
         stroke="#000000"
         stroke-miterlimit="8"
         fill="none"
         fill-rule="evenodd"
         transform="matrix(-1,0,0,1,1281.43,217.5)"
         id="path53" />
      <path
         d="M 0,0 887.258,128.866"
         stroke="#000000"
         stroke-miterlimit="8"
         fill="none"
         fill-rule="evenodd"
         transform="matrix(-1,0,0,1,1280.76,217.5)"
         id="path54" />
      <path
         d="M 0,0 591.588,128.866"
         stroke="#000000"
         stroke-miterlimit="8"
         fill="none"
         fill-rule="evenodd"
         transform="matrix(-1,0,0,1,985.088,217.5)"
         id="path55" />
      <path
         d="M 0,0 295.917,128.866"
         stroke="#000000"
         stroke-miterlimit="8"
         fill="none"
         fill-rule="evenodd"
         transform="matrix(-1,0,0,1,689.417,217.5)"
         id="path56" />
      <path
         d="M 0,0 0.247402,126.515"
         stroke="#000000"
         stroke-miterlimit="8"
         fill="none"
         fill-rule="evenodd"
         transform="matrix(-1,0,0,1,689.747,217.5)"
         id="path57" />
      <path
         d="M 0,0 295.917,126.515"
         stroke="#000000"
         stroke-miterlimit="8"
         fill="none"
         fill-rule="evenodd"
         transform="matrix(-1,0,0,1,985.417,217.5)"
         id="path58" />
      <path
         d="M 0,0 591.588,126.515"
         stroke="#000000"
         stroke-miterlimit="8"
         fill="none"
         fill-rule="evenodd"
         transform="matrix(-1,0,0,1,1281.09,217.5)"
         id="path59" />
      <path
         d="M 0,0 591.588,126.515"
         stroke="#000000"
         stroke-miterlimit="8"
         fill="none"
         fill-rule="evenodd"
         transform="matrix(-1,0,0,1,1281.09,217.5)"
         id="path60" />
      <path
         d="M 0,0 295.917,126.515"
         stroke="#000000"
         stroke-miterlimit="8"
         fill="none"
         fill-rule="evenodd"
         transform="matrix(-1,0,0,1,1281.42,217.5)"
         id="path61" />
      <path
         d="M 0,0 0.247402,126.515"
         stroke="#000000"
         stroke-miterlimit="8"
         fill="none"
         fill-rule="evenodd"
         transform="matrix(-1,0,0,1,985.747,217.5)"
         id="path62" />
      <path
         d="M 689.5,217.5 984.923,344.015"
         stroke="#000000"
         stroke-miterlimit="8"
         fill="none"
         fill-rule="evenodd"
         id="path63" />
      <path
         d="M 0,0 0.247402,126.515"
         stroke="#000000"
         stroke-miterlimit="8"
         fill="none"
         fill-rule="evenodd"
         transform="matrix(-1,0,0,1,1280.75,217.5)"
         id="path64" />
      <path
         d="m 985.5,217.5 295.42,126.515"
         stroke="#000000"
         stroke-miterlimit="8"
         fill="none"
         fill-rule="evenodd"
         id="path65" />
      <path
         d="m 689.5,217.5 591.09,126.515"
         stroke="#000000"
         stroke-miterlimit="8"
         fill="none"
         fill-rule="evenodd"
         id="path66" />
      <path
         d="m 1281.5,217.5 295.42,126.515"
         stroke="#000000"
         stroke-miterlimit="8"
         fill="none"
         fill-rule="evenodd"
         id="path67" />
      <path
         d="m 985.5,217.5 591.09,126.515"
         stroke="#000000"
         stroke-miterlimit="8"
         fill="none"
         fill-rule="evenodd"
         id="path68" />
      <path
         d="m 689.5,217.5 886.76,126.515"
         stroke="#000000"
         stroke-miterlimit="8"
         fill="none"
         fill-rule="evenodd"
         id="path69" />
      <path
         d="m 1281.5,217.5 591.59,126.515"
         stroke="#000000"
         stroke-miterlimit="8"
         fill="none"
         fill-rule="evenodd"
         id="path70" />
      <path
         d="m 985.5,217.5 887.26,126.515"
         stroke="#000000"
         stroke-miterlimit="8"
         fill="none"
         fill-rule="evenodd"
         id="path71" />
      <path
         d="M 689.5,217.5 1872.43,344.015"
         stroke="#000000"
         stroke-miterlimit="8"
         fill="none"
         fill-rule="evenodd"
         id="path72" />
      <path
         d="M 0,0 1.5748e-4,128.866"
         stroke="#000000"
         stroke-miterlimit="8"
         fill="none"
         fill-rule="evenodd"
         transform="matrix(1,0,0,-1,98.5,619.366)"
         id="path73" />
      <path
         d="M 0,0 295.67,128.866"
         stroke="#000000"
         stroke-miterlimit="8"
         fill="none"
         fill-rule="evenodd"
         transform="matrix(1,0,0,-1,98.5,619.366)"
         id="path74" />
      <path
         d="M 0,0 591.34,131.217"
         stroke="#000000"
         stroke-miterlimit="8"
         fill="none"
         fill-rule="evenodd"
         transform="matrix(1,0,0,-1,98.5,619.717)"
         id="path75" />
      <path
         d="M 0,0 887.01,131.217"
         stroke="#000000"
         stroke-miterlimit="8"
         fill="none"
         fill-rule="evenodd"
         transform="matrix(1,0,0,-1,98.5,619.717)"
         id="path76" />
      <path
         d="M 0,0 1182.68,131.217"
         stroke="#000000"
         stroke-miterlimit="8"
         fill="none"
         fill-rule="evenodd"
         transform="matrix(1,0,0,-1,98.5,619.717)"
         id="path77" />
      <path
         d="M 0,0 1478.35,131.217"
         stroke="#000000"
         stroke-miterlimit="8"
         fill="none"
         fill-rule="evenodd"
         transform="matrix(1,0,0,-1,98.5,619.717)"
         id="path78" />
      <path
         d="M 0,0 1774.52,131.217"
         stroke="#000000"
         stroke-miterlimit="8"
         fill="none"
         fill-rule="evenodd"
         transform="matrix(1,0,0,-1,98.5,619.717)"
         id="path79" />
      <path
         d="M 98.5,490.5 1873.02,617.015"
         stroke="#000000"
         stroke-miterlimit="8"
         fill="none"
         fill-rule="evenodd"
         id="path80" />
      <path
         d="M 393.5,490.5 1872.35,617.015"
         stroke="#000000"
         stroke-miterlimit="8"
         fill="none"
         fill-rule="evenodd"
         id="path81" />
      <path
         d="M 689.5,488.5 1872.68,617.366"
         stroke="#000000"
         stroke-miterlimit="8"
         fill="none"
         fill-rule="evenodd"
         id="path82" />
      <path
         d="m 985.5,488.5 887.51,128.866"
         stroke="#000000"
         stroke-miterlimit="8"
         fill="none"
         fill-rule="evenodd"
         id="path83" />
      <path
         d="m 1280.5,488.5 591.83,128.866"
         stroke="#000000"
         stroke-miterlimit="8"
         fill="none"
         fill-rule="evenodd"
         id="path84" />
      <path
         d="m 1576.5,488.5 296.16,128.866"
         stroke="#000000"
         stroke-miterlimit="8"
         fill="none"
         fill-rule="evenodd"
         id="path85" />
      <path
         d="M 1872.5,488.5 V 617.366"
         stroke="#000000"
         stroke-miterlimit="8"
         fill="none"
         fill-rule="evenodd"
         id="path86" />
      <path
         d="m 619.5,71.5 c 0,-11.598 0.783,-21 1.75,-21 h 728.5 c 0.97,0 1.75,9.402 1.75,21"
         stroke="#000000"
         stroke-miterlimit="8"
         fill="none"
         fill-rule="evenodd"
         id="path87" />
      <path
         d="m 1506.5,1033.5 c 0,12.15 -0.82,22 -1.83,22 H 465.333 c -1.012,0 -1.833,-9.85 -1.833,-22"
         stroke="#000000"
         stroke-miterlimit="8"
         fill="none"
         fill-rule="evenodd"
         id="path88" />
      <text
         font-family="Calibri, Calibri_MSFontService, sans-serif"
         font-weight="400"
         font-size="36px"
         transform="translate(970.21,33)"
         id="text88">m<tspan
   font-size="36px"
   x="4.9226699"
   y="1065"
   id="tspan88">n</tspan></text>
    </g>
  </g>
</svg>
