<?xml version="1.0" encoding="UTF-8" standalone="no"?>
<!-- Created with Inkscape (http://www.inkscape.org/) -->

<svg
   width="279.92917mm"
   height="57.149998mm"
   viewBox="0 0 279.92917 57.149996"
   version="1.1"
   id="svg1"
   inkscape:version="1.4.2 (ebf0e94, 2025-05-08)"
   sodipodi:docname="Immagine15.svg"
   xmlns:inkscape="http://www.inkscape.org/namespaces/inkscape"
   xmlns:sodipodi="http://sodipodi.sourceforge.net/DTD/sodipodi-0.dtd"
   xmlns="http://www.w3.org/2000/svg"
   xmlns:svg="http://www.w3.org/2000/svg">
  <sodipodi:namedview
     id="namedview1"
     pagecolor="#ffffff"
     bordercolor="#000000"
     borderopacity="0.25"
     inkscape:showpageshadow="2"
     inkscape:pageopacity="0.0"
     inkscape:pagecheckerboard="0"
     inkscape:deskcolor="#d1d1d1"
     inkscape:document-units="mm"
     inkscape:zoom="1.6168981"
     inkscape:cx="333.9728"
     inkscape:cy="-9.8954903"
     inkscape:window-width="1436"
     inkscape:window-height="1501"
     inkscape:window-x="8631"
     inkscape:window-y="1611"
     inkscape:window-maximized="0"
     inkscape:current-layer="layer1" />
  <defs
     id="defs1">
    <clipPath
       id="clip0">
      <rect
         x="499"
         y="484"
         width="900"
         height="432"
         id="rect1" />
    </clipPath>
    <clipPath
       id="clip0-4">
      <rect
         x="450"
         y="653"
         width="1058"
         height="216"
         id="rect1-8" />
    </clipPath>
  </defs>
  <g
     inkscape:label="Layer 1"
     inkscape:groupmode="layer"
     id="layer1"
     transform="translate(-16.668749,-151.07708)">
    <g
       clip-path="url(#clip0-4)"
       transform="matrix(0.26458333,0,0,0.26458333,-102.39375,-21.695833)"
       id="g4">
      <path
         d="m 450,761 c 0,-59.647 48.353,-108 108,-108 59.647,0 108,48.353 108,108 0,59.647 -48.353,108 -108,108 -59.647,0 -108,-48.353 -108,-108 z"
         fill="#ff0000"
         fill-rule="evenodd"
         id="path1" />
      <path
         d="m 666,761 c 0,-59.647 48.353,-108 108,-108 59.647,0 108,48.353 108,108 0,59.647 -48.353,108 -108,108 -59.647,0 -108,-48.353 -108,-108 z"
         fill="#3366ff"
         fill-rule="evenodd"
         id="path2" />
      <path
         d="m 1108,761.5 c 0,-47.773 41.19,-86.5 92,-86.5 50.81,0 92,38.727 92,86.5 0,47.773 -41.19,86.5 -92,86.5 -50.81,0 -92,-38.727 -92,-86.5 z"
         fill="#00ff00"
         fill-rule="evenodd"
         id="path3" />
      <path
         d="m 1324,761.5 c 0,-47.773 41.19,-86.5 92,-86.5 50.81,0 92,38.727 92,86.5 0,47.773 -41.19,86.5 -92,86.5 -50.81,0 -92,-38.727 -92,-86.5 z"
         fill="#ffcc00"
         fill-rule="evenodd"
         id="path4" />
    </g>
  </g>
</svg>
