<?xml version="1.0" encoding="UTF-8" standalone="no"?>
<!-- Created with Inkscape (http://www.inkscape.org/) -->

<svg
   width="238.125mm"
   height="114.3mm"
   viewBox="0 0 238.125 114.3"
   version="1.1"
   id="svg1"
   inkscape:version="1.4.2 (ebf0e94, 2025-05-08)"
   sodipodi:docname="Immagine14.svg"
   xmlns:inkscape="http://www.inkscape.org/namespaces/inkscape"
   xmlns:sodipodi="http://sodipodi.sourceforge.net/DTD/sodipodi-0.dtd"
   xmlns="http://www.w3.org/2000/svg"
   xmlns:svg="http://www.w3.org/2000/svg">
  <sodipodi:namedview
     id="namedview1"
     pagecolor="#ffffff"
     bordercolor="#000000"
     borderopacity="0.25"
     inkscape:showpageshadow="2"
     inkscape:pageopacity="0.0"
     inkscape:pagecheckerboard="0"
     inkscape:deskcolor="#d1d1d1"
     inkscape:document-units="mm"
     inkscape:zoom="1.6168981"
     inkscape:cx="505.90694"
     inkscape:cy="364.27774"
     inkscape:window-width="1436"
     inkscape:window-height="1501"
     inkscape:window-x="8631"
     inkscape:window-y="1611"
     inkscape:window-maximized="0"
     inkscape:current-layer="layer1" />
  <defs
     id="defs1">
    <clipPath
       id="clip0">
      <rect
         x="499"
         y="484"
         width="900"
         height="432"
         id="rect1" />
    </clipPath>
  </defs>
  <g
     inkscape:label="Layer 1"
     inkscape:groupmode="layer"
     id="layer1"
     transform="translate(28.839578,-52.122919)">
    <g
       clip-path="url(#clip0)"
       transform="matrix(0.26458333,0,0,0.26458333,-160.86666,-75.935413)"
       id="g3">
      <path
         d="m 499,826 c 0,-49.706 40.294,-90 90,-90 49.706,0 90,40.294 90,90 0,49.706 -40.294,90 -90,90 -49.706,0 -90,-40.294 -90,-90 z"
         fill="#00ccff"
         fill-rule="evenodd"
         id="path1" />
      <path
         d="m 1219,826 c 0,-49.706 40.29,-90 90,-90 49.71,0 90,40.294 90,90 0,49.706 -40.29,90 -90,90 -49.71,0 -90,-40.294 -90,-90 z"
         fill="#00ff00"
         fill-rule="evenodd"
         id="path2" />
      <path
         d="m 823,574 c 0,-49.706 40.294,-90 90,-90 49.706,0 90,40.294 90,90 0,49.706 -40.294,90 -90,90 -49.706,0 -90,-40.294 -90,-90 z"
         fill="#ff0000"
         fill-rule="evenodd"
         id="path3" />
    </g>
  </g>
</svg>
