<?xml version="1.0" encoding="UTF-8" standalone="no"?>
<!-- Created with Inkscape (http://www.inkscape.org/) -->

<svg
   width="345.79004mm"
   height="278.32974mm"
   viewBox="0 0 345.79003 278.32975"
   version="1.1"
   id="svg1"
   inkscape:version="1.3.2 (091e20e, 2023-11-25, custom)"
   sodipodi:docname="crispdm.svg"
   xmlns:inkscape="http://www.inkscape.org/namespaces/inkscape"
   xmlns:sodipodi="http://sodipodi.sourceforge.net/DTD/sodipodi-0.dtd"
   xmlns="http://www.w3.org/2000/svg"
   xmlns:svg="http://www.w3.org/2000/svg">
  <sodipodi:namedview
     id="namedview1"
     pagecolor="#ffffff"
     bordercolor="#000000"
     borderopacity="0.25"
     inkscape:showpageshadow="2"
     inkscape:pageopacity="0.0"
     inkscape:pagecheckerboard="0"
     inkscape:deskcolor="#d1d1d1"
     inkscape:document-units="mm"
     inkscape:zoom="1.1500912"
     inkscape:cx="1155.1258"
     inkscape:cy="517.35028"
     inkscape:window-width="2880"
     inkscape:window-height="1526"
     inkscape:window-x="-11"
     inkscape:window-y="1609"
     inkscape:window-maximized="1"
     inkscape:current-layer="layer1" />
  <defs
     id="defs1">
    <clipPath
       id="clip0">
      <rect
         x="563"
         y="234"
         width="869"
         height="702"
         id="rect1" />
    </clipPath>
    <clipPath
       id="clip0-2">
      <rect
         x="306"
         y="12"
         width="1308"
         height="1053"
         id="rect1-9" />
    </clipPath>
    <clipPath
       id="clip0-5">
      <rect
         x="306"
         y="12"
         width="1308"
         height="1053"
         id="rect1-6" />
    </clipPath>
    <clipPath
       id="clip0-9">
      <rect
         x="306"
         y="12"
         width="1308"
         height="1053"
         id="rect1-93" />
    </clipPath>
    <clipPath
       id="clip0-3">
      <rect
         x="306"
         y="12"
         width="1308"
         height="1053"
         id="rect1-97" />
    </clipPath>
  </defs>
  <g
     inkscape:label="Layer 1"
     inkscape:groupmode="layer"
     id="layer1"
     transform="translate(200.60868,-11.617705)">
    <g
       clip-path="url(#clip0-3)"
       transform="matrix(0.26458333,0,0,0.26458333,-281.80851,8.1901033)"
       id="g20">
      <path
         d="m 1446.84,498.67 c 0.1,-63.253 -12.28,-125.911 -36.47,-184.402 -3.54,-8.54 -13.35,-12.608 -21.94,-9.093 -8.58,3.518 -12.67,13.289 -9.14,21.828 95.12,230.723 -15.71,494.498 -247.52,589.157 -24.97,10.199 -50.81,18.158 -77.21,23.784 -0.21,0 -0.3,0 -0.2,-0.251 l 66.96,-117.831 c 5.13,-7.694 3.01,-18.066 -4.72,-23.166 -7.72,-5.101 -18.14,-2.996 -23.27,4.698 -0.45,0.671 -0.84,1.375 -1.19,2.105 l -85.12,149.805 c -4.57,8.037 -1.73,18.232 6.36,22.776 0,10e-4 0,0.003 0,0.004 l 150.24,84.556 c 8.01,4.64 18.29,1.94 22.95,-6.04 4.68,-7.97 1.96,-18.2 -6.06,-22.85 -0.12,-0.07 -0.25,-0.14 -0.37,-0.21 l -110.53,-62.207 c -0.21,-0.117 -0.17,-0.252 0,-0.302 220.46,-51.529 376.54,-246.968 377.23,-472.361 z"
         fill="#d9d9d9"
         fill-rule="evenodd"
         id="path1" />
      <path
         d="M 900.197,946.557 C 841.489,938.752 784.903,919.515 733.667,889.947 548.906,783.006 463.676,562.64 528.708,360.027 c 0,-0.201 0.201,-0.218 0.302,0 l 68.842,116.7 c 4.712,7.965 15.018,10.619 23.021,5.929 8.005,-4.688 10.672,-14.944 5.96,-22.908 l -87.618,-148.57 c -4.701,-7.968 -15,-10.636 -23.008,-5.958 -0.002,0 -0.004,10e-4 -0.006,0.003 l -149.012,86.99 c -8.008,4.679 -10.688,14.934 -5.986,22.901 4.702,7.968 15.008,10.636 23.014,5.956 L 494.06,356.914 c 0.203,-0.117 0.304,0 0.236,0.184 -78.537,256.504 66.753,527.8 324.517,605.954 25.142,7.623 50.862,13.212 76.912,16.713 0.751,0.099 1.512,0.149 2.269,0.149 9.285,0.046 16.848,-7.409 16.892,-16.646 0.042,-8.455 -6.262,-15.61 -14.689,-16.678 z"
         fill="#d9d9d9"
         fill-rule="evenodd"
         id="path2" />
      <path
         d="m 1296.14,194.551 c 0.15,0.15 0.11,0.285 -0.12,0.285 l -135.08,0.669 c -9.29,0.022 -16.79,7.53 -16.76,16.767 0.02,9.237 7.56,16.707 16.84,16.683 v 0 l 173.04,-0.854 c 9.29,0 16.8,-7.488 16.8,-16.725 l -0.9,-171.9688 c 0.36,-8.8785 -6.58,-16.3664 -15.5,-16.725 -0.43,-0.0164 -0.87,-0.0164 -1.3,0 -9.29,0 -16.81,7.488 -16.81,16.725 0,0.0285 0,0.0555 0,0.084 l 0.64,127.2958 c 0,0.234 -0.11,0.284 -0.29,0.117 C 1161.65,2.24324 913.269,-34.7843 716.566,77.4412 661.443,108.998 613.104,151.054 574.304,201.208 c -5.627,7.344 -4.208,17.839 3.169,23.442 7.324,5.56 17.781,4.215 23.442,-3.021 36.125,-46.677 81.132,-85.812 132.45,-115.17 C 918.508,0.861764 1152.48,37.4857 1296.14,194.551 Z"
         fill="#d9d9d9"
         fill-rule="evenodd"
         id="path3" />
      <path
         d="m 776.861,162.947 h 367.999 v 108 H 776.861 Z"
         fill="#ffc000"
         fill-rule="evenodd"
         id="path4" />
      <text
         font-family="Arial, Arial_MSFontService, sans-serif"
         font-weight="400"
         font-size="42px"
         transform="translate(875.147,210)"
         id="text4">Business<tspan
   font-size="42px"
   x="-51.624298"
   y="51"
   id="tspan4">Understanding</tspan></text>
      <path
         d="m 1244.82,344.934 h 369 v 107 h -369 z"
         fill="#262626"
         fill-rule="evenodd"
         id="path5" />
      <text
         fill="#ffffff"
         font-family="Arial, Arial_MSFontService, sans-serif"
         font-weight="400"
         font-size="42px"
         transform="translate(1384.68,390)"
         id="text5">Data<tspan
   font-size="42px"
   x="-92.772301"
   y="51"
   id="tspan5">Understanding</tspan></text>
      <path
         d="m 1244.82,523.919 h 369 v 108 h -369 z"
         fill="#262626"
         fill-rule="evenodd"
         id="path6" />
      <text
         fill="#ffffff"
         font-family="Arial, Arial_MSFontService, sans-serif"
         font-weight="400"
         font-size="42px"
         transform="translate(1384.68,571)"
         id="text6">Data<tspan
   font-size="42px"
   x="-64.625"
   y="51"
   id="tspan6">Preparation</tspan></text>
      <path
         d="m 776.861,705.906 h 367.999 v 107 H 776.861 Z"
         fill="#262626"
         fill-rule="evenodd"
         id="path7" />
      <text
         fill="#ffffff"
         font-family="Arial, Arial_MSFontService, sans-serif"
         font-weight="400"
         font-size="42px"
         transform="translate(875.273,776)"
         id="text7">Modeling</text>
      <path
         d="m 306.897,523.919 h 368 v 108 h -368 z"
         fill="#262626"
         fill-rule="evenodd"
         id="path8" />
      <text
         fill="#ffffff"
         font-family="Arial, Arial_MSFontService, sans-serif"
         font-weight="400"
         font-size="42px"
         transform="translate(391.89,595)"
         id="text8">Evaluation</text>
      <path
         d="m 306.897,344.934 h 368 v 107 h -368 z"
         fill="#262626"
         fill-rule="evenodd"
         id="path9" />
      <text
         fill="#ffffff"
         font-family="Arial, Arial_MSFontService, sans-serif"
         font-weight="400"
         font-size="42px"
         transform="translate(377.754,415)"
         id="text9">Deployment</text>
      <path
         d="m 868.861,417.926 c 0,-19.329 41.413,-35 92.5,-35 51.089,0 92.499,15.671 92.499,35 v 140.001 c 0,19.329 -41.41,34.999 -92.499,34.999 -51.087,0 -92.5,-15.67 -92.5,-34.999 z"
         fill="#a5a5a5"
         fill-rule="evenodd"
         id="path10" />
      <path
         d="m 1054.36,418.43 c 0,19.33 -41.41,35 -92.499,35 -51.087,0 -92.5,-15.67 -92.5,-35"
         stroke="#000000"
         stroke-width="3.0052"
         stroke-miterlimit="8"
         fill="none"
         fill-rule="evenodd"
         id="path11" />
      <path
         d="m 869.361,418.426 c 0,-19.329 41.413,-35 92.5,-35 51.089,0 92.499,15.671 92.499,35 v 140.001 c 0,19.329 -41.41,34.999 -92.499,34.999 -51.087,0 -92.5,-15.67 -92.5,-34.999 z"
         stroke="#000000"
         stroke-width="3.0052"
         stroke-miterlimit="8"
         fill="none"
         fill-rule="evenodd"
         id="path12" />
      <text
         font-family="Calibri, Calibri_MSFontService, sans-serif"
         font-weight="400"
         font-size="54px"
         transform="translate(909.686,524)"
         id="text12">Data</text>
      <path
         d="m 1126,281.938 87.27,86.514 9.57,-9.495 v 37.981 h -38.31 l 9.59,-9.495 -87.28,-86.514 z"
         fill="#8497b0"
         fill-rule="evenodd"
         id="path13" />
      <path
         d="M 0.0173228,13.4973 H 123.229 V 0.016378 L 150.275,26.9783 123.229,53.9402 V 40.4592 H 0.0173228 Z"
         fill="#8497b0"
         fill-rule="evenodd"
         transform="matrix(-0.770383,0.637581,0.637581,0.770383,1258.14,636.383)"
         id="path14" />
      <path
         d="M 0.0159055,13.4954 H 123.227 V 0.0144882 L 150.274,26.9764 123.227,53.9383 V 40.4573 H 0.0159055 Z"
         fill="#8497b0"
         fill-rule="evenodd"
         transform="matrix(0.770383,-0.637581,-0.637581,-0.770383,1128.08,706.934)"
         id="path15" />
      <path
         d="M 0.0173228,13.4852 H 123.229 V 0.00425197 L 150.275,26.9661 123.229,53.9282 V 40.4471 H 0.0173228 Z"
         fill="#8497b0"
         fill-rule="evenodd"
         transform="matrix(-0.707107,-0.707107,-0.707107,0.707107,1289.66,304.162)"
         id="path16" />
      <path
         d="m 1442.57,462.927 v 28.986 h 13.25 l -26.5,26.014 -26.5,-26.014 h 13.25 v -28.986 z"
         fill="#8497b0"
         fill-rule="evenodd"
         id="path17" />
      <path
         d="M 0.00283465,13.4973 H 123.214 V 0.016378 L 150.261,26.9783 123.214,53.9402 V 40.4592 H 0.00283465 Z"
         fill="#8497b0"
         fill-rule="evenodd"
         transform="matrix(-0.707107,-0.707107,-0.707107,0.707107,766.175,738.49)"
         id="path18" />
      <path
         d="m 477.146,516.926 v -30.75 h -13.25 l 26.5,-26.25 26.5,26.25 h -13.25 v 30.75 z"
         fill="#8497b0"
         fill-rule="evenodd"
         id="path19" />
      <path
         d="M -0.0064705,13.5107 H 362.889 V 0.0105661 l 27.105,27.0000339 -27.105,27 V 40.5107 H -0.0064705 Z"
         fill="#8497b0"
         fill-rule="evenodd"
         transform="matrix(0,-1,-1,0,837,687)"
         id="path20" />
    </g>
  </g>
</svg>
