<?xml version="1.0" encoding="UTF-8" standalone="no"?>
<!-- Created with Inkscape (http://www.inkscape.org/) -->

<svg
   width="229.39375mm"
   height="185.73746mm"
   viewBox="0 0 229.39375 185.73746"
   version="1.1"
   id="svg1"
   inkscape:version="1.3.2 (091e20e, 2023-11-25, custom)"
   sodipodi:docname="crispdm.svg"
   xmlns:inkscape="http://www.inkscape.org/namespaces/inkscape"
   xmlns:sodipodi="http://sodipodi.sourceforge.net/DTD/sodipodi-0.dtd"
   xmlns="http://www.w3.org/2000/svg"
   xmlns:svg="http://www.w3.org/2000/svg">
  <sodipodi:namedview
     id="namedview1"
     pagecolor="#ffffff"
     bordercolor="#000000"
     borderopacity="0.25"
     inkscape:showpageshadow="2"
     inkscape:pageopacity="0.0"
     inkscape:pagecheckerboard="0"
     inkscape:deskcolor="#d1d1d1"
     inkscape:document-units="mm"
     inkscape:zoom="1.1500912"
     inkscape:cx="737.33284"
     inkscape:cy="276.93456"
     inkscape:window-width="2880"
     inkscape:window-height="1526"
     inkscape:window-x="-11"
     inkscape:window-y="694"
     inkscape:window-maximized="1"
     inkscape:current-layer="layer1" />
  <defs
     id="defs1">
    <clipPath
       id="clip0">
      <rect
         x="563"
         y="234"
         width="869"
         height="702"
         id="rect1" />
    </clipPath>
  </defs>
  <g
     inkscape:label="Layer 1"
     inkscape:groupmode="layer"
     id="layer1"
     transform="translate(90.222919,-75.141669)">
    <g
       clip-path="url(#clip0)"
       transform="matrix(0.26458333,0,0,0.26458333,-239.7125,13.229167)"
       id="g18">
      <path
         d="m 1322,558.01 c 0.07,-42.224 -8.17,-84.051 -24.26,-123.096 -2.35,-5.701 -8.88,-8.417 -14.59,-6.07 -5.71,2.348 -8.43,8.871 -6.08,14.571 63.27,154.017 -10.45,330.098 -164.64,393.287 -16.61,6.808 -33.8,12.121 -51.36,15.877 -0.14,0 -0.2,0 -0.13,-0.168 l 44.54,-78.657 c 3.41,-5.136 2,-12.06 -3.14,-15.464 -5.14,-3.405 -12.07,-2 -15.48,3.136 -0.3,0.448 -0.56,0.918 -0.79,1.405 l -56.62,100.001 c -3.04,5.365 -1.15,12.171 4.23,15.204 0,0.001 0,0.002 0,0.003 l 99.93,56.444 c 5.33,3.1 12.17,1.297 15.27,-4.028 3.11,-5.324 1.3,-12.154 -4.03,-15.255 -0.08,-0.048 -0.17,-0.096 -0.25,-0.142 l -73.52,-41.526 c -0.14,-0.078 -0.11,-0.168 0,-0.201 C 1217.72,838.933 1321.54,708.469 1322,558.01 Z"
         fill="#d9d9d9"
         fill-rule="evenodd"
         id="path1" />
      <path
         d="M 958.225,856.729 C 919.157,851.518 881.501,838.674 847.405,818.933 724.452,747.534 667.734,600.406 711.011,465.131 c 0,-0.134 0.134,-0.145 0.201,0 l 45.812,77.915 c 3.136,5.318 9.994,7.09 15.32,3.959 5.327,-3.13 7.102,-9.978 3.966,-15.295 l -58.307,-99.193 c -3.128,-5.32 -9.982,-7.101 -15.311,-3.978 -10e-4,0 -0.003,0.001 -0.004,0.002 l -99.163,58.079 c -5.329,3.124 -7.112,9.971 -3.983,15.29 3.129,5.32 9.987,7.101 15.315,3.977 l 73.097,-42.834 c 0.135,-0.078 0.202,0 0.157,0.123 -52.264,171.255 44.422,352.386 215.956,404.566 16.731,5.089 33.847,8.821 51.182,11.158 0.5,0.066 1.006,0.1 1.51,0.1 6.179,0.03 11.212,-4.947 11.241,-11.114 0.028,-5.645 -4.167,-10.422 -9.775,-11.135 z"
         fill="#d9d9d9"
         fill-rule="evenodd"
         id="path2" />
      <path
         d="m 1221.59,355.064 c 0.1,0.1 0.07,0.19 -0.08,0.19 l -89.88,0.446 c -6.18,0.015 -11.17,5.02 -11.15,11.178 0.01,6.158 5.03,11.138 11.2,11.122 v 0 l 115.14,-0.569 c 6.18,0 11.18,-4.992 11.18,-11.15 l -0.6,-114.646 c 0.24,-5.919 -4.38,-10.911 -10.31,-11.15 -0.29,-0.011 -0.58,-0.011 -0.87,0 -6.18,0 -11.18,4.992 -11.18,11.15 0,0.019 0,0.037 0,0.056 l 0.42,84.864 c 0,0.156 -0.07,0.189 -0.19,0.078 C 1132.1,226.859 966.833,202.174 835.95,276.991 c -36.678,21.038 -68.842,49.075 -94.659,82.511 -3.744,4.896 -2.8,11.893 2.109,15.628 4.873,3.707 11.831,2.81 15.598,-2.014 24.037,-31.118 53.984,-57.208 88.13,-76.78 123.191,-70.398 278.872,-45.982 374.462,58.728 z"
         fill="#d9d9d9"
         fill-rule="evenodd"
         id="path3" />
      <rect
         x="876"
         y="334"
         width="245"
         height="72"
         fill="#262626"
         id="rect3" />
      <text
         fill="#ffffff"
         font-family="Arial, Arial_MSFontService, sans-serif"
         font-weight="400"
         font-size="28px"
         transform="translate(907.71,364)"
         id="text3">Comprensione<tspan
   font-size="28px"
   x="10.12"
   y="34"
   id="tspan3">del problema</tspan></text>
      <rect
         x="1187"
         y="455"
         width="245"
         height="72"
         fill="#262626"
         id="rect4" />
      <text
         fill="#ffffff"
         font-family="Arial, Arial_MSFontService, sans-serif"
         font-weight="400"
         font-size="28px"
         transform="translate(1218.96,484)"
         id="text4">Comprensione<tspan
   font-size="28px"
   x="45.75"
   y="34"
   id="tspan4">dei dati</tspan></text>
      <rect
         x="1187"
         y="575"
         width="245"
         height="72"
         fill="#262626"
         id="rect5" />
      <text
         fill="#ffffff"
         font-family="Arial, Arial_MSFontService, sans-serif"
         font-weight="400"
         font-size="28px"
         transform="translate(1226.71,605)"
         id="text5">Preparazione<tspan
   font-size="28px"
   x="38"
   y="34"
   id="tspan5">dei dati</tspan></text>
      <rect
         x="876"
         y="696"
         width="245"
         height="72"
         fill="#262626"
         id="rect6" />
      <text
         fill="#ffffff"
         font-family="Arial, Arial_MSFontService, sans-serif"
         font-weight="400"
         font-size="28px"
         transform="translate(916.21,742)"
         id="text6">Modellazione</text>
      <rect
         x="565"
         y="575"
         width="245"
         height="72"
         fill="#262626"
         id="rect7" />
      <text
         fill="#ffffff"
         font-family="Arial, Arial_MSFontService, sans-serif"
         font-weight="400"
         font-size="28px"
         transform="translate(615.25,621)"
         id="text7">Valutazione</text>
      <rect
         x="565"
         y="455"
         width="245"
         height="72"
         fill="#262626"
         id="rect8" />
      <text
         fill="#ffffff"
         font-family="Arial, Arial_MSFontService, sans-serif"
         font-weight="400"
         font-size="28px"
         transform="translate(580.96,501)"
         id="text8">Implementazione</text>
      <path
         d="M 937,504.333 C 937,491.447 964.534,481 998.5,481 c 33.97,0 61.5,10.447 61.5,23.333 v 93.334 C 1060,610.553 1032.47,621 998.5,621 964.534,621 937,610.553 937,597.667 Z"
         fill="#a5a5a5"
         fill-rule="evenodd"
         id="path8" />
      <path
         d="m 1060,504.333 c 0,12.887 -27.53,23.334 -61.5,23.334 -33.966,0 -61.5,-10.447 -61.5,-23.334"
         stroke="#000000"
         stroke-width="2"
         stroke-miterlimit="8"
         fill="none"
         fill-rule="evenodd"
         id="path9" />
      <path
         d="M 937,504.333 C 937,491.447 964.534,481 998.5,481 c 33.97,0 61.5,10.447 61.5,23.333 v 93.334 C 1060,610.553 1032.47,621 998.5,621 964.534,621 937,610.553 937,597.667 Z"
         stroke="#000000"
         stroke-width="2"
         stroke-miterlimit="8"
         fill="none"
         fill-rule="evenodd"
         id="path10" />
      <text
         font-family="Calibri, Calibri_MSFontService, sans-serif"
         font-weight="400"
         font-size="36px"
         transform="translate(968.75,575)"
         id="text10">Dati</text>
      <path
         d="m 1108.32,412.969 57.99,57.983 6.36,-6.364 v 25.456 h -25.46 l 6.37,-6.364 -57.99,-57.983 z"
         fill="#8497b0"
         fill-rule="evenodd"
         id="path11" />
      <path
         d="M 0,9 H 82 V 0 L 100,18 82,36 V 27 H 0 Z"
         fill="#8497b0"
         fill-rule="evenodd"
         transform="matrix(-0.770383,0.637581,0.637581,0.770383,1196.14,649.942)"
         id="path12" />
      <path
         d="M 0,9 H 82 V 0 L 100,18 82,36 V 27 H 0 Z"
         fill="#8497b0"
         fill-rule="evenodd"
         transform="matrix(0.770383,-0.637581,-0.637581,-0.770383,1109.65,696.843)"
         id="path13" />
      <path
         d="M 0,9 H 82 V 0 L 100,18 82,36 V 27 H 0 Z"
         fill="#8497b0"
         fill-rule="evenodd"
         transform="matrix(-0.707107,-0.707107,-0.707107,0.707107,1217.19,427.938)"
         id="path14" />
      <path
         d="m 1319.25,534 v 19.5 H 1328 L 1310.5,571 1293,553.5 h 8.75 V 534 Z"
         fill="#8497b0"
         fill-rule="evenodd"
         id="path15" />
      <path
         d="M 0,9 H 82 V 0 L 100,18 82,36 V 27 H 0 Z"
         fill="#8497b0"
         fill-rule="evenodd"
         transform="matrix(-0.707107,-0.707107,-0.707107,0.707107,868.801,717.899)"
         id="path16" />
      <path
         d="M 675.75,570 V 549.5 H 667 L 684.5,532 702,549.5 h -8.75 V 570 Z"
         fill="#8497b0"
         fill-rule="evenodd"
         id="path17" />
      <path
         d="M 0,9.00014 H 241 V 0 l 18,18 -18,18 V 27.0001 H 0 Z"
         fill="#8497b0"
         fill-rule="evenodd"
         transform="matrix(0,-1,-1,0,916,683)"
         id="path18" />
    </g>
  </g>
</svg>
